<?xml version="1.0" standalone="no"?>
<!DOCTYPE svg PUBLIC "-//W3C//DTD SVG 1.1//EN" "http://www.w3.org/Graphics/SVG/1.1/DTD/svg11.dtd" >
<svg xmlns="http://www.w3.org/2000/svg">
<metadata></metadata>
<defs>
<font id="encode_sans_normalsemibold" horiz-adv-x="1308" >
<font-face units-per-em="2048" ascent="1638" descent="-410" />
<missing-glyph horiz-adv-x="452" />
<glyph unicode="&#xfb01;" horiz-adv-x="1460" d="M33 866v240h239v51q0 118 19.5 200.5t61 142t114.5 94.5t172 52.5t242 20.5l14 -207q-201 -9 -270 -62.5t-70 -207.5v-84h293v-240h-293v-866h-285v866h-237zM1020 1446q0 82 38 120t122 38q85 0 124 -38.5t39 -119.5q0 -80 -38.5 -118t-124.5 -38q-85 0 -122.5 37 t-37.5 119zM1038 0v1106h285v-1106h-285z" />
<glyph unicode="&#xfb02;" horiz-adv-x="1462" d="M33 866v240h239v51q0 118 19.5 200.5t61 142t114.5 94.5t172 52.5t242 20.5l14 -207q-201 -9 -270 -62.5t-70 -207.5v-84h293v-240h-293v-866h-285v866h-237zM1038 0v1655h285v-1655h-285z" />
<glyph unicode="&#xfb03;" horiz-adv-x="2320" d="M33 866v240h239v51q0 118 19.5 200.5t61 142t114.5 94.5t172 52.5t242 20.5l14 -207q-201 -9 -270 -62.5t-70 -207.5v-84h293v-240h-293v-866h-285v866h-237zM893 866v240h240v51q0 147 29 241t102 154t186 85.5t291 29.5l14 -207q-201 -9 -270 -62.5t-70 -207.5v-84h293 v-240h-293v-866h-285v866h-237zM1880 1446q0 82 38 120t122 38q85 0 124.5 -39t39.5 -119q0 -79 -39 -117.5t-125 -38.5q-85 0 -122.5 37t-37.5 119zM1898 0v1106h285v-1106h-285z" />
<glyph unicode="&#xfb04;" horiz-adv-x="2322" d="M33 866v240h239v51q0 118 19.5 200.5t61 142t114.5 94.5t172 52.5t242 20.5l14 -207q-201 -9 -270 -62.5t-70 -207.5v-84h293v-240h-293v-866h-285v866h-237zM893 866v240h240v51q0 147 29 241t102 154t186 85.5t291 29.5l14 -207q-201 -9 -270 -62.5t-70 -207.5v-84h293 v-240h-293v-866h-285v866h-237zM1898 0v1655h285v-1655h-285z" />
<glyph horiz-adv-x="0" />
<glyph horiz-adv-x="682" />
<glyph horiz-adv-x="0" />
<glyph horiz-adv-x="0" />
<glyph unicode="&#xd;" horiz-adv-x="618" />
<glyph unicode=" "  horiz-adv-x="452" />
<glyph unicode="&#x09;" horiz-adv-x="452" />
<glyph unicode="&#xa0;" horiz-adv-x="452" />
<glyph unicode="!" horiz-adv-x="575" d="M143 135q0 68 39 106t109 38t109.5 -38t39.5 -106q0 -67 -39 -104t-110 -37t-109.5 37t-38.5 104zM147 1495v21h283v-21l-55 -1020v-24h-174v24z" />
<glyph unicode="&#x22;" horiz-adv-x="864" d="M125 983v672h229v-8l-80 -664h-149zM547 983v672h229v-8l-80 -664h-149z" />
<glyph unicode="#" horiz-adv-x="1263" d="M94 416v184h203l25 311h-228v185h242l35 420h196l-35 -420h250l35 420h197l-35 -420h190v-185h-204l-25 -311h229v-184h-245l-33 -416h-199l33 416h-248l-33 -416h-196l33 416h-187zM494 600h247l25 311h-248z" />
<glyph unicode="$" horiz-adv-x="1265" d="M86 41v238q300 -70 500 -70q311 0 311 194q0 101 -73.5 150.5t-231.5 85.5q-128 29 -216.5 67t-150.5 93t-90.5 130t-28.5 177q0 163 104.5 273t291.5 147v291h264v-277q142 -9 352 -53v-236q-216 60 -411 60q-141 0 -220 -52.5t-79 -146.5t70.5 -148t242.5 -94 q119 -28 201.5 -61.5t147.5 -85t96.5 -125.5t31.5 -174q0 -183 -105.5 -293.5t-308.5 -142.5v-289h-262v278q-225 13 -436 64z" />
<glyph unicode="%" horiz-adv-x="2150" d="M72 1053q0 238 106 360.5t307 122.5q200 0 306 -122.5t106 -360.5q0 -239 -106 -361.5t-306 -122.5q-201 0 -307 122t-106 362zM283 1053q0 -160 48.5 -230.5t153.5 -70.5q104 0 152.5 71t48.5 230t-49 230t-152 71q-105 0 -153.5 -71t-48.5 -230zM598 0l705 1516h247 l-704 -1516h-248zM1255 463q0 238 106 360.5t306 122.5q201 0 307.5 -122.5t106.5 -360.5q0 -239 -106.5 -361t-307.5 -122q-200 0 -306 122t-106 361zM1464 463q0 -160 49 -231.5t154 -71.5q104 0 153.5 72t49.5 231q0 158 -49.5 229.5t-153.5 71.5q-105 0 -154 -71.5 t-49 -229.5z" />
<glyph unicode="&#x26;" horiz-adv-x="1570" d="M92 422q0 141 75.5 244.5t213.5 150.5q-137 145 -137 324q0 190 139.5 294.5t390.5 104.5q189 0 406 -65l2 -13l-35 -188h-17q-180 63 -327 63q-268 0 -268 -219q0 -110 98 -212.5t321 -223.5l183 -100q6 56 6 118v164l258 10v-172q0 -130 -29 -249l184 -101v-20 l-108 -199h-18l-160 94q-178 -247 -570 -247q-281 0 -444.5 119t-163.5 323zM385 436q0 -117 91 -186.5t243 -69.5q244 0 348 168l-231 137q-178 103 -291 189q-160 -72 -160 -238z" />
<glyph unicode="'" horiz-adv-x="442" d="M125 983v672h229v-8l-80 -664h-149z" />
<glyph unicode="(" horiz-adv-x="669" d="M78 725q0 284 81.5 555.5t235.5 497.5h252v-9q-160 -231 -249 -499t-89 -545t89 -545t249 -499v-9h-252q-154 226 -235.5 497.5t-81.5 555.5z" />
<glyph unicode=")" horiz-adv-x="667" d="M23 -319q160 230 247.5 498t87.5 546t-87.5 546t-247.5 498v9h249q155 -225 235.5 -496t80.5 -557t-80.5 -557t-235.5 -496h-249v9z" />
<glyph unicode="*" horiz-adv-x="1021" d="M78 1331l51 158l152 -49l192 -111l-45 221v158h166v-158l-47 -221l192 111l152 49l51 -158l-149 -49l-220 -22l164 -150l94 -129l-135 -96l-94 127l-92 209l-92 -209l-92 -127l-136 96l95 129l164 150l-222 22z" />
<glyph unicode="+" horiz-adv-x="1034" d="M82 666v184h342v336h186v-336h344v-184h-344v-336h-186v336h-342z" />
<glyph unicode="," horiz-adv-x="540" d="M55 -297l90 592h289l-164 -612z" />
<glyph unicode="-" horiz-adv-x="1013" d="M123 465v217h768v-217h-768z" />
<glyph unicode="." horiz-adv-x="534" d="M102 145q0 78 43 117t121 39q80 0 124 -39.5t44 -116.5q0 -78 -44 -117.5t-124 -39.5q-77 0 -120.5 39.5t-43.5 117.5z" />
<glyph unicode="/" horiz-adv-x="862" d="M55 -246l504 1762h248l-504 -1762h-248z" />
<glyph unicode="0" horiz-adv-x="1429" d="M96 756q0 384 160 582t459 198q300 0 458 -197.5t158 -582.5q0 -383 -158 -579.5t-458 -196.5q-299 0 -459 197t-160 579zM385 756q0 -287 79.5 -415t250.5 -128q169 0 248 128t79 415q0 288 -79 416t-248 128q-171 0 -250.5 -128t-79.5 -416z" />
<glyph unicode="1" horiz-adv-x="911" d="M33 1235v14l475 267h219v-1516h-289v1200h-8l-344 -131h-18z" />
<glyph unicode="2" horiz-adv-x="1210" d="M84 2v213q0 87 22.5 160t58.5 126.5t97.5 105t122 88.5t150.5 83q150 78 216 145.5t66 159.5q0 109 -71 161t-220 52q-157 0 -374 -51l-25 236q272 53 461 53q263 0 390.5 -105.5t127.5 -318.5q0 -89 -25 -161.5t-76 -132.5t-114.5 -107.5t-155.5 -98.5q-79 -45 -121 -70 t-96.5 -62t-80.5 -64t-45 -61t-19 -68v-54h733v-229h-1022z" />
<glyph unicode="3" horiz-adv-x="1159" d="M104 8v221h9q50 -12 144.5 -21t162.5 -9q186 0 266 55.5t80 181.5q0 125 -80 178.5t-274 53.5h-138v204h136q173 0 245 52t72 170q0 115 -70.5 166t-230.5 51q-113 0 -311 -31h-11v221q194 35 363 35q275 0 416 -103.5t141 -304.5q0 -129 -66 -218t-188 -124v-14 q138 -29 216.5 -123.5t78.5 -232.5q0 -214 -154 -326.5t-446 -112.5q-220 0 -361 31z" />
<glyph unicode="4" horiz-adv-x="1320" d="M37 492v16l506 1028h8l283 -29l10 -26l-508 -930v-10h434l70 434h204v-434h226v-222h-226v-319h-284v319h-684z" />
<glyph unicode="5" horiz-adv-x="1159" d="M100 8v221h60q136 -26 262 -26q187 0 272.5 58.5t85.5 201.5q0 129 -106.5 180t-366.5 51h-155l-27 27l59 795h817v-230h-600l-22 -377q147 -2 256.5 -17t196 -47.5t140.5 -85t81.5 -128.5t27.5 -178q0 -103 -32 -184.5t-87.5 -136t-135 -90.5t-170.5 -51.5t-199 -15.5 q-131 0 -357 33z" />
<glyph unicode="6" horiz-adv-x="1339" d="M96 678q0 419 197.5 639.5t574.5 220.5q143 0 306 -39l-31 -213q-153 35 -266 35q-223 0 -342 -122t-144 -376q72 60 169.5 93.5t201.5 33.5q234 0 372 -121.5t138 -328.5q0 -239 -156.5 -381t-421.5 -142q-291 0 -444.5 178.5t-153.5 522.5zM385 637q6 -229 81 -336.5 t228 -107.5q135 0 209 78.5t74 222.5q0 131 -72 198.5t-211 67.5q-82 0 -166.5 -34t-142.5 -89z" />
<glyph unicode="7" horiz-adv-x="1081" d="M43 1489l25 27h940l45 -154v-41l-533 -1321l-65 -39l-244 39v35l526 1233h-680z" />
<glyph unicode="8" horiz-adv-x="1337" d="M92 389q0 260 260 387q-101 56 -156 141.5t-55 221.5q0 185 149 290t394 105q239 0 376.5 -104t137.5 -291q0 -88 -29 -157t-74 -112.5t-112 -81.5q122 -53 191 -140.5t69 -233.5q0 -205 -143.5 -315.5t-427.5 -110.5q-580 0 -580 401zM365 420q0 -114 82.5 -175 t224.5 -61q139 0 219 56t80 159q0 43 -11.5 78.5t-37 62.5t-53 47t-72 37.5t-80.5 29t-92 26.5l-68 18q-38 -21 -67 -42.5t-60 -55t-48 -79.5t-17 -101zM399 1124q0 -41 12.5 -74.5t39 -58.5t54.5 -43.5t73.5 -35t80 -26.5t89.5 -24l24 -6q170 103 170 264q0 103 -73.5 159 t-196.5 56q-124 0 -198.5 -54.5t-74.5 -156.5z" />
<glyph unicode="9" horiz-adv-x="1341" d="M70 1016q0 239 156 380.5t421 141.5q292 0 445 -178t153 -522q0 -419 -197.5 -640t-574.5 -221q-142 0 -305 39l31 213q148 -34 266 -34q223 0 341.5 121.5t143.5 375.5q-72 -60 -169 -93.5t-201 -33.5q-233 0 -371.5 122t-138.5 329zM365 1022q0 -132 72 -199t210 -67 q82 0 166.5 34t142.5 89q-6 229 -81 336.5t-228 107.5q-135 0 -208.5 -78t-73.5 -223z" />
<glyph unicode=":" horiz-adv-x="561" d="M115 145q0 78 43 117t121 39q79 0 123 -39.5t44 -116.5q0 -78 -43.5 -117.5t-123.5 -39.5q-77 0 -120.5 39.5t-43.5 117.5zM115 965q0 78 43 116.5t121 38.5q80 0 123.5 -39t43.5 -116q0 -78 -43.5 -118t-123.5 -40q-77 0 -120.5 40t-43.5 118z" />
<glyph unicode=";" horiz-adv-x="595" d="M82 -297l90 592h289l-164 -612zM143 965q0 78 43 116.5t121 38.5q80 0 124 -39t44 -116q0 -78 -44 -118t-124 -40q-77 0 -120.5 40t-43.5 118z" />
<glyph unicode="&#x3c;" horiz-adv-x="1095" d="M78 657v179l885 387v-205l-625 -273l623 -270v-203z" />
<glyph unicode="=" horiz-adv-x="1095" d="M129 403v191h838v-191h-838zM129 850v188h838v-188h-838z" />
<glyph unicode="&#x3e;" horiz-adv-x="1097" d="M135 1018v205l885 -387v-179l-883 -385v203l623 270z" />
<glyph unicode="?" horiz-adv-x="960" d="M63 1485q190 47 361 47q104 0 189 -23.5t149 -71.5t99.5 -126t35.5 -181q0 -93 -31.5 -167t-88.5 -124t-125.5 -82t-151.5 -50l-11 -252v-33h-190v33l-20 376q76 16 134 36.5t111 51.5t82 77.5t29 105.5q0 209 -260 209q-131 0 -295 -39zM252 131q0 69 39 106t110 37 q70 0 110 -37.5t40 -105.5q0 -67 -40 -104t-110 -37q-71 0 -110 37t-39 104z" />
<glyph unicode="@" horiz-adv-x="1818" d="M88 532q0 395 229.5 620.5t620.5 225.5q377 0 576.5 -198t199.5 -555q0 -248 -101 -383.5t-292 -135.5q-106 0 -163 54.5t-64 124.5h-11q-53 -78 -145 -123t-188 -45q-133 0 -208 96t-75 264q0 233 140.5 382t369.5 149q135 0 321 -74l-79 -426q-17 -96 -17 -119 q0 -64 30 -96.5t97 -32.5q100 0 154.5 96t54.5 269q0 281 -152.5 432t-447.5 151q-311 0 -491.5 -178.5t-180.5 -497.5q0 -309 167 -472.5t450 -163.5q175 0 411 71l52 -160q-266 -79 -463 -79q-176 0 -321.5 52t-251 151.5t-164 253t-58.5 347.5zM643 477q0 -99 36.5 -154 t108.5 -55q96 0 174 73t101 196l53 301q-77 22 -137 22q-147 0 -241.5 -109t-94.5 -274z" />
<glyph unicode="A" horiz-adv-x="1472" d="M4 0v16l516 1500h432l516 -1500v-16h-282l-137 395h-627l-135 -395h-283zM492 625h487l-137 401l-94 285h-25l-92 -285z" />
<glyph unicode="B" horiz-adv-x="1425" d="M160 10v1495q318 31 516 31q327 0 473.5 -100t146.5 -322q0 -131 -67 -218t-193 -116v-8q151 -29 230.5 -122t79.5 -242q0 -217 -155.5 -322.5t-473.5 -105.5q-261 0 -557 30zM436 203q69 -13 277 -13q175 0 259.5 59t84.5 183q0 123 -79.5 180.5t-250.5 57.5h-291v-467z M436 864h273q164 0 231.5 53t67.5 179q0 124 -72.5 176.5t-243.5 52.5q-155 0 -256 -14v-447z" />
<glyph unicode="C" horiz-adv-x="1226" d="M90 756q0 395 178.5 588.5t538.5 193.5q151 0 348 -33v-235q-213 28 -315 28q-248 0 -350.5 -122t-102.5 -420q0 -294 101 -416.5t341 -122.5q67 0 167 10.5t159 24.5v-234q-157 -41 -334 -41q-369 0 -550 193t-181 586z" />
<glyph unicode="D" horiz-adv-x="1550" d="M160 6v1505q306 23 481 23q427 0 624 -186.5t197 -591.5q0 -412 -206.5 -595.5t-673.5 -183.5q-267 0 -422 29zM449 229q129 -18 237 -18q257 0 368 126t111 421q0 293 -112 417.5t-373 124.5q-84 0 -231 -14v-1057z" />
<glyph unicode="E" horiz-adv-x="1316" d="M160 0v1516h1050v-230h-759v-407h696v-230h-696v-420h778v-229h-1069z" />
<glyph unicode="F" horiz-adv-x="1263" d="M160 0v1516h1042v-230h-751v-438h679v-230h-679v-618h-291z" />
<glyph unicode="G" horiz-adv-x="1406" d="M88 756q0 393 192.5 587.5t579.5 194.5q230 0 416 -49v-236q-235 45 -393 45q-273 0 -384.5 -122.5t-111.5 -419.5q0 -292 103 -415.5t350 -123.5q85 0 184 12v541h268v-723q-260 -70 -461 -70q-375 0 -559 193.5t-184 585.5z" />
<glyph unicode="H" horiz-adv-x="1634" d="M160 0v1516h291v-625h733v625h289v-1516h-289v662h-733v-662h-291z" />
<glyph unicode="I" horiz-adv-x="610" d="M160 0v1516h291v-1516h-291z" />
<glyph unicode="J" horiz-adv-x="608" d="M6 -326q91 203 124.5 355.5t33.5 363.5v1123h291v-1143q0 -211 -57 -382t-203 -401z" />
<glyph unicode="K" horiz-adv-x="1447" d="M160 0v1516h291v-633h243l396 633h325l-438 -670l-86 -53v-15l92 -53l467 -725h-324l-411 653h-264v-653h-291z" />
<glyph unicode="L" horiz-adv-x="1142" d="M160 0v1516h291v-1289h663v-227h-954z" />
<glyph unicode="M" horiz-adv-x="1990" d="M160 0v1516h397l324 -807l106 -318h14l109 318l324 807h397v-1516h-260v1180h-17l-151 -420l-287 -699h-244l-286 699l-152 420h-14v-1180h-260z" />
<glyph unicode="N" horiz-adv-x="1640" d="M160 0v1516h237l690 -908l121 -176h17v1084h256v-1516h-238l-684 897l-127 184h-16v-1081h-256z" />
<glyph unicode="O" horiz-adv-x="1589" d="M88 756q0 383 181.5 581.5t525.5 198.5q342 0 524 -199.5t182 -580.5q0 -380 -181.5 -578t-524.5 -198q-344 0 -525.5 197.5t-181.5 578.5zM385 756q0 -289 96 -415t314 -126q217 0 313 126t96 415q0 288 -97 416t-312 128q-216 0 -313 -127.5t-97 -416.5z" />
<glyph unicode="P" horiz-adv-x="1390" d="M160 0v1505q236 31 426 31q393 0 571 -128.5t178 -412.5q0 -277 -180 -408.5t-557 -131.5q-94 0 -147 4v-459h-291zM451 698q75 -14 192 -14q220 0 308.5 69.5t88.5 241.5q0 170 -88 241t-305 71q-90 0 -196 -13v-596z" />
<glyph unicode="Q" horiz-adv-x="1585" d="M84 756q0 375 184.5 577.5t524.5 202.5t523 -202.5t183 -577.5q0 -338 -159.5 -518.5t-458.5 -180.5v-20q220 -45 332.5 -62.5t259.5 -29.5l-64 -240q-261 56 -452 111.5t-343 124.5t-250 146t-162 178.5t-91 219.5t-27 271zM379 756q0 -281 99.5 -411t314.5 -130 q214 0 312.5 129.5t98.5 411.5q0 284 -98.5 415.5t-312.5 131.5t-314 -132t-100 -415z" />
<glyph unicode="R" horiz-adv-x="1429" d="M160 0v1505q228 31 426 31q393 0 571 -120.5t178 -387.5q0 -337 -313 -450l373 -578h-324l-307 526q-74 -6 -160 -6q-67 0 -153 8v-528h-291zM451 764q59 -16 192 -16q220 0 308.5 62.5t88.5 217.5q0 153 -88.5 216t-304.5 63q-85 0 -196 -13v-530z" />
<glyph unicode="S" horiz-adv-x="1259" d="M82 41v238q300 -70 500 -70q311 0 311 194q0 101 -73.5 150.5t-231.5 85.5q-128 29 -216.5 67t-150.5 93t-90.5 130t-28.5 177q0 201 154 318.5t418 117.5q185 0 440 -55v-236q-216 60 -412 60q-141 0 -220 -52.5t-79 -146.5t71 -148t243 -94q119 -28 201.5 -61.5 t147.5 -85t96.5 -125.5t31.5 -174q0 -219 -150.5 -334t-437.5 -115q-240 0 -524 66z" />
<glyph unicode="T" horiz-adv-x="1282" d="M37 1284v232h1208v-232h-459v-1284h-290v1284h-459z" />
<glyph unicode="U" horiz-adv-x="1605" d="M145 621v897h289v-902q0 -206 90 -302.5t279 -96.5t277.5 95.5t88.5 303.5v902h291v-897q0 -169 -35.5 -287.5t-113.5 -198.5t-203 -117.5t-305 -37.5q-355 0 -506.5 152.5t-151.5 488.5z" />
<glyph unicode="V" horiz-adv-x="1462" d="M6 1516h305l324 -936l88 -306h20l91 306l323 936h301l-532 -1516h-387z" />
<glyph unicode="W" horiz-adv-x="2172" d="M29 1516h309l217 -949l53 -274h21l63 274l250 949h293l248 -949l61 -274h21l55 274l219 949h309l-393 -1516h-383l-223 836l-53 315h-17l-53 -317l-225 -834h-383z" />
<glyph unicode="X" horiz-adv-x="1452" d="M-10 0l551 786l-516 730h329l322 -474l43 -79h16l43 79l324 474h325l-526 -740l565 -776h-329l-365 530l-39 70h-16l-37 -70l-363 -530h-327z" />
<glyph unicode="Y" horiz-adv-x="1400" d="M-6 1516h315l320 -611l61 -147h19l63 147l320 611h313l-557 -1014v-502h-291v494z" />
<glyph unicode="Z" horiz-adv-x="1282" d="M66 0v215l770 1053v14h-742v234h1094v-209l-770 -1059v-15h801v-233h-1153z" />
<glyph unicode="[" horiz-adv-x="718" d="M166 -328v2106h496v-191h-273v-1724h273v-191h-496z" />
<glyph unicode="\" horiz-adv-x="860" d="M55 1516h246l502 -1762h-244z" />
<glyph unicode="]" horiz-adv-x="718" d="M57 -137h273v1724h-273v191h496v-2106h-496v191z" />
<glyph unicode="^" horiz-adv-x="1046" d="M78 985l319 631h252l320 -631h-205l-238 449h-8l-235 -449h-205z" />
<glyph unicode="_" horiz-adv-x="1280" d="M96 -119h1088v-215h-1088v215z" />
<glyph unicode="`" horiz-adv-x="583" d="M49 1653h299l137 -379l-209 -21z" />
<glyph unicode="a" horiz-adv-x="1161" d="M70 297q0 163 101.5 248t317.5 102l261 19v36q0 124 -49 167.5t-199 43.5q-170 0 -344 -36l-19 202q228 41 412 41q246 0 364.5 -90.5t118.5 -279.5v-750h-233l-27 137h-16q-179 -147 -377 -147q-151 0 -231 80t-80 227zM356 328q0 -138 142 -138q117 0 252 93v227 l-175 -16q-122 -11 -170.5 -47.5t-48.5 -118.5z" />
<glyph unicode="b" horiz-adv-x="1306" d="M133 35v1620h285v-668q119 137 344 137q228 0 345.5 -137.5t117.5 -413.5q0 -286 -155.5 -440t-436.5 -156q-215 0 -500 58zM418 195q104 -19 211 -19q168 0 238.5 83t70.5 292q0 198 -58.5 277t-199.5 79q-118 0 -190 -58.5t-72 -168.5v-485z" />
<glyph unicode="c" horiz-adv-x="1028" d="M82 553q0 571 553 571q168 0 309 -32v-228q-165 27 -282 27q-155 0 -225 -80.5t-70 -255.5q0 -181 68 -260.5t224 -79.5q152 0 285 25v-226q-125 -32 -309 -32q-553 0 -553 571z" />
<glyph unicode="d" d="M82 535q0 290 157 440.5t433 150.5q61 0 215 -14v543h284v-1655h-249l-23 135h-14q-110 -155 -338 -155q-465 0 -465 555zM369 553q0 -198 59 -279t199 -81q118 0 189 61.5t71 177.5v471q-128 21 -223 21q-159 0 -227 -82.5t-68 -288.5z" />
<glyph unicode="e" horiz-adv-x="1175" d="M84 543q0 284 139 432.5t406 148.5q465 0 465 -493q0 -98 -17 -162h-712q12 -150 79 -209t220 -59q203 0 378 51l11 -207q-195 -63 -418 -63q-551 0 -551 561zM365 633h477q-4 155 -57 222t-167 67q-120 0 -181.5 -69.5t-71.5 -219.5z" />
<glyph unicode="f" horiz-adv-x="876" d="M33 866v240h239v51q0 118 19.5 200.5t61 142t114.5 94.5t172 52.5t242 20.5l14 -207q-201 -9 -270 -62.5t-70 -207.5v-84h293v-240h-293v-866h-285v866h-237z" />
<glyph unicode="g" horiz-adv-x="1306" d="M82 547q0 284 157.5 431.5t434.5 147.5q224 0 500 -79v-922q0 -127 -31 -227t-85 -164.5t-130.5 -107t-162.5 -60t-187 -17.5q-238 0 -418 48l18 208q183 -43 350 -43q85 0 150.5 16t118 53t80 102t28.5 157v92h-14q-108 -162 -342 -162q-467 0 -467 527zM371 567 q0 -186 58.5 -263t199.5 -77q119 0 189.5 62.5t70.5 179.5v434q-128 21 -223 21q-159 0 -227 -79.5t-68 -277.5z" />
<glyph unicode="h" d="M135 0v1655h285v-670q151 73 258.5 107t195.5 34q146 0 226 -78.5t80 -226.5v-821h-285v725q0 91 -35.5 132.5t-109.5 41.5q-125 0 -330 -92v-807h-285z" />
<glyph unicode="i" horiz-adv-x="559" d="M119 1446q0 82 38 120t122 38q85 0 124 -38.5t39 -119.5q0 -80 -38.5 -118t-124.5 -38q-85 0 -122.5 37t-37.5 119zM137 0v1106h285v-1106h-285z" />
<glyph unicode="j" horiz-adv-x="555" d="M27 -406q61 160 86.5 315t25.5 386q0 635 -4 811h285v-944q-18 -325 -187 -613zM113 1446q0 82 37.5 120t123.5 38q85 0 123.5 -38.5t38.5 -119.5q0 -79 -38.5 -117.5t-123.5 -38.5q-86 0 -123.5 37t-37.5 119z" />
<glyph unicode="k" horiz-adv-x="1212" d="M135 0v1655h285v-993h147l310 444h315l-385 -518l-45 -15v-8l47 -16l418 -549h-316l-348 477h-143v-477h-285z" />
<glyph unicode="l" horiz-adv-x="561" d="M139 0v1655h285v-1655h-285z" />
<glyph unicode="m" horiz-adv-x="1925" d="M137 0v1106h236l16 -127h12q125 76 221 111.5t183 35.5q201 0 272 -149h8q244 149 406 149q146 0 225.5 -78.5t79.5 -226.5v-821h-283v721q0 91 -35.5 131.5t-111.5 40.5q-106 0 -258 -84v-809h-283v721q0 92 -35 132t-112 40q-103 0 -258 -86v-807h-283z" />
<glyph unicode="n" d="M137 0v1106h238l16 -127h12q158 78 269 112.5t205 34.5q144 0 223.5 -78.5t79.5 -226.5v-821h-285v725q0 93 -34.5 133.5t-110.5 40.5q-126 0 -328 -92v-807h-285z" />
<glyph unicode="o" horiz-adv-x="1286" d="M80 553q0 278 144.5 425.5t418.5 147.5t418.5 -147.5t144.5 -425.5t-144.5 -425.5t-418.5 -147.5t-418.5 147.5t-144.5 425.5zM367 553q0 -191 64 -272.5t212 -81.5t212.5 81.5t64.5 272.5t-64 271.5t-213 80.5q-148 0 -212 -80.5t-64 -271.5z" />
<glyph unicode="p" horiz-adv-x="1310" d="M137 -451v1557h248l23 -133h14q111 153 342 153q463 0 463 -553q0 -287 -155.5 -440t-434.5 -153q-108 0 -215 14v-445h-285zM422 203q100 -21 221 -21q161 0 229 82t68 289q0 200 -58 280t-200 80q-120 0 -190 -62t-70 -181v-467z" />
<glyph unicode="q" horiz-adv-x="1306" d="M82 535q0 287 155.5 439t438.5 152q240 0 495 -47v-1530h-272v588q-124 -157 -352 -157q-465 0 -465 555zM369 557q0 -201 57 -282.5t201 -81.5q124 0 192 64t68 183v463q-114 21 -221 21q-164 0 -230.5 -82t-66.5 -285z" />
<glyph unicode="r" horiz-adv-x="880" d="M137 0v1106h238l16 -160h8q220 148 369 178h90v-245h-100q-84 -9 -173.5 -40t-162.5 -73v-766h-285z" />
<glyph unicode="s" horiz-adv-x="1046" d="M86 27v204q241 -53 403 -53q209 0 209 127q0 66 -48.5 97t-153.5 47q-147 23 -207 45q-161 61 -187 223q-6 34 -6 74q0 160 120 249.5t333 89.5q152 0 379 -40l-8 -218q-223 50 -345 50q-206 0 -206 -125q0 -66 53.5 -93.5t183.5 -48.5q86 -13 149 -34.5t114.5 -59 t77.5 -97t26 -140.5q0 -166 -121.5 -256.5t-349.5 -90.5q-174 0 -416 50z" />
<glyph unicode="t" horiz-adv-x="880" d="M35 864v242h225l43 303l221 27v-330h301v-242h-299v-483q0 -98 40 -141t130 -43q62 0 135 24v-215q-114 -29 -227 -29q-178 0 -269 86t-91 252v549h-209z" />
<glyph unicode="u" d="M129 285v821h285v-733q0 -91 32.5 -130.5t108.5 -39.5q112 0 334 98v805h285v-1106h-240l-16 131h-9q-180 -91 -267 -121t-210 -30q-148 0 -225.5 79t-77.5 226z" />
<glyph unicode="v" horiz-adv-x="1226" d="M27 1075v31h303l219 -660l55 -219h23l55 219l225 660h297v-31l-416 -1075h-352z" />
<glyph unicode="w" horiz-adv-x="1703" d="M35 1096v10h278l160 -684l29 -152h18l29 152l178 684h248l182 -684l31 -152h18l29 152l156 684h276v-10l-295 -1096h-315l-170 633l-27 139h-18l-25 -139l-166 -633h-313z" />
<glyph unicode="x" horiz-adv-x="1216" d="M16 0v31l398 542l-379 514v19h301l203 -287l63 -98h14l64 98l201 287h301v-19l-379 -522l397 -534v-31h-299l-219 307l-68 111h-16l-66 -111l-217 -307h-299z" />
<glyph unicode="y" horiz-adv-x="1236" d="M18 1075v31h306l229 -619l57 -188h17l57 188l238 619h297v-31l-637 -1526l-267 41l-2 25l162 399z" />
<glyph unicode="z" horiz-adv-x="1093" d="M74 0v182l567 692v15h-549v217h909v-178l-555 -695v-16h576v-217h-948z" />
<glyph unicode="{" horiz-adv-x="724" d="M61 621v217q140 0 140 194v492q0 138 52 196t175 58q39 0 123.5 -4t101.5 -7v-180h-127q-50 0 -72 -21t-22 -67v-526q0 -94 -44.5 -162.5t-117.5 -83.5q73 -12 117.5 -79.5t44.5 -162.5v-530q0 -48 21.5 -69t72.5 -21h127v-180q-17 -3 -100.5 -7t-122.5 -4 q-123 0 -176 58.5t-53 197.5v496q0 195 -140 195z" />
<glyph unicode="|" horiz-adv-x="600" d="M166 -451v2106h268v-2106h-268z" />
<glyph unicode="}" horiz-adv-x="724" d="M70 -135h129q52 0 74 21t22 69v530q0 95 43.5 162.5t116.5 79.5q-73 15 -116.5 83t-43.5 163v526q0 46 -22 67t-74 21h-129v180q18 3 103 7t124 4q123 0 175 -58t52 -196v-492q0 -194 140 -194v-217q-140 0 -140 -195v-496q0 -139 -53 -197.5t-176 -58.5q-39 0 -123 4 t-102 7v180z" />
<glyph unicode="~" horiz-adv-x="1378" d="M98 563q124 144 202.5 195t174.5 51q58 0 117.5 -24.5t101 -53.5t94 -53.5t99.5 -24.5q65 0 127.5 40t107.5 110l160 -94q-183 -277 -371 -277q-61 0 -122.5 24.5t-103 53.5t-91.5 53.5t-92 24.5q-63 0 -121 -36t-129 -116z" />
<glyph unicode="&#xa1;" horiz-adv-x="544" d="M127 971q0 68 38.5 104.5t108.5 36.5q71 0 110.5 -37t39.5 -104q0 -68 -40 -106t-110 -38t-108.5 38t-38.5 106zM131 -389l53 1020v24h174v-24l56 -1020v-21h-283v21z" />
<glyph unicode="&#xa2;" horiz-adv-x="1058" d="M82 553q0 521 463 567v232h182v-232q119 -6 217 -28v-228q-165 27 -282 27q-155 0 -225 -80.5t-70 -255.5q0 -181 68 -260.5t224 -79.5q152 0 285 25v-226q-80 -20 -217 -30v-230h-182v232q-463 43 -463 567z" />
<glyph unicode="&#xa3;" horiz-adv-x="1392" d="M92 0v250h309v399h-309v221h309v191q0 239 130 355t403 116q167 0 369 -55l-15 -232q-179 43 -319 43q-152 0 -214.5 -52t-62.5 -175v-191h430v-221h-430v-401h582v-248h-1182z" />
<glyph unicode="&#xa4;" horiz-adv-x="1288" d="M104 334l113 110l92 66q-92 98 -92 248q0 148 92 246l-92 67l-113 111l115 114l113 -112l76 -107q100 53 237 53q136 0 236 -53l77 107l111 112l115 -114l-113 -111l-94 -67q92 -98 92 -246t-92 -246l94 -68l113 -110l-115 -115l-111 113l-77 104q-100 -53 -236 -53 q-137 0 -237 53l-76 -104l-113 -113zM395 758q0 -106 67 -164.5t183 -58.5q114 0 180 58t66 165q0 106 -66 163.5t-180 57.5q-116 0 -183 -57.5t-67 -163.5z" />
<glyph unicode="&#xa5;" horiz-adv-x="1521" d="M59 1516h316l319 -611l62 -147h18l64 147l319 611h313l-456 -832h274v-178h-375v-162h375v-180h-375v-164h-290v164h-420v180h420v162h-420v178h313z" />
<glyph unicode="&#xa6;" horiz-adv-x="600" d="M166 418h268v-869h-268v869zM166 786v869h268v-869h-268z" />
<glyph unicode="&#xa7;" horiz-adv-x="1101" d="M111 27v198q235 -51 403 -51q211 0 211 131q0 66 -50 98t-155 48q-148 21 -211 45q-164 63 -185 238q-3 27 -3 57q0 125 82 210q-82 75 -82 213q0 160 120.5 251t331.5 91q138 0 381 -40l-8 -216q-223 50 -344 50q-209 0 -209 -127q0 -66 55 -94.5t183 -49.5 q87 -13 149 -34.5t113.5 -58.5t77.5 -96t26 -140q0 -140 -79 -222q79 -73 79 -204q0 -166 -121.5 -256.5t-347.5 -90.5q-172 0 -417 50zM391 811q0 -40 12.5 -68.5t39.5 -47.5t56 -29.5t76 -22.5q91 -24 117 -35q35 41 35 105q0 81 -41 118t-127 56q-9 2 -36 8.5t-50 13 t-35 11.5q-47 -44 -47 -109z" />
<glyph unicode="&#xa8;" horiz-adv-x="1058" d="M109 1440q0 74 35.5 108.5t111.5 34.5t111.5 -35t35.5 -108q0 -75 -35 -109.5t-112 -34.5q-75 0 -111 34.5t-36 109.5zM633 1440q0 74 35.5 108.5t111.5 34.5t112 -35.5t36 -107.5q0 -75 -35.5 -109.5t-112.5 -34.5q-75 0 -111 34.5t-36 109.5z" />
<glyph unicode="&#xa9;" horiz-adv-x="1699" d="M90 758q0 173 54.5 318t153 246.5t240.5 158.5t312 57t312 -57t240.5 -158.5t153 -246.5t54.5 -318q0 -231 -93.5 -408t-266.5 -275t-400 -98t-400 98t-266.5 275t-93.5 408zM244 758q0 -289 163 -462t443 -173t443 173t163 462t-163.5 463t-442.5 174t-442.5 -174 t-163.5 -463zM500 752q0 209 98 315.5t283 106.5q93 0 182 -21v-149q-92 18 -162 18q-118 0 -171.5 -65t-53.5 -203q0 -137 54 -202t167 -65q63 0 168 19v-150q-80 -22 -184 -22q-184 0 -282.5 106.5t-98.5 311.5z" />
<glyph unicode="&#xaa;" horiz-adv-x="954" d="M78 948q0 107 82 168t239 72l203 12v19q0 91 -32.5 118t-137.5 27q-107 0 -266 -21l-14 154q181 31 313 31q194 0 280 -60.5t86 -193.5v-553h-194l-12 96h-9q-145 -104 -284 -104q-115 0 -184.5 64.5t-69.5 170.5zM307 965q0 -43 28 -67t83 -24q73 0 184 54v141l-106 -6 q-105 -6 -147 -28t-42 -70z" />
<glyph unicode="&#xab;" horiz-adv-x="1394" d="M61 549v8l369 487h291l-369 -487v-8l369 -488h-291zM657 549v8l369 487h291l-369 -487v-8l369 -488h-291z" />
<glyph unicode="&#xac;" horiz-adv-x="1728" d="M111 659v234h1476v-682h-276v448h-1200z" />
<glyph unicode="&#xad;" horiz-adv-x="1013" d="M123 465v217h768v-217h-768z" />
<glyph unicode="&#xae;" horiz-adv-x="1452" d="M98 915q0 182 79 324.5t222 222.5t326 80q279 0 455 -175.5t176 -451.5t-176 -450t-455 -174q-278 0 -452.5 174t-174.5 450zM227 915q0 -227 136.5 -366t361.5 -139q227 0 364.5 139.5t137.5 365.5q0 225 -138 365.5t-364 140.5q-225 0 -361.5 -140.5t-136.5 -365.5z M502 596v661q114 13 194 13q150 0 222.5 -52.5t72.5 -160.5q0 -152 -131 -193l-2 -6l152 -262h-129l-133 235h-123v-235h-123zM625 932q12 -2 75 -2q88 0 127 29.5t39 95.5q0 61 -36 90t-119 29q-51 0 -86 -3v-239z" />
<glyph unicode="&#xaf;" horiz-adv-x="1021" d="M117 1319v190h755v-190h-755z" />
<glyph unicode="&#xb0;" horiz-adv-x="976" d="M74 1147q0 165 117.5 274t297.5 109q179 0 296.5 -109t117.5 -274q0 -163 -117.5 -272t-296.5 -109t-297 109t-118 272zM254 1147q0 -101 63 -163t172 -62q107 0 169.5 62t62.5 163q0 103 -62.5 165t-169.5 62q-109 0 -172 -62t-63 -165z" />
<glyph unicode="&#xb1;" horiz-adv-x="1105" d="M127 780v187h332v333h186v-333h332v-187h-332v-323h-186v323h-332zM129 139v187h850v-187h-850z" />
<glyph unicode="&#xb2;" horiz-adv-x="958" d="M70 616v168q0 142 81.5 242t268.5 188q125 57 169 98t44 93q0 133 -213 133q-107 0 -295 -37l-25 201q218 45 365 45q409 0 409 -322q0 -116 -71 -202t-225 -158q-114 -60 -159.5 -106.5t-45.5 -102.5v-39h501v-201h-804z" />
<glyph unicode="&#xb3;" horiz-adv-x="911" d="M84 1720q138 29 291 29q216 0 326 -79.5t110 -233.5q0 -86 -40 -149t-114 -95q177 -66 177 -268q0 -157 -114 -241.5t-329 -84.5q-180 0 -305 25v208h12q101 -22 238 -22q140 0 199 35t59 112q0 75 -60 108.5t-204 33.5h-111v166h109q125 0 181 34t56 105 q0 72 -51.5 104.5t-171.5 32.5q-96 0 -244 -22h-12z" />
<glyph unicode="&#xb4;" horiz-adv-x="565" d="M80 1264l139 383h291l-227 -400z" />
<glyph unicode="&#xb5;" horiz-adv-x="1378" d="M162 -451v1557h284v-735q0 -89 34 -131.5t106 -42.5q69 0 147.5 24t188.5 72v813h284v-1106h-237l-19 131h-8q-177 -91 -265.5 -121t-211.5 -30h-19v-431h-284z" />
<glyph unicode="&#xb6;" horiz-adv-x="1310" d="M70 1034q0 135 33.5 231.5t99.5 153t153 82t203 25.5q107 0 275 -21v-1505h-136v545q-51 -2 -141 -2q-116 0 -203 25.5t-152 82t-98.5 152.5t-33.5 231zM948 0v1505h174v-1505h-174z" />
<glyph unicode="&#xb7;" horiz-adv-x="540" d="M106 758q0 85 39 122.5t125 37.5q85 0 124.5 -38.5t39.5 -121.5q0 -82 -39.5 -121t-124.5 -39q-86 0 -125 37.5t-39 122.5z" />
<glyph unicode="&#xb8;" horiz-adv-x="638" d="M74 -254q74 -22 153 -22q60 0 86.5 21.5t26.5 66.5q0 92 -137 258h182q87 -106 117 -166.5t30 -124.5q0 -108 -69 -169t-189 -61q-79 0 -200 25v172z" />
<glyph unicode="&#xb9;" horiz-adv-x="733" d="M31 1511l2 29l375 193h178v-1119h-244v863l-262 -93h-17z" />
<glyph unicode="&#xba;" horiz-adv-x="1005" d="M82 1118q0 204 109 308t313 104q202 0 311 -104t109 -308t-108.5 -307.5t-311.5 -103.5q-204 0 -313 103.5t-109 307.5zM311 1118q0 -141 43.5 -191t149.5 -50q105 0 147.5 50t42.5 191t-43 192.5t-147 51.5q-106 0 -149.5 -51.5t-43.5 -192.5z" />
<glyph unicode="&#xbb;" horiz-adv-x="1394" d="M78 61l368 488v8l-368 487h291l366 -487v-8l-366 -488h-291zM674 61l368 488v8l-368 487h291l366 -487v-8l-366 -488h-291z" />
<glyph unicode="&#xbc;" horiz-adv-x="2244" d="M53 1307l2 28l375 193h178v-1118h-243v862l-263 -92h-16zM528 0l709 1516h246l-707 -1516h-248zM1227 379l391 743l24 6l205 -18l19 -43l-385 -649h301l59 317h168v-317h172v-189h-172v-229h-242v229h-505z" />
<glyph unicode="&#xbd;" horiz-adv-x="2287" d="M53 1307l2 28l375 193h178v-1118h-243v862l-263 -92h-16zM528 0l709 1516h246l-707 -1516h-248zM1382 2v168q0 141 81.5 241t269.5 189q126 59 169.5 99t43.5 92q0 133 -211 133q-121 0 -297 -37l-25 200q223 46 365 46q409 0 409 -322q0 -116 -70 -200.5t-227 -159.5 q-115 -64 -159.5 -109t-44.5 -100v-39h501v-201h-805z" />
<glyph unicode="&#xbe;" horiz-adv-x="2381" d="M109 1516q133 28 290 28q216 0 326.5 -79.5t110.5 -233.5q0 -86 -40 -149t-114 -95q176 -66 176 -268q0 -157 -113.5 -241.5t-328.5 -84.5q-180 0 -305 25v209h12q105 -23 237 -23q140 0 199 35.5t59 112.5q0 75 -60 108t-204 33h-110v166h108q125 0 181.5 34t56.5 105 q0 72 -51.5 104.5t-171.5 32.5q-96 0 -244 -22h-12zM676 0l708 1516h246l-706 -1516h-248zM1370 379l391 743l25 6l205 -18l18 -43l-385 -649h301l60 317h167v-317h172v-189h-172v-229h-241v229h-506z" />
<glyph unicode="&#xbf;" horiz-adv-x="950" d="M59 -20q0 93 32 167t88.5 124t125.5 82t152 50l10 252v33h190v-33l21 -376q-76 -16 -134 -36.5t-111 -51.5t-82 -77.5t-29 -105.5q0 -209 260 -209q131 0 295 39l16 -213q-190 -47 -361 -47q-104 0 -189 23.5t-149 71.5t-99.5 126t-35.5 181zM406 979q0 67 39.5 104 t109.5 37q71 0 110.5 -37t39.5 -104q0 -69 -39.5 -106t-110.5 -37q-70 0 -109.5 37.5t-39.5 105.5z" />
<glyph unicode="&#xc0;" horiz-adv-x="1472" d="M4 0v16l516 1500h432l516 -1500v-16h-282l-137 395h-627l-135 -395h-283zM387 1985h295l141 -320l-209 -25zM492 625h487l-137 401l-94 285h-25l-92 -285z" />
<glyph unicode="&#xc1;" horiz-adv-x="1472" d="M4 0v16l516 1500h432l516 -1500v-16h-282l-137 395h-627l-135 -395h-283zM492 625h487l-137 401l-94 285h-25l-92 -285zM621 1657l141 328h295l-226 -345z" />
<glyph unicode="&#xc2;" horiz-adv-x="1472" d="M4 0v16l516 1500h432l516 -1500v-16h-282l-137 395h-627l-135 -395h-283zM358 1649v200l379 156l383 -156v-200l-381 155zM492 625h487l-137 401l-94 285h-25l-92 -285z" />
<glyph unicode="&#xc3;" horiz-adv-x="1472" d="M4 0v16l516 1500h432l516 -1500v-16h-282l-137 395h-627l-135 -395h-283zM293 1757q63 102 142.5 156.5t156.5 54.5q69 0 192 -41t189 -41q91 0 190 78l47 -61q-60 -100 -142 -155.5t-161 -55.5q-65 0 -189.5 40t-187.5 40q-97 0 -188 -74zM492 625h487l-137 401l-94 285 h-25l-92 -285z" />
<glyph unicode="&#xc4;" horiz-adv-x="1472" d="M4 0v16l516 1500h432l516 -1500v-16h-282l-137 395h-627l-135 -395h-283zM287 1819q0 83 39.5 121t124.5 38q86 0 124.5 -38.5t38.5 -120.5q0 -84 -38.5 -122t-124.5 -38q-85 0 -124.5 38t-39.5 122zM492 625h487l-137 401l-94 285h-25l-92 -285zM858 1819q0 83 38.5 121 t123.5 38q86 0 125 -38.5t39 -120.5q0 -83 -39 -121.5t-125 -38.5q-85 0 -123.5 38t-38.5 122z" />
<glyph unicode="&#xc5;" horiz-adv-x="1472" d="M4 0v16l516 1500h432l516 -1500v-16h-282l-137 395h-627l-135 -395h-283zM473 1823q0 100 75 165.5t189 65.5t188 -65.5t74 -165.5t-74 -165t-188 -65t-189 65t-75 165zM492 625h487l-137 401l-94 285h-25l-92 -285zM598 1823q0 -121 139 -121q137 0 137 121t-137 121 q-139 0 -139 -121z" />
<glyph unicode="&#xc6;" horiz-adv-x="1945" d="M-2 0v18l612 1498h1223v-230h-659l22 -407h596v-230h-582l25 -420h625v-229h-914l-16 391h-488l-159 -391h-285zM539 629h381l-27 676h-78z" />
<glyph unicode="&#xc7;" horiz-adv-x="1226" d="M90 756q0 395 178.5 588.5t538.5 193.5q151 0 348 -33v-235q-213 28 -315 28q-248 0 -350.5 -122t-102.5 -420q0 -294 101 -416.5t341 -122.5q67 0 167 10.5t159 24.5v-234q-127 -34 -301 -41q42 -61 59 -105.5t17 -92.5q0 -108 -69 -169t-189 -61q-80 0 -201 25v172 q74 -22 154 -22q60 0 86 21.5t26 66.5q0 71 -75 176q-288 38 -430 229t-142 539z" />
<glyph unicode="&#xc8;" horiz-adv-x="1316" d="M160 0v1516h1050v-230h-759v-407h696v-230h-696v-420h778v-229h-1069zM385 1985h295l141 -320l-209 -25z" />
<glyph unicode="&#xc9;" horiz-adv-x="1316" d="M160 0v1516h1050v-230h-759v-407h696v-230h-696v-420h778v-229h-1069zM565 1657l142 328h294l-225 -345z" />
<glyph unicode="&#xca;" horiz-adv-x="1316" d="M160 0v1516h1050v-230h-759v-407h696v-230h-696v-420h778v-229h-1069zM326 1649v200l379 156l382 -156v-200l-380 155z" />
<glyph unicode="&#xcb;" horiz-adv-x="1316" d="M160 0v1516h1050v-230h-759v-407h696v-230h-696v-420h778v-229h-1069zM250 1819q0 83 39.5 121t124.5 38q86 0 125 -38.5t39 -120.5q0 -83 -39 -121.5t-125 -38.5q-85 0 -124.5 38t-39.5 122zM821 1819q0 83 38.5 121t123.5 38q86 0 125 -38.5t39 -120.5 q0 -83 -39 -121.5t-125 -38.5q-85 0 -123.5 38t-38.5 122z" />
<glyph unicode="&#xcc;" horiz-adv-x="610" d="M-6 1985h295l141 -320l-209 -25zM160 0v1516h291v-1516h-291z" />
<glyph unicode="&#xcd;" horiz-adv-x="610" d="M160 0v1516h291v-1516h-291zM190 1657l142 328h295l-226 -345z" />
<glyph unicode="&#xce;" horiz-adv-x="610" d="M-72 1649v200l379 156l383 -156v-200l-381 155zM160 0v1516h291v-1516h-291z" />
<glyph unicode="&#xcf;" horiz-adv-x="610" d="M-139 1819q0 83 39.5 121t124.5 38q86 0 124.5 -38.5t38.5 -120.5q0 -84 -38.5 -122t-124.5 -38q-85 0 -124.5 38t-39.5 122zM160 0v1516h291v-1516h-291zM432 1819q0 83 38.5 121t123.5 38q86 0 125 -38.5t39 -120.5q0 -83 -39 -121.5t-125 -38.5q-85 0 -123.5 38 t-38.5 122z" />
<glyph unicode="&#xd0;" horiz-adv-x="1587" d="M8 649v223h189v639q306 23 481 23q427 0 624 -186.5t197 -591.5q0 -412 -207 -595.5t-674 -183.5q-266 0 -421 29v643h-189zM485 229q129 -18 238 -18q257 0 368 126t111 421q0 293 -112 417.5t-373 124.5q-85 0 -232 -14v-414h299v-223h-299v-420z" />
<glyph unicode="&#xd1;" horiz-adv-x="1640" d="M160 0v1516h237l690 -908l121 -176h17v1084h256v-1516h-238l-684 897l-127 184h-16v-1081h-256zM375 1757q63 102 142.5 156.5t156.5 54.5q69 0 192 -41t189 -41q91 0 190 78l47 -61q-60 -100 -142 -155.5t-161 -55.5q-65 0 -189.5 40t-187.5 40q-97 0 -188 -74z" />
<glyph unicode="&#xd2;" horiz-adv-x="1589" d="M88 756q0 383 181.5 581.5t525.5 198.5q342 0 524 -199.5t182 -580.5q0 -380 -181.5 -578t-524.5 -198q-344 0 -525.5 197.5t-181.5 578.5zM385 756q0 -289 96 -415t314 -126q217 0 313 126t96 415q0 288 -97 416t-312 128q-216 0 -313 -127.5t-97 -416.5zM449 1985h294 l142 -320l-209 -25z" />
<glyph unicode="&#xd3;" horiz-adv-x="1589" d="M88 756q0 383 181.5 581.5t525.5 198.5q342 0 524 -199.5t182 -580.5q0 -380 -181.5 -578t-524.5 -198q-344 0 -525.5 197.5t-181.5 578.5zM385 756q0 -289 96 -415t314 -126q217 0 313 126t96 415q0 288 -97 416t-312 128q-216 0 -313 -127.5t-97 -416.5zM680 1657 l141 328h295l-225 -345z" />
<glyph unicode="&#xd4;" horiz-adv-x="1589" d="M88 756q0 383 181.5 581.5t525.5 198.5q342 0 524 -199.5t182 -580.5q0 -380 -181.5 -578t-524.5 -198q-344 0 -525.5 197.5t-181.5 578.5zM385 756q0 -289 96 -415t314 -126q217 0 313 126t96 415q0 288 -97 416t-312 128q-216 0 -313 -127.5t-97 -416.5zM412 1649v200 l379 156l383 -156v-200l-381 155z" />
<glyph unicode="&#xd5;" horiz-adv-x="1589" d="M88 756q0 383 181.5 581.5t525.5 198.5q342 0 524 -199.5t182 -580.5q0 -380 -181.5 -578t-524.5 -198q-344 0 -525.5 197.5t-181.5 578.5zM350 1757q63 102 142.5 156.5t156.5 54.5q69 0 192 -41t189 -41q92 0 191 78l47 -61q-60 -100 -142 -155.5t-161 -55.5 q-65 0 -189.5 40t-187.5 40q-98 0 -189 -74zM385 756q0 -289 96 -415t314 -126q217 0 313 126t96 415q0 288 -97 416t-312 128q-216 0 -313 -127.5t-97 -416.5z" />
<glyph unicode="&#xd6;" horiz-adv-x="1589" d="M88 756q0 383 181.5 581.5t525.5 198.5q342 0 524 -199.5t182 -580.5q0 -380 -181.5 -578t-524.5 -198q-344 0 -525.5 197.5t-181.5 578.5zM336 1819q0 83 39.5 121t124.5 38q86 0 125 -38.5t39 -120.5q0 -83 -39 -121.5t-125 -38.5q-85 0 -124.5 38t-39.5 122zM385 756 q0 -289 96 -415t314 -126q217 0 313 126t96 415q0 288 -97 416t-312 128q-216 0 -313 -127.5t-97 -416.5zM907 1819q0 83 38.5 121t123.5 38q86 0 125 -38.5t39 -120.5q0 -83 -39 -121.5t-125 -38.5q-85 0 -123.5 38t-38.5 122z" />
<glyph unicode="&#xd7;" horiz-adv-x="1005" d="M96 483l275 275l-275 274l131 133l275 -274l274 274l133 -133l-274 -274l274 -275l-131 -131l-276 275l-275 -275z" />
<glyph unicode="&#xd8;" horiz-adv-x="1593" d="M51 0l185 219q-146 196 -146 537q0 383 181.5 581.5t525.5 198.5q268 0 440 -125l86 105h217l-184 -222q147 -198 147 -538q0 -380 -181 -578t-525 -198q-272 0 -443 122l-86 -102h-217zM387 756q0 -197 41 -310l643 768q-96 86 -274 86q-215 0 -312.5 -127.5 t-97.5 -416.5zM520 301q96 -86 277 -86q218 0 314.5 126t96.5 415q0 192 -43 311z" />
<glyph unicode="&#xd9;" horiz-adv-x="1605" d="M145 621v897h289v-902q0 -206 90 -302.5t279 -96.5t277.5 95.5t88.5 303.5v902h291v-897q0 -169 -35.5 -287.5t-113.5 -198.5t-203 -117.5t-305 -37.5q-355 0 -506.5 152.5t-151.5 488.5zM463 1985h295l141 -320l-209 -25z" />
<glyph unicode="&#xda;" horiz-adv-x="1605" d="M145 621v897h289v-902q0 -206 90 -302.5t279 -96.5t277.5 95.5t88.5 303.5v902h291v-897q0 -169 -35.5 -287.5t-113.5 -198.5t-203 -117.5t-305 -37.5q-355 0 -506.5 152.5t-151.5 488.5zM664 1657l141 328h295l-226 -345z" />
<glyph unicode="&#xdb;" horiz-adv-x="1605" d="M145 621v897h289v-902q0 -206 90 -302.5t279 -96.5t277.5 95.5t88.5 303.5v902h291v-897q0 -169 -35.5 -287.5t-113.5 -198.5t-203 -117.5t-305 -37.5q-355 0 -506.5 152.5t-151.5 488.5zM414 1649v200l379 156l383 -156v-200l-381 155z" />
<glyph unicode="&#xdc;" horiz-adv-x="1605" d="M145 621v897h289v-902q0 -206 90 -302.5t279 -96.5t277.5 95.5t88.5 303.5v902h291v-897q0 -169 -35.5 -287.5t-113.5 -198.5t-203 -117.5t-305 -37.5q-355 0 -506.5 152.5t-151.5 488.5zM346 1819q0 83 39.5 121t124.5 38q86 0 125 -38.5t39 -120.5q0 -83 -39 -121.5 t-125 -38.5q-85 0 -124.5 38t-39.5 122zM918 1819q0 83 38 121t123 38q86 0 125 -38.5t39 -120.5q0 -83 -39 -121.5t-125 -38.5q-85 0 -123 37.5t-38 122.5z" />
<glyph unicode="&#xdd;" horiz-adv-x="1400" d="M-6 1516h315l320 -611l61 -147h19l63 147l320 611h313l-557 -1014v-502h-291v494zM590 1657l141 328h295l-225 -345z" />
<glyph unicode="&#xde;" horiz-adv-x="1398" d="M160 0v1516h291v-240q98 4 149 4q386 0 561.5 -124.5t175.5 -399.5q0 -274 -173.5 -398.5t-557.5 -124.5q-89 0 -155 5v-238h-291zM451 485q33 -10 176 -10q166 0 254 25t125.5 84.5t37.5 171.5q0 111 -38.5 170.5t-128.5 85.5t-256 26q-118 0 -170 -10v-543z" />
<glyph unicode="&#xdf;" horiz-adv-x="1505" d="M137 0v1184q0 246 143.5 362.5t436.5 116.5q294 0 440 -117.5t146 -361.5v-260h-238q-213 0 -213 -127q0 -67 54.5 -95t183.5 -47q68 -11 120.5 -25.5t100 -40.5t78.5 -61t49 -86.5t18 -117.5q0 -166 -121.5 -256.5t-347.5 -90.5q-176 0 -418 50v198q224 -51 404 -51 q209 0 209 131q0 66 -50 98t-155 48q-147 21 -209 45q-165 64 -185 241q-3 26 -3 54q0 154 116 244.5t320 94.5v54q0 134 -72 195t-225 61q-155 0 -226 -60.5t-71 -195.5v-1184h-285z" />
<glyph unicode="&#xe0;" horiz-adv-x="1161" d="M70 297q0 163 101.5 248t317.5 102l261 19v36q0 124 -49 167.5t-199 43.5q-170 0 -344 -36l-19 202q228 41 412 41q246 0 364.5 -90.5t118.5 -279.5v-750h-233l-27 137h-16q-179 -147 -377 -147q-151 0 -231 80t-80 227zM262 1653h299l137 -379l-209 -21zM356 328 q0 -138 142 -138q117 0 252 93v227l-175 -16q-122 -11 -170.5 -47.5t-48.5 -118.5z" />
<glyph unicode="&#xe1;" horiz-adv-x="1161" d="M70 297q0 163 101.5 248t317.5 102l261 19v36q0 124 -49 167.5t-199 43.5q-170 0 -344 -36l-19 202q228 41 412 41q246 0 364.5 -90.5t118.5 -279.5v-750h-233l-27 137h-16q-179 -147 -377 -147q-151 0 -231 80t-80 227zM356 328q0 -138 142 -138q117 0 252 93v227 l-175 -16q-122 -11 -170.5 -47.5t-48.5 -118.5zM475 1264l139 383h291l-227 -400z" />
<glyph unicode="&#xe2;" horiz-adv-x="1161" d="M70 297q0 163 101.5 248t317.5 102l261 19v36q0 124 -49 167.5t-199 43.5q-170 0 -344 -36l-19 202q228 41 412 41q246 0 364.5 -90.5t118.5 -279.5v-750h-233l-27 137h-16q-179 -147 -377 -147q-151 0 -231 80t-80 227zM211 1268v198l377 156l385 -156v-198l-381 153z M356 328q0 -138 142 -138q117 0 252 93v227l-175 -16q-122 -11 -170.5 -47.5t-48.5 -118.5z" />
<glyph unicode="&#xe3;" horiz-adv-x="1161" d="M70 297q0 163 101.5 248t317.5 102l261 19v36q0 124 -49 167.5t-199 43.5q-170 0 -344 -36l-19 202q228 41 412 41q246 0 364.5 -90.5t118.5 -279.5v-750h-233l-27 137h-16q-179 -147 -377 -147q-151 0 -231 80t-80 227zM135 1372q61 100 140.5 153.5t156.5 53.5 q69 0 191.5 -44t187.5 -44q92 0 188 78l52 -66q-62 -99 -142.5 -153t-158.5 -54q-66 0 -191 43t-188 43q-95 0 -185 -75zM356 328q0 -138 142 -138q117 0 252 93v227l-175 -16q-122 -11 -170.5 -47.5t-48.5 -118.5z" />
<glyph unicode="&#xe4;" horiz-adv-x="1161" d="M70 297q0 163 101.5 248t317.5 102l261 19v36q0 124 -49 167.5t-199 43.5q-170 0 -344 -36l-19 202q228 41 412 41q246 0 364.5 -90.5t118.5 -279.5v-750h-233l-27 137h-16q-179 -147 -377 -147q-151 0 -231 80t-80 227zM178 1440q0 74 36 108.5t112 34.5t111.5 -35 t35.5 -108q0 -75 -35 -109.5t-112 -34.5q-76 0 -112 35t-36 109zM356 328q0 -138 142 -138q117 0 252 93v227l-175 -16q-122 -11 -170.5 -47.5t-48.5 -118.5zM702 1440q0 74 36 108.5t112 34.5t111.5 -35t35.5 -108q0 -75 -35 -109.5t-112 -34.5q-76 0 -112 35t-36 109z" />
<glyph unicode="&#xe5;" horiz-adv-x="1161" d="M70 297q0 163 101.5 248t317.5 102l261 19v36q0 124 -49 167.5t-199 43.5q-170 0 -344 -36l-19 202q228 41 412 41q246 0 364.5 -90.5t118.5 -279.5v-750h-233l-27 137h-16q-179 -147 -377 -147q-151 0 -231 80t-80 227zM315 1444q0 101 75.5 166t191.5 65t190 -65 t74 -166q0 -100 -74 -163.5t-190 -63.5t-191.5 64t-75.5 163zM356 328q0 -138 142 -138q117 0 252 93v227l-175 -16q-122 -11 -170.5 -47.5t-48.5 -118.5zM446 1444q0 -119 136 -119q135 0 135 119q0 121 -135 121q-136 0 -136 -121z" />
<glyph unicode="&#xe6;" horiz-adv-x="1851" d="M70 299q0 161 103 245t319 101l260 19v63q-2 107 -57 146.5t-206 39.5q-161 0 -329 -36l-21 202q218 41 420 41q273 0 359 -157h16q127 155 373 155q227 0 344.5 -124t117.5 -365q0 -94 -16 -160h-713q7 -147 76 -210.5t219 -63.5q205 0 383 51l11 -205 q-198 -66 -420 -66q-299 0 -426 189h-15q-145 -91 -262 -132.5t-227 -41.5q-149 0 -229 80.5t-80 228.5zM358 328q0 -72 35 -106t109 -34q116 0 254 97q-4 16 -4 227l-177 -16q-121 -10 -169 -48t-48 -120zM1038 621h478q-5 158 -56 226t-166 68q-124 0 -186.5 -71 t-69.5 -223z" />
<glyph unicode="&#xe7;" horiz-adv-x="1028" d="M82 553q0 571 553 571q168 0 309 -32v-228q-165 27 -282 27q-155 0 -225 -80.5t-70 -255.5q0 -181 68 -260.5t224 -79.5q152 0 285 25v-226q-106 -27 -248 -30q45 -63 62.5 -109t17.5 -96q0 -108 -69 -169t-189 -61q-80 0 -201 25v172q74 -22 154 -22q60 0 86.5 21.5 t26.5 66.5q0 69 -78 180q-424 58 -424 561z" />
<glyph unicode="&#xe8;" horiz-adv-x="1175" d="M84 543q0 284 139 432.5t406 148.5q465 0 465 -493q0 -98 -17 -162h-712q12 -150 79 -209t220 -59q203 0 378 51l11 -207q-195 -63 -418 -63q-551 0 -551 561zM268 1653h299l138 -379l-209 -21zM365 633h477q-4 155 -57 222t-167 67q-120 0 -181.5 -69.5t-71.5 -219.5z " />
<glyph unicode="&#xe9;" horiz-adv-x="1175" d="M84 543q0 284 139 432.5t406 148.5q465 0 465 -493q0 -98 -17 -162h-712q12 -150 79 -209t220 -59q203 0 378 51l11 -207q-195 -63 -418 -63q-551 0 -551 561zM365 633h477q-4 155 -57 222t-167 67q-120 0 -181.5 -69.5t-71.5 -219.5zM526 1264l140 383h290l-227 -400z " />
<glyph unicode="&#xea;" horiz-adv-x="1175" d="M84 543q0 284 139 432.5t406 148.5q465 0 465 -493q0 -98 -17 -162h-712q12 -150 79 -209t220 -59q203 0 378 51l11 -207q-195 -63 -418 -63q-551 0 -551 561zM236 1268v198l376 156l385 -156v-198l-381 153zM365 633h477q-4 155 -57 222t-167 67q-120 0 -181.5 -69.5 t-71.5 -219.5z" />
<glyph unicode="&#xeb;" horiz-adv-x="1175" d="M84 543q0 284 139 432.5t406 148.5q465 0 465 -493q0 -98 -17 -162h-712q12 -150 79 -209t220 -59q203 0 378 51l11 -207q-195 -63 -418 -63q-551 0 -551 561zM193 1440q0 74 35.5 108.5t111.5 34.5t111.5 -35t35.5 -108q0 -75 -35 -109.5t-112 -34.5q-75 0 -111 34.5 t-36 109.5zM365 633h477q-4 155 -57 222t-167 67q-120 0 -181.5 -69.5t-71.5 -219.5zM717 1440q0 74 35.5 108.5t111.5 34.5t112 -35.5t36 -107.5q0 -75 -35.5 -109.5t-112.5 -34.5q-75 0 -111 34.5t-36 109.5z" />
<glyph unicode="&#xec;" horiz-adv-x="559" d="M-61 1653h299l137 -379l-209 -21zM137 0v1106h285v-1106h-285z" />
<glyph unicode="&#xed;" horiz-adv-x="559" d="M137 0v1106h285v-1106h-285zM180 1264l139 383h291l-227 -400z" />
<glyph unicode="&#xee;" horiz-adv-x="561" d="M-76 1268v198l361 156l366 -156v-198l-364 153zM139 0v1106h285v-1106h-285z" />
<glyph unicode="&#xef;" horiz-adv-x="561" d="M-104 1440q0 75 35 109t112 34q76 0 111.5 -35t35.5 -108q0 -75 -35 -109.5t-112 -34.5t-112 34.5t-35 109.5zM139 0v1106h285v-1106h-285zM379 1440q0 75 35 109t112 34q76 0 112 -35.5t36 -107.5q0 -75 -35.5 -109.5t-112.5 -34.5t-112 34.5t-35 109.5z" />
<glyph unicode="&#xf0;" horiz-adv-x="1306" d="M80 551q0 274 142.5 424.5t398.5 150.5q188 0 286 -133q-42 156 -114 291l-369 -37v178l264 25q-75 103 -174 205h291q71 -86 133 -180l319 32v-178l-221 -22q170 -329 170 -691q0 -313 -144.5 -474.5t-420.5 -161.5q-269 0 -415 147.5t-146 423.5zM367 553 q0 -191 63.5 -272.5t212.5 -81.5q148 0 212.5 86t64.5 282q0 162 -68.5 250t-212.5 88q-146 0 -209 -81.5t-63 -270.5z" />
<glyph unicode="&#xf1;" d="M137 0v1106h238l16 -127h12q158 78 269 112.5t205 34.5q144 0 223.5 -78.5t79.5 -226.5v-821h-285v725q0 93 -34.5 133.5t-110.5 40.5q-126 0 -328 -92v-807h-285zM215 1372q61 100 140.5 153.5t156.5 53.5q69 0 191.5 -44t187.5 -44q92 0 188 78l51 -66 q-62 -99 -142.5 -153t-158.5 -54q-66 0 -190.5 43t-187.5 43q-95 0 -185 -75z" />
<glyph unicode="&#xf2;" horiz-adv-x="1286" d="M80 553q0 278 144.5 425.5t418.5 147.5t418.5 -147.5t144.5 -425.5t-144.5 -425.5t-418.5 -147.5t-418.5 147.5t-144.5 425.5zM291 1653h299l137 -379l-209 -21zM367 553q0 -191 64 -272.5t212 -81.5t212.5 81.5t64.5 272.5t-64 271.5t-213 80.5q-148 0 -212 -80.5 t-64 -271.5z" />
<glyph unicode="&#xf3;" horiz-adv-x="1286" d="M80 553q0 278 144.5 425.5t418.5 147.5t418.5 -147.5t144.5 -425.5t-144.5 -425.5t-418.5 -147.5t-418.5 147.5t-144.5 425.5zM367 553q0 -191 64 -272.5t212 -81.5t212.5 81.5t64.5 272.5t-64 271.5t-213 80.5q-148 0 -212 -80.5t-64 -271.5zM526 1264l140 383h290 l-227 -400z" />
<glyph unicode="&#xf4;" horiz-adv-x="1286" d="M80 553q0 278 144.5 425.5t418.5 147.5t418.5 -147.5t144.5 -425.5t-144.5 -425.5t-418.5 -147.5t-418.5 147.5t-144.5 425.5zM260 1268v198l377 156l385 -156v-198l-381 153zM367 553q0 -191 64 -272.5t212 -81.5t212.5 81.5t64.5 272.5t-64 271.5t-213 80.5 q-148 0 -212 -80.5t-64 -271.5z" />
<glyph unicode="&#xf5;" horiz-adv-x="1286" d="M80 553q0 278 144.5 425.5t418.5 147.5t418.5 -147.5t144.5 -425.5t-144.5 -425.5t-418.5 -147.5t-418.5 147.5t-144.5 425.5zM190 1372q61 100 140.5 153.5t156.5 53.5q69 0 191.5 -44t187.5 -44q93 0 189 78l51 -66q-62 -99 -142.5 -153t-158.5 -54q-66 0 -191 43 t-188 43q-94 0 -184 -75zM367 553q0 -191 64 -272.5t212 -81.5t212.5 81.5t64.5 272.5t-64 271.5t-213 80.5q-148 0 -212 -80.5t-64 -271.5z" />
<glyph unicode="&#xf6;" horiz-adv-x="1286" d="M80 553q0 278 144.5 425.5t418.5 147.5t418.5 -147.5t144.5 -425.5t-144.5 -425.5t-418.5 -147.5t-418.5 147.5t-144.5 425.5zM229 1440q0 74 36 108.5t112 34.5t111.5 -35t35.5 -108q0 -75 -35 -109.5t-112 -34.5q-76 0 -112 35t-36 109zM367 553q0 -191 64 -272.5 t212 -81.5t212.5 81.5t64.5 272.5t-64 271.5t-213 80.5q-148 0 -212 -80.5t-64 -271.5zM754 1440q0 74 35.5 108.5t111.5 34.5t112 -35.5t36 -107.5q0 -75 -35.5 -109.5t-112.5 -34.5q-75 0 -111 34.5t-36 109.5z" />
<glyph unicode="&#xf7;" horiz-adv-x="1077" d="M102 666v184h873v-184h-873zM420 401q0 60 34 91.5t91 31.5q55 0 89 -32t34 -91q0 -61 -33.5 -94t-89.5 -33q-57 0 -91 33t-34 94zM420 1108q0 61 34 94t91 33q55 0 89 -33.5t34 -93.5t-33.5 -92.5t-89.5 -32.5q-57 0 -91 32.5t-34 92.5z" />
<glyph unicode="&#xf8;" horiz-adv-x="1298" d="M27 0l163 174q-102 140 -102 379q0 275 141.5 424t419.5 149q208 0 350 -90l66 70h209l-166 -176q104 -140 104 -377q0 -276 -142 -424.5t-421 -148.5q-214 0 -348 90l-65 -70h-209zM375 553q0 -112 12 -168l444 473q-62 47 -182 47q-159 0 -216.5 -80t-57.5 -272z M465 246q61 -47 184 -47q159 0 219 81.5t60 272.5q0 97 -15 168z" />
<glyph unicode="&#xf9;" d="M129 285v821h285v-733q0 -91 32.5 -130.5t108.5 -39.5q112 0 334 98v805h285v-1106h-240l-16 131h-9q-180 -91 -267 -121t-210 -30q-148 0 -225.5 79t-77.5 226zM303 1653h299l137 -379l-209 -21z" />
<glyph unicode="&#xfa;" d="M129 285v821h285v-733q0 -91 32.5 -130.5t108.5 -39.5q112 0 334 98v805h285v-1106h-240l-16 131h-9q-180 -91 -267 -121t-210 -30q-148 0 -225.5 79t-77.5 226zM535 1264l139 383h291l-228 -400z" />
<glyph unicode="&#xfb;" d="M129 285v821h285v-733q0 -91 32.5 -130.5t108.5 -39.5q112 0 334 98v805h285v-1106h-240l-16 131h-9q-180 -91 -267 -121t-210 -30q-148 0 -225.5 79t-77.5 226zM274 1268v198l377 156l385 -156v-198l-381 153z" />
<glyph unicode="&#xfc;" d="M129 285v821h285v-733q0 -91 32.5 -130.5t108.5 -39.5q112 0 334 98v805h285v-1106h-240l-16 131h-9q-180 -91 -267 -121t-210 -30q-148 0 -225.5 79t-77.5 226zM240 1440q0 74 35.5 108.5t111.5 34.5t112 -35.5t36 -107.5q0 -75 -35.5 -109.5t-112.5 -34.5 q-75 0 -111 34.5t-36 109.5zM764 1440q0 74 35.5 108.5t111.5 34.5t112 -35.5t36 -107.5q0 -75 -35.5 -109.5t-112.5 -34.5q-75 0 -111 34.5t-36 109.5z" />
<glyph unicode="&#xfd;" horiz-adv-x="1236" d="M18 1075v31h306l229 -619l57 -188h17l57 188l238 619h297v-31l-637 -1526l-267 41l-2 25l162 399zM520 1264l139 383h291l-227 -400z" />
<glyph unicode="&#xfe;" horiz-adv-x="1304" d="M135 -451v2106h285v-660q129 129 358 129q226 0 334.5 -135.5t108.5 -419.5q0 -589 -609 -589q-24 0 -192 16v-447h-285zM420 203q112 -31 192 -31q75 0 124.5 8.5t90 31.5t62.5 65.5t33.5 106.5t11.5 159q0 154 -26.5 236.5t-78.5 112.5t-147 30q-142 0 -202 -88 t-60 -281v-350z" />
<glyph unicode="&#xff;" horiz-adv-x="1236" d="M18 1075v31h306l229 -619l57 -188h17l57 188l238 619h297v-31l-637 -1526l-267 41l-2 25l162 399zM209 1440q0 74 35.5 108.5t111.5 34.5t112 -35.5t36 -107.5q0 -75 -35.5 -109.5t-112.5 -34.5q-75 0 -111 34.5t-36 109.5zM733 1440q0 74 36 108.5t112 34.5t111.5 -35 t35.5 -108q0 -75 -35 -109.5t-112 -34.5q-76 0 -112 35t-36 109z" />
<glyph unicode="&#x152;" horiz-adv-x="2162" d="M88 756q0 379 184.5 578.5t530.5 199.5q130 0 235 -18h1014v-230h-723v-405h666v-228h-666v-424h742v-229h-1033q-108 -18 -235 -18q-346 0 -530.5 198t-184.5 576zM383 756q0 -288 100 -413.5t326 -125.5q143 0 229 19v1044q-99 18 -229 18q-225 0 -325.5 -127 t-100.5 -415z" />
<glyph unicode="&#x153;" horiz-adv-x="2015" d="M80 553q0 278 144.5 425.5t418.5 147.5q143 0 247.5 -50.5t162.5 -145.5h16q115 194 401 194q228 0 345.5 -124t117.5 -365q0 -100 -16 -160h-713q7 -148 76.5 -211t218.5 -63q205 0 383 51l10 -207q-199 -63 -417 -63q-295 0 -410 188h-14q-120 -190 -408 -190 q-274 0 -418.5 147.5t-144.5 425.5zM367 553q0 -191 64 -272.5t212 -81.5t212.5 81.5t64.5 272.5t-64 271.5t-213 80.5q-148 0 -212 -80.5t-64 -271.5zM1202 627h477q-5 159 -55.5 227t-165.5 68q-122 0 -184.5 -71.5t-71.5 -223.5z" />
<glyph unicode="&#x178;" horiz-adv-x="1400" d="M-6 1516h315l320 -611l61 -147h19l63 147l320 611h313l-557 -1014v-502h-291v494zM250 1819q0 83 39.5 121t124.5 38q86 0 125 -38.5t39 -120.5q0 -83 -39 -121.5t-125 -38.5q-85 0 -124.5 38t-39.5 122zM821 1819q0 83 38.5 121t123.5 38q86 0 125 -38.5t39 -120.5 q0 -83 -39 -121.5t-125 -38.5q-85 0 -123.5 38t-38.5 122z" />
<glyph unicode="&#x2c6;" horiz-adv-x="974" d="M100 1268v198l377 156l385 -156v-198l-381 153z" />
<glyph unicode="&#x2dc;" horiz-adv-x="1056" d="M61 1372q61 100 140.5 153.5t156.5 53.5q69 0 191.5 -44t187.5 -44q93 0 189 78l51 -66q-62 -99 -142.5 -153t-158.5 -54q-66 0 -191 43t-188 43q-94 0 -184 -75z" />
<glyph unicode="&#x2000;" horiz-adv-x="1027" />
<glyph unicode="&#x2001;" horiz-adv-x="2054" />
<glyph unicode="&#x2002;" horiz-adv-x="1027" />
<glyph unicode="&#x2003;" horiz-adv-x="2054" />
<glyph unicode="&#x2004;" horiz-adv-x="684" />
<glyph unicode="&#x2005;" horiz-adv-x="513" />
<glyph unicode="&#x2006;" horiz-adv-x="342" />
<glyph unicode="&#x2007;" horiz-adv-x="342" />
<glyph unicode="&#x2008;" horiz-adv-x="256" />
<glyph unicode="&#x2009;" horiz-adv-x="410" />
<glyph unicode="&#x200a;" horiz-adv-x="114" />
<glyph unicode="&#x2010;" horiz-adv-x="1013" d="M123 465v217h768v-217h-768z" />
<glyph unicode="&#x2011;" horiz-adv-x="1013" d="M123 465v217h768v-217h-768z" />
<glyph unicode="&#x2012;" horiz-adv-x="1013" d="M123 465v217h768v-217h-768z" />
<glyph unicode="&#x2013;" horiz-adv-x="1325" d="M125 465v217h1075v-217h-1075z" />
<glyph unicode="&#x2014;" horiz-adv-x="1675" d="M125 465v217h1425v-217h-1425z" />
<glyph unicode="&#x2018;" horiz-adv-x="479" d="M94 1200q0 111 39.5 236t108.5 223l155 -10q-35 -73 -55 -173t-20 -198q0 -120 43 -234l-246 -10q-25 80 -25 166z" />
<glyph unicode="&#x2019;" horiz-adv-x="473" d="M86 1042q36 72 56 172.5t20 198.5q0 122 -45 234l248 12q24 -71 24 -166q0 -113 -39 -237t-108 -222z" />
<glyph unicode="&#x201a;" horiz-adv-x="489" d="M68 -305q36 71 55.5 172t19.5 199q0 121 -45 233l248 12q25 -73 25 -166q0 -112 -39.5 -236t-108.5 -222z" />
<glyph unicode="&#x201c;" horiz-adv-x="946" d="M94 1200q0 111 39.5 236t108.5 223l155 -10q-35 -73 -55 -173t-20 -198q0 -120 43 -234l-246 -10q-25 80 -25 166zM563 1200q0 111 39.5 236t108.5 223l155 -10q-35 -73 -55 -173t-20 -198q0 -120 43 -234l-246 -10q-25 80 -25 166z" />
<glyph unicode="&#x201d;" horiz-adv-x="942" d="M86 1042q36 72 56 172.5t20 198.5q0 122 -45 234l248 12q24 -71 24 -166q0 -113 -39 -237t-108 -222zM555 1042q36 72 56 172.5t20 198.5q0 122 -45 234l248 12q24 -71 24 -166q0 -113 -39 -237t-108 -222z" />
<glyph unicode="&#x201e;" horiz-adv-x="958" d="M68 -305q36 71 55.5 172t19.5 199q0 121 -45 233l248 12q25 -73 25 -166q0 -112 -39.5 -236t-108.5 -222zM537 -305q36 71 55.5 172t19.5 199q0 121 -45 233l248 12q25 -73 25 -166q0 -112 -39.5 -236t-108.5 -222z" />
<glyph unicode="&#x2022;" horiz-adv-x="731" d="M147 758q0 105 59.5 159t160.5 54q99 0 158 -54t59 -159t-59 -159t-158 -54q-101 0 -160.5 54t-59.5 159z" />
<glyph unicode="&#x2026;" horiz-adv-x="1607" d="M102 145q0 78 43 117t121 39q80 0 124 -39.5t44 -116.5q0 -78 -44 -117.5t-124 -39.5q-77 0 -120.5 39.5t-43.5 117.5zM645 145q0 78 43 117t121 39q79 0 123.5 -39.5t44.5 -116.5q0 -78 -44 -117.5t-124 -39.5q-77 0 -120.5 39.5t-43.5 117.5zM1174 145q0 78 42.5 117 t120.5 39q79 0 123.5 -39.5t44.5 -116.5q0 -78 -44 -117.5t-124 -39.5q-77 0 -120 39.5t-43 117.5z" />
<glyph unicode="&#x202f;" horiz-adv-x="410" />
<glyph unicode="&#x2039;" horiz-adv-x="796" d="M61 549v8l369 487h291l-369 -487v-8l369 -488h-291z" />
<glyph unicode="&#x203a;" horiz-adv-x="796" d="M78 61l368 488v8l-368 487h291l366 -487v-8l-366 -488h-291z" />
<glyph unicode="&#x205f;" horiz-adv-x="513" />
<glyph unicode="&#x20ac;" horiz-adv-x="1376" d="M78 502v166h162q-2 29 -2 88q0 61 2 90h-162v168h182q53 266 235.5 393t514.5 127q108 0 286 -27l-73 -233q-82 14 -158 14q-244 0 -359 -60t-153 -214h584l-37 -168h-568q-2 -29 -2 -90t2 -88h533l-39 -166h-471q38 -153 154 -215t356 -62q115 0 215 21v-242 q-86 -24 -254 -24q-341 1 -527 129.5t-239 392.5h-182z" />
<glyph unicode="&#x2122;" horiz-adv-x="1990" d="M63 1362v154h738v-154h-277v-707h-186v707h-275zM901 655v861h240l233 -592l234 592h239v-861h-172v609l-225 -574h-150l-227 572v-607h-172z" />
<glyph unicode="&#x25fc;" horiz-adv-x="1105" d="M0 0v1106h1106v-1106h-1106z" />
</font>
</defs>
</svg>
