<?xml version="1.0" standalone="no"?>
<!DOCTYPE svg PUBLIC "-//W3C//DTD SVG 1.1//EN" "http://www.w3.org/Graphics/SVG/1.1/DTD/svg11.dtd" >
<svg xmlns="http://www.w3.org/2000/svg">
<metadata></metadata>
<defs>
<font id="encode_sans_compressedlight" horiz-adv-x="1099" >
<font-face units-per-em="2048" ascent="1638" descent="-410" />
<missing-glyph horiz-adv-x="405" />
<glyph unicode="&#xfb01;" horiz-adv-x="937" d="M33 1006v100h153v86q0 250 75.5 347.5t285.5 117.5l2 -96q-150 -17 -199 -89t-49 -276v-90h201v-100h-201v-1006h-115v1006h-153zM666 1456q0 80 79 80q40 0 61 -21t21 -59t-21 -59t-61 -21q-38 0 -58.5 21t-20.5 59zM688 0v1106h115v-1106h-115z" />
<glyph unicode="&#xfb02;" horiz-adv-x="942" d="M33 1006v100h153v86q0 250 75.5 347.5t285.5 117.5l2 -96q-150 -17 -199 -89t-49 -276v-90h201v-100h-201v-1006h-115v1006h-153zM688 0v1655h115v-1655h-115z" />
<glyph unicode="&#xfb03;" horiz-adv-x="1458" d="M33 1006v100h153v86q0 250 75.5 347.5t285.5 117.5l2 -96q-150 -17 -199 -89t-49 -276v-90h201v-100h-201v-1006h-115v1006h-153zM553 1006v100h154v86q0 171 32.5 265t108.5 140t219 60l2 -96q-150 -17 -199 -89t-49 -276v-90h201v-100h-201v-1006h-114v1006h-154z M1186 1456q0 80 80 80q40 0 61 -21t21 -59t-21 -59t-61 -21q-38 0 -59 21t-21 59zM1208 0v1106h115v-1106h-115z" />
<glyph unicode="&#xfb04;" horiz-adv-x="1462" d="M33 1006v100h153v86q0 250 75.5 347.5t285.5 117.5l2 -96q-150 -17 -199 -89t-49 -276v-90h201v-100h-201v-1006h-115v1006h-153zM553 1006v100h154v86q0 171 32.5 265t108.5 140t219 60l2 -96q-150 -17 -199 -89t-49 -276v-90h201v-100h-201v-1006h-114v1006h-154z M1208 0v1655h115v-1655h-115z" />
<glyph horiz-adv-x="0" />
<glyph horiz-adv-x="682" />
<glyph horiz-adv-x="0" />
<glyph horiz-adv-x="0" />
<glyph unicode="&#xd;" horiz-adv-x="573" />
<glyph unicode=" "  horiz-adv-x="405" />
<glyph unicode="&#x09;" horiz-adv-x="405" />
<glyph unicode="&#xa0;" horiz-adv-x="405" />
<glyph unicode="!" horiz-adv-x="419" d="M133 88q0 38 22.5 60t59.5 22q38 0 61 -22.5t23 -59.5q0 -38 -22.5 -59t-61.5 -21q-37 0 -59.5 21t-22.5 59zM150 1495v21h118v-21l-20 -1128v-29h-78v29z" />
<glyph unicode="&#x22;" horiz-adv-x="604" d="M123 983v672h102v-8l-45 -664h-57zM401 983v672h103v-8l-45 -664h-58z" />
<glyph unicode="#" horiz-adv-x="964" d="M88 489v93h162l29 352h-191v92h197l41 490h96l-41 -490h221l41 490h96l-41 -490h179v-92h-185l-28 -352h210v-93h-219l-39 -489h-98l39 489h-219l-39 -489h-96l39 489h-154zM346 582h219l29 352h-219z" />
<glyph unicode="$" horiz-adv-x="950" d="M72 41l14 104q59 -26 169 -46.5t196 -20.5q150 0 232.5 78t82.5 219q0 116 -75 194t-247 150q-189 77 -268.5 167t-79.5 242q0 170 97.5 280t263.5 130v279h100v-275q117 -6 277 -41l-15 -104q-175 39 -291 39q-143 0 -229 -84.5t-86 -223.5q0 -108 67.5 -176t235.5 -135 q201 -83 284 -180t83 -260q0 -162 -83.5 -265.5t-232.5 -129.5v-283h-100v272h-6q-89 0 -202 20.5t-187 49.5z" />
<glyph unicode="%" horiz-adv-x="1593" d="M72 1061q0 233 76.5 354t224.5 121q149 0 225 -120.5t76 -354.5q0 -235 -76 -355t-225 -120t-225 120t-76 355zM170 1061q0 -381 203 -381q200 0 200 381q0 187 -51 284t-149 97q-100 0 -151.5 -97t-51.5 -284zM469 0l532 1516h107l-533 -1516h-106zM922 446 q0 234 77 356t226 122q147 0 223 -122t76 -356t-75.5 -354.5t-223.5 -120.5q-149 0 -226 120t-77 355zM1020 446q0 -378 205 -378q198 0 198 378q0 189 -50.5 286t-147.5 97q-100 0 -152.5 -97.5t-52.5 -285.5z" />
<glyph unicode="&#x26;" horiz-adv-x="1198" d="M90 422q0 282 223 397q-86 128 -86 324t95.5 297.5t277.5 101.5q127 0 299 -78v-12l-25 -84h-10q-146 70 -260 70q-130 0 -197 -76.5t-67 -226.5q0 -160 84 -280.5t287 -258.5l213 -145q20 103 20 249v136l107 4v-140q0 -176 -31 -315l143 -96v-10l-47 -84h-12l-119 79 q-116 -299 -450 -299q-207 0 -326 119t-119 328zM203 426q0 -161 90 -254.5t244 -93.5q267 0 358 260l-238 166q-190 129 -284 237q-170 -98 -170 -315z" />
<glyph unicode="'" horiz-adv-x="325" d="M123 983v672h102v-8l-45 -664h-57z" />
<glyph unicode="(" horiz-adv-x="532" d="M80 725q0 287 80.5 558t232.5 495h105v-9q-151 -222 -231.5 -489.5t-80.5 -554.5q0 -289 80 -555t232 -489v-9h-105q-152 224 -232.5 495.5t-80.5 557.5z" />
<glyph unicode=")" horiz-adv-x="532" d="M37 -319q150 223 229.5 489.5t79.5 554.5q0 287 -79.5 554.5t-229.5 489.5v9h102q152 -224 233 -495t81 -558q0 -286 -81 -557.5t-233 -495.5h-102v9z" />
<glyph unicode="*" horiz-adv-x="966" d="M80 1389l29 88l161 -52l191 -90l-25 213v168h94v-168l-28 -213l194 90l162 52l29 -88l-162 -52l-207 -41l144 -155l98 -140l-74 -53l-98 137l-107 189l-102 -189l-98 -137l-76 53l98 140l143 155l-206 41z" />
<glyph unicode="+" horiz-adv-x="958" d="M92 709v98h338v352h98v-352h340v-98h-340v-353h-98v353h-338z" />
<glyph unicode="," horiz-adv-x="378" d="M43 -297l94 457h123l-125 -477z" />
<glyph unicode="-" horiz-adv-x="651" d="M117 524v99h418v-99h-418z" />
<glyph unicode="." horiz-adv-x="391" d="M111 78q0 41 22 63.5t62 22.5q41 0 63.5 -22.5t22.5 -63.5q0 -40 -22.5 -61t-63.5 -21q-40 0 -62 21t-22 61z" />
<glyph unicode="/" horiz-adv-x="563" d="M63 -248l328 1764h109l-328 -1764h-109z" />
<glyph unicode="0" horiz-adv-x="1081" d="M98 756q0 384 112.5 582t330.5 198t330 -198t112 -582q0 -383 -112 -579.5t-330 -196.5t-330.5 196t-112.5 580zM215 756q0 -338 81 -504t245 -166q325 0 325 670q0 335 -82 505.5t-243 170.5t-243.5 -171.5t-82.5 -504.5z" />
<glyph unicode="1" horiz-adv-x="643" d="M39 1233l2 14l358 269h78v-1516h-117v1360h-6l-260 -191h-16z" />
<glyph unicode="2" horiz-adv-x="864" d="M82 0v188q0 184 73.5 320t247.5 270q138 107 194 195.5t56 197.5q0 125 -66.5 192t-193.5 67q-100 0 -256 -52l-20 103q162 53 295 53q176 0 267 -90t91 -266q0 -135 -64.5 -241t-224.5 -232q-160 -133 -221 -242.5t-61 -259.5v-97h571v-106h-688z" />
<glyph unicode="3" horiz-adv-x="825" d="M88 1503q121 33 227 33q180 0 278.5 -99.5t98.5 -281.5q0 -141 -63 -235.5t-180 -126.5v-7q284 -68 284 -403q0 -186 -112.5 -291.5t-311.5 -105.5q-110 0 -211 26v94h17q79 -24 186 -24q149 0 232 80t83 225q0 172 -94.5 261t-281.5 89h-33v99h33q159 0 247 81t88 226 q0 143 -68.5 218t-201.5 75q-74 0 -182 -27h-19z" />
<glyph unicode="4" horiz-adv-x="976" d="M41 438v8l504 1090h14l92 -20l4 -11l-483 -1018v-12h483v29l33 559h84v-588h154v-96h-154v-379h-117v379h-577z" />
<glyph unicode="5" horiz-adv-x="811" d="M94 4v100h29q108 -24 180 -24q149 0 228 91.5t79 262.5q0 183 -89 262.5t-294 79.5h-106l-8 8l53 732h512v-107h-414l-41 -535q278 -4 393 -104t115 -336q0 -220 -110.5 -340.5t-311.5 -120.5q-94 0 -215 31z" />
<glyph unicode="6" horiz-adv-x="999" d="M96 668q0 414 141.5 643t399.5 229q103 0 209 -35l-6 -106q-104 37 -201 37q-190 0 -300.5 -173t-127.5 -491q73 70 159.5 110t168.5 40q179 0 283 -118.5t104 -322.5q0 -229 -110 -367.5t-292 -138.5q-212 0 -320 175t-108 518zM209 664q0 -295 78 -438.5t237 -143.5 q131 0 210 108t79 289q0 162 -77 252t-214 90q-77 0 -162 -42.5t-151 -114.5z" />
<glyph unicode="7" horiz-adv-x="724" d="M49 1501l8 15h607l22 -64v-59l-440 -1397l-23 -19l-90 23v25l447 1384h-523z" />
<glyph unicode="8" horiz-adv-x="991" d="M94 373q0 151 58 250t184 159q-103 58 -154 147.5t-51 223.5q0 178 97.5 279.5t267.5 101.5q172 0 267 -100.5t95 -280.5q0 -147 -48.5 -237.5t-158.5 -145.5q127 -59 185.5 -150t58.5 -237q0 -180 -108 -284.5t-291 -104.5t-292.5 103.5t-109.5 275.5zM205 381 q0 -132 80 -212.5t211 -80.5t209.5 78.5t78.5 210.5q0 146 -66.5 222t-230.5 124q-20 5 -51 16q-126 -60 -178.5 -141t-52.5 -217zM240 1149q0 -134 69.5 -210t227.5 -124q114 50 163.5 127.5t49.5 210.5q0 135 -66.5 210t-187.5 75q-120 0 -188 -76.5t-68 -212.5z" />
<glyph unicode="9" horiz-adv-x="999" d="M74 1034q0 229 110 367.5t291 138.5q212 0 320 -174.5t108 -517.5q0 -414 -141.5 -643.5t-399.5 -229.5q-102 0 -208 35l6 107q104 -37 200 -37q190 0 300.5 172.5t127.5 490.5q-73 -70 -159 -109.5t-168 -39.5q-179 0 -283 118t-104 322zM186 1036q0 -162 77 -252 t214 -90q77 0 162.5 43t151.5 115q0 295 -78.5 438.5t-237.5 143.5q-131 0 -210 -108.5t-79 -289.5z" />
<glyph unicode=":" horiz-adv-x="401" d="M115 78q0 41 22 63.5t62 22.5q41 0 63.5 -22.5t22.5 -63.5q0 -40 -22.5 -61t-63.5 -21q-40 0 -62 21t-22 61zM115 1026q0 41 22 63.5t62 22.5q41 0 63.5 -22.5t22.5 -63.5q0 -40 -22.5 -61t-63.5 -21q-40 0 -62 21t-22 61z" />
<glyph unicode=";" horiz-adv-x="452" d="M86 -297l94 457h123l-125 -477zM154 1026q0 41 22 63.5t62 22.5q41 0 63.5 -22.5t22.5 -63.5q0 -40 -22.5 -61t-63.5 -21q-40 0 -62 21t-22 61z" />
<glyph unicode="&#x3c;" horiz-adv-x="989" d="M84 707v90l784 348v-111l-647 -284l641 -285v-109z" />
<glyph unicode="=" horiz-adv-x="1013" d="M123 463v100h768v-100h-768zM123 899v100h768v-100h-768z" />
<glyph unicode="&#x3e;" horiz-adv-x="989" d="M121 1034v111l784 -348v-90l-778 -351v109l641 285z" />
<glyph unicode="?" horiz-adv-x="802" d="M55 1481q145 57 285 57q79 0 147 -21t126.5 -65.5t92 -125t33.5 -189.5q0 -84 -25.5 -152.5t-63 -113t-93.5 -80t-105 -55t-110 -36.5l-2 -321v-39h-92v39l-8 393q62 16 104.5 30t100.5 44t93.5 65.5t61 93t25.5 128.5q0 82 -25.5 143t-69.5 94.5t-94.5 49.5t-107.5 16 q-114 0 -248 -50zM215 80q0 39 21.5 60.5t60.5 21.5q38 0 60 -22t22 -60q0 -37 -22 -58.5t-60 -21.5t-60 21.5t-22 58.5z" />
<glyph unicode="@" horiz-adv-x="1583" d="M88 537q0 204 53.5 366t150.5 267t230.5 160.5t294.5 55.5q664 0 664 -757q0 -242 -80 -382.5t-234 -140.5q-39 0 -70 8t-59.5 27.5t-46.5 58.5t-24 95h-11q-55 -88 -138 -132t-154 -44q-69 0 -120.5 30t-79.5 82.5t-41 112.5t-13 129q0 235 123.5 388t328.5 153 q111 0 271 -66l-70 -434q-21 -115 -21 -170q0 -151 127 -151q106 0 161.5 116.5t55.5 319.5q0 667 -569 667q-141 0 -257 -49t-200.5 -143t-131 -239t-46.5 -328q0 -160 33.5 -286.5t89 -208t132.5 -135t158.5 -75.5t172.5 -22q164 0 358 67l33 -82q-212 -74 -391 -74 q-106 0 -201 25t-184 85t-153.5 151t-103 233.5t-38.5 321.5zM502 473q0 -71 14 -127.5t53.5 -97.5t100.5 -41q30 0 62.5 8.5t71 31.5t71 57.5t59.5 93t39 132.5l59 363q-97 33 -170 33q-164 0 -262 -128.5t-98 -324.5z" />
<glyph unicode="A" d="M16 0v12l455 1504h158l454 -1504v-12h-110l-150 485h-547l-149 -485h-111zM303 588h492l-179 583l-63 228h-10l-62 -228z" />
<glyph unicode="B" horiz-adv-x="1120" d="M158 10v1499q240 27 358 27q242 0 358.5 -99.5t116.5 -306.5q0 -146 -62.5 -237.5t-178.5 -114.5v-8q134 -19 211 -119t77 -256q0 -207 -124 -311t-367 -104q-91 0 -208 9t-181 21zM268 94q33 -6 126.5 -13t160.5 -7q363 3 363 325q0 169 -95 243.5t-311 74.5h-244v-623z M268 817h242q198 0 278 69.5t80 239.5q0 158 -84.5 235t-259.5 77q-114 0 -256 -19v-602z" />
<glyph unicode="C" horiz-adv-x="995" d="M94 756q0 417 144.5 596.5t476.5 179.5q106 0 213 -16v-105q-75 16 -199 16q-189 0 -300 -65t-162.5 -210.5t-51.5 -395.5q0 -355 120 -512.5t386 -157.5q95 0 207 16v-102q-87 -20 -209 -20q-329 5 -477 188t-148 588z" />
<glyph unicode="D" horiz-adv-x="1175" d="M158 -20v1521q193 35 309 35q318 0 467 -189t149 -591q0 -412 -165.5 -601.5t-526.5 -189.5q-107 0 -233 15zM272 82q95 -10 144 -10q277 0 412 168t135 516q0 354 -118 515t-376 161q-93 0 -197 -19v-1331z" />
<glyph unicode="E" horiz-adv-x="1017" d="M158 0v1516h766v-107h-652v-588h584v-106h-584v-609h670v-106h-784z" />
<glyph unicode="F" horiz-adv-x="950" d="M158 0v1516h727v-107h-613v-594h576v-106h-576v-709h-114z" />
<glyph unicode="G" horiz-adv-x="1124" d="M94 756q0 416 147.5 596t487.5 180q119 0 281 -31v-104q-144 30 -269 30q-195 0 -308.5 -66.5t-165.5 -211.5t-52 -393q0 -354 119.5 -512t386.5 -158q73 0 178 12v672h109v-764q-157 -26 -289 -26q-330 4 -477.5 187.5t-147.5 588.5z" />
<glyph unicode="H" horiz-adv-x="1257" d="M158 0v1516h114v-691h711v691h117v-1516h-117v719h-711v-719h-114z" />
<glyph unicode="I" horiz-adv-x="430" d="M158 0v1516h114v-1516h-114z" />
<glyph unicode="J" horiz-adv-x="430" d="M-10 -326q104 225 138 362.5t34 336.5v1143h114v-1147q0 -192 -49.5 -369.5t-158.5 -370.5z" />
<glyph unicode="K" horiz-adv-x="1126" d="M158 0v1516h114v-693h177l491 693h137l-485 -687l-57 -51v-8l61 -49l522 -721h-133l-524 717h-189v-717h-114z" />
<glyph unicode="L" horiz-adv-x="817" d="M158 0v1516h114v-1410h521v-106h-635z" />
<glyph unicode="M" horiz-adv-x="1593" d="M158 0v1516h151l420 -1117l62 -196h10l63 196l420 1117h152v-1516h-113v1298l-8 2l-72 -206l-385 -1028h-125l-385 1028l-72 206l-8 -2v-1298h-110z" />
<glyph unicode="N" horiz-adv-x="1325" d="M158 0v1516h116l682 -1141l93 -172l10 2v1311h108v-1516h-118l-674 1130l-99 183l-10 -2v-1311h-108z" />
<glyph unicode="O" horiz-adv-x="1230" d="M94 756q0 393 129 586.5t391 193.5q523 0 523 -780q0 -776 -523 -776q-262 0 -391 193t-129 583zM211 756q0 -352 95.5 -511t307.5 -159t308 159.5t96 510.5q0 347 -98.5 511.5t-305.5 164.5q-211 0 -307 -161.5t-96 -514.5z" />
<glyph unicode="P" horiz-adv-x="1052" d="M158 0v1505q169 35 303 35q272 0 400 -124.5t128 -391.5q0 -269 -133 -393.5t-420 -124.5q-88 0 -164 8v-514h-114zM272 625q124 -15 191 -15q211 0 309 99.5t98 314.5q0 212 -94.5 311t-296.5 99q-87 0 -207 -19v-790z" />
<glyph unicode="Q" horiz-adv-x="1224" d="M90 756q0 393 129 586.5t391 193.5q523 0 523 -780q0 -737 -496 -758v-12q131 -49 502 -88l-33 -105q-145 24 -255 48.5t-213 57.5t-177 72.5t-138.5 93.5t-105.5 119.5t-71 151t-43 189t-13 231.5zM207 756q0 -355 95.5 -513.5t307.5 -158.5q211 0 308.5 161t97.5 511 q0 349 -98.5 512.5t-307.5 163.5q-212 0 -307.5 -160.5t-95.5 -515.5z" />
<glyph unicode="R" horiz-adv-x="1079" d="M158 0v1505q161 35 303 35q274 0 401 -117t127 -370q0 -182 -67.5 -293t-208.5 -158l293 -602h-125l-275 578q-90 -11 -162 -11q-99 0 -172 8v-575h-114zM272 682q108 -12 191 -12q212 0 309.5 91.5t97.5 291.5q0 198 -93.5 289.5t-297.5 91.5q-71 0 -207 -19v-733z" />
<glyph unicode="S" horiz-adv-x="948" d="M70 41l14 104q59 -26 169 -46.5t196 -20.5q150 0 232.5 78t82.5 219q0 116 -75 194t-247 150q-189 77 -268.5 167t-79.5 242q0 187 117 300.5t311 113.5q131 0 309 -41l-14 -104q-175 39 -291 39q-143 0 -229 -84.5t-86 -223.5q0 -108 67.5 -176t235.5 -135 q201 -83 284 -180t83 -260q0 -189 -113.5 -297.5t-308.5 -108.5q-89 0 -202 20.5t-187 49.5z" />
<glyph unicode="T" horiz-adv-x="946" d="M27 1407v109h893v-109h-390v-1407h-116v1407h-387z" />
<glyph unicode="U" horiz-adv-x="1282" d="M145 596v920h115v-920q0 -266 91.5 -388t289.5 -122q199 0 289 121.5t90 388.5v920h117v-920q0 -324 -116.5 -470t-379.5 -146t-379.5 146t-116.5 470z" />
<glyph unicode="V" horiz-adv-x="1128" d="M12 1516h117l356 -1131l74 -260h10l74 260l356 1131h115l-475 -1516h-152z" />
<glyph unicode="W" horiz-adv-x="1755" d="M33 1516h125l252 -1092l57 -274h10l66 274l278 1092h131l258 -1092l58 -274h12l63 274l271 1092h123l-389 -1516h-148l-268 1118l-43 228h-10l-50 -228l-286 -1118h-150z" />
<glyph unicode="X" horiz-adv-x="1116" d="M20 0l463 764l-452 752h133l377 -627l18 -41h4l21 41l372 627h129l-454 -754l465 -762h-133l-388 637l-20 41h-4l-19 -41l-378 -637h-134z" />
<glyph unicode="Y" horiz-adv-x="1062" d="M4 1516h125l348 -760l49 -129h11l49 129l346 760h127l-469 -1004v-512h-115v506z" />
<glyph unicode="Z" horiz-adv-x="946" d="M59 0v90l674 1309v10h-661v107h802v-89l-675 -1312v-11h688v-104h-828z" />
<glyph unicode="[" horiz-adv-x="575" d="M152 -328v2106h368v-95h-266v-1916h266v-95h-368z" />
<glyph unicode="\" horiz-adv-x="548" d="M63 1516h95l327 -1762h-94z" />
<glyph unicode="]" horiz-adv-x="575" d="M55 -233h267v1916h-267v95h369v-2106h-369v95z" />
<glyph unicode="^" horiz-adv-x="708" d="M84 985l231 631h78l232 -631h-86l-181 526h-8l-182 -526h-84z" />
<glyph unicode="_" horiz-adv-x="985" d="M86 -123h813v-98h-813v98z" />
<glyph unicode="`" horiz-adv-x="442" d="M70 1636h118l150 -366l-80 -21z" />
<glyph unicode="a" horiz-adv-x="884" d="M63 270q0 154 94.5 236.5t288.5 97.5l199 14v144q0 139 -55.5 200.5t-179.5 61.5t-256 -37l-13 100q172 35 289 35q166 0 247 -85.5t81 -258.5v-778h-96l-15 133h-8q-87 -66 -163.5 -104.5t-158.5 -38.5q-118 0 -186 74.5t-68 205.5zM182 281q0 -93 44 -142t128 -49 q28 0 60 8.5t68.5 28t57.5 31.5t60.5 38t44.5 29v303l-176 -14q-153 -13 -220 -67.5t-67 -165.5z" />
<glyph unicode="b" horiz-adv-x="966" d="M131 29v1626h115v-660q50 61 124 95t158 34q175 0 265 -139.5t90 -409.5q0 -97 -14.5 -181t-48.5 -160.5t-86.5 -130.5t-133.5 -87.5t-184 -35.5q-134 0 -285 49zM246 98q113 -22 178 -22q340 0 340 491q0 459 -260 459q-99 0 -178.5 -61t-79.5 -146v-721z" />
<glyph unicode="c" horiz-adv-x="765" d="M86 553q0 573 426 573q73 0 180 -24v-103q-95 23 -174 23q-162 0 -237.5 -113.5t-75.5 -357.5q0 -238 77 -353.5t236 -115.5q63 0 174 24v-100q-89 -26 -180 -26q-215 0 -320.5 141.5t-105.5 431.5z" />
<glyph unicode="d" horiz-adv-x="968" d="M84 549q0 274 118.5 424.5t334.5 150.5q64 0 184 -18v549h115v-1655h-101l-12 111h-6q-97 -129 -273 -129q-183 0 -271.5 140t-88.5 427zM203 553q0 -229 67 -351t191 -122q99 0 179.5 61t80.5 146v719q-116 22 -186 22q-162 0 -247 -120.5t-85 -354.5z" />
<glyph unicode="e" horiz-adv-x="894" d="M84 530q0 289 105 441.5t303 152.5q160 0 242.5 -119t82.5 -348q0 -89 -8 -149h-606q4 -210 81 -318t220 -108q128 0 258 65l10 -102q-117 -63 -272 -63q-198 0 -307 143.5t-109 404.5zM205 604h502q0 219 -53 317.5t-165 98.5q-129 0 -202 -106t-82 -310z" />
<glyph unicode="f" horiz-adv-x="528" d="M33 1006v100h153v86q0 250 75.5 347.5t285.5 117.5l2 -96q-150 -17 -199 -89t-49 -276v-90h201v-100h-201v-1006h-115v1006h-153z" />
<glyph unicode="g" horiz-adv-x="968" d="M84 549q0 272 119 423.5t334 151.5q154 0 299 -45v-954q0 -301 -95.5 -438.5t-306.5 -137.5q-131 0 -258 48l12 102q123 -49 240 -49q155 0 223.5 98.5t73.5 327.5v41h-8q-98 -127 -271 -127q-183 0 -272.5 138t-89.5 421zM205 553q0 -227 66.5 -348t189.5 -121 q98 0 179 60.5t81 142.5v719q-118 22 -186 22q-162 0 -246 -120.5t-84 -354.5z" />
<glyph unicode="h" horiz-adv-x="960" d="M133 0v1655h115v-670l2 2q195 139 350 139q127 0 179 -65t52 -223v-838h-114v817q0 108 -34.5 155.5t-111.5 47.5q-142 0 -323 -125v-895h-115z" />
<glyph unicode="i" horiz-adv-x="385" d="M113 1456q0 80 80 80q81 0 81 -80t-81 -80q-38 0 -59 21t-21 59zM135 0v1106h115v-1106h-115z" />
<glyph unicode="j" horiz-adv-x="382" d="M-14 -408q149 266 149 633v881h115v-922q0 -166 -49 -331.5t-138 -303.5zM113 1456q0 80 80 80q81 0 81 -80t-81 -80q-38 0 -59 21t-21 59z" />
<glyph unicode="k" horiz-adv-x="880" d="M133 0v1655h115v-1041h149l322 492h125l-342 -518l-29 -21v-4l31 -20l375 -543h-127l-357 520h-147v-520h-115z" />
<glyph unicode="l" horiz-adv-x="393" d="M139 0v1655h115v-1655h-115z" />
<glyph unicode="m" horiz-adv-x="1527" d="M133 0v1106h94l11 -119h6q192 139 348 139q93 0 143 -33.5t70 -109.5h10q186 143 354 143q126 0 178 -65t52 -223v-838h-113v817q0 108 -34.5 155.5t-112.5 47.5q-141 0 -316 -121v-899h-112v817q0 108 -35 155.5t-113 47.5q-146 0 -317 -121v-899h-113z" />
<glyph unicode="n" horiz-adv-x="960" d="M133 0v1106h100l9 -119h8q195 139 350 139q127 0 179 -65t52 -223v-838h-114v817q0 108 -34.5 155.5t-111.5 47.5q-145 0 -323 -125v-895h-115z" />
<glyph unicode="o" horiz-adv-x="980" d="M84 553q0 279 105 426t303 147t301.5 -146.5t103.5 -426.5q0 -279 -103.5 -424t-301.5 -145q-200 0 -304 145.5t-104 423.5zM203 553q0 -239 70.5 -354t218.5 -115t218 114t70 355t-71 357t-217 116q-148 0 -218.5 -115.5t-70.5 -357.5z" />
<glyph unicode="p" horiz-adv-x="968" d="M133 -451v1557h103l10 -111h8q50 61 121.5 95t154.5 34q175 0 265 -139.5t90 -409.5q0 -96 -14.5 -180.5t-49 -162t-87 -132.5t-133 -87.5t-181.5 -32.5q-74 0 -172 20v-451h-115zM248 98q113 -22 178 -22q340 0 340 491q0 459 -260 459q-99 0 -178.5 -61t-79.5 -146 v-721z" />
<glyph unicode="q" horiz-adv-x="966" d="M84 549q0 274 119 424.5t338 150.5q165 0 295 -43v-1532h-113v562q-111 -129 -279 -129q-183 0 -271.5 140t-88.5 427zM203 555q0 -232 66.5 -353.5t191.5 -121.5q100 0 180 61t80 146v721q-115 20 -186 20q-163 0 -247.5 -120t-84.5 -353z" />
<glyph unicode="r" horiz-adv-x="614" d="M133 0v1106h100l9 -127h10q44 38 130 79t181 66h29v-127h-45q-193 -30 -299 -110v-887h-115z" />
<glyph unicode="s" horiz-adv-x="737" d="M78 18v103q137 -43 258 -43q102 0 158.5 56t56.5 155q0 90 -43 142.5t-141 80.5q-110 29 -155 55q-124 72 -124 260q0 140 85.5 223t229.5 83q86 0 226 -33v-103q-127 33 -211 33q-101 0 -159 -52.5t-58 -146.5q0 -44 11 -77.5t26 -54t45 -38t53 -26t65 -21.5 q140 -42 202.5 -112t62.5 -209q0 -145 -87.5 -231.5t-228.5 -86.5q-101 0 -272 43z" />
<glyph unicode="t" horiz-adv-x="659" d="M27 1001v105h209l16 266l92 21v-287h293v-105h-293v-706q0 -100 45 -151.5t131 -51.5q66 0 109 14v-100q-71 -14 -131 -14q-269 0 -269 289v720h-202z" />
<glyph unicode="u" horiz-adv-x="958" d="M125 268v838h115v-817q0 -107 37.5 -154t123.5 -47q70 0 142.5 30.5t165.5 98.5v889h114v-1106h-98l-10 119h-8q-191 -139 -326 -139q-134 0 -195 68t-61 220z" />
<glyph unicode="v" horiz-adv-x="915" d="M29 1098v8h116l279 -891l29 -104h12l29 104l278 891h117v-8l-352 -1098h-156z" />
<glyph unicode="w" horiz-adv-x="1345" d="M43 1098v8h111l178 -789l33 -167h12l41 167l198 789h115l199 -789l41 -167h12l33 167l180 789h107v-8l-261 -1098h-129l-211 815l-24 113h-10l-25 -113l-211 -815h-129z" />
<glyph unicode="x" horiz-adv-x="917" d="M23 0v10l360 561l-338 525v10h123l250 -395l39 -68h8l37 68l250 395h122v-10l-339 -533l360 -553v-10h-125l-272 432l-39 64h-6l-37 -64l-269 -432h-124z" />
<glyph unicode="y" horiz-adv-x="917" d="M27 1098v8h116l285 -852l29 -119h6l31 119l282 852h117v-8l-520 -1549l-113 25v8l141 422z" />
<glyph unicode="z" horiz-adv-x="794" d="M61 0v74l510 923v9h-491v100h635v-74l-514 -923v-9h534v-100h-674z" />
<glyph unicode="{" horiz-adv-x="681" d="M41 692v86q76 0 119 60t43 166v559q0 124 45 169.5t168 45.5q41 0 116.5 -4t88.5 -7v-84h-197q-68 0 -93.5 -24t-25.5 -90v-586q0 -90 -32 -156.5t-85 -91.5q53 -25 85 -92t32 -154v-587q0 -66 25.5 -90.5t93.5 -24.5h197v-84q-13 -3 -87.5 -6.5t-117.5 -3.5 q-123 0 -168 45.5t-45 171.5v559q0 105 -43 164t-119 59z" />
<glyph unicode="|" horiz-adv-x="415" d="M152 -451v2106h110v-2106h-110z" />
<glyph unicode="}" horiz-adv-x="679" d="M59 -213h199q67 0 92 24.5t25 90.5v587q0 88 32.5 154.5t86.5 91.5q-54 25 -86.5 91.5t-32.5 156.5v586q0 66 -24.5 90t-92.5 24h-199v84q15 3 90 7t115 4q124 0 169.5 -45t45.5 -170v-559q0 -106 43 -166t119 -60v-86q-76 0 -119 -59t-43 -164v-559q0 -126 -45 -171.5 t-170 -45.5q-41 0 -115.5 3.5t-89.5 6.5v84z" />
<glyph unicode="~" horiz-adv-x="1019" d="M115 586q83 107 137.5 146.5t120.5 39.5q34 0 66 -16t57 -38.5t49.5 -45t52.5 -38.5t57 -16q46 0 92.5 39.5t69.5 98.5l86 -41q-32 -80 -100.5 -138.5t-140.5 -58.5q-37 0 -72.5 16t-62 38.5t-51 45t-49.5 38.5t-48 16q-44 0 -85.5 -32.5t-100.5 -111.5z" />
<glyph unicode="&#xa1;" horiz-adv-x="391" d="M119 1018q0 38 22.5 59t59.5 21q39 0 61.5 -21t22.5 -59q0 -37 -23 -59.5t-61 -22.5q-37 0 -59.5 22t-22.5 60zM135 -389l21 1128v29h77v-29l21 -1128v-21h-119v21z" />
<glyph unicode="&#xa2;" horiz-adv-x="800" d="M88 553q0 521 354 567v234h95v-228q53 -3 157 -24v-103q-95 23 -174 23q-162 0 -237.5 -113.5t-75.5 -357.5q0 -238 77 -353.5t236 -115.5q63 0 174 24v-100q-80 -23 -157 -26v-224h-95v228q-180 22 -267 162.5t-87 406.5z" />
<glyph unicode="&#xa3;" horiz-adv-x="1024" d="M84 0v106h219v594h-219v103h219v280q0 229 81 336t265 107q121 0 295 -60l-18 -98q-143 51 -262 51q-132 0 -188 -77.5t-56 -260.5v-278h344v-103h-344v-594h495v-106h-831z" />
<glyph unicode="&#xa4;" horiz-adv-x="1077" d="M96 389l109 115l108 69q-26 77 -26 185t26 182l-108 72l-109 114l72 72l117 -106l57 -88q71 126 201 126q125 0 190 -126l60 88l114 106l72 -72l-107 -114l-112 -72q26 -86 26 -182q0 -100 -26 -183l112 -71l107 -115l-72 -72l-114 107l-60 90q-67 -131 -194 -131 q-128 0 -199 127l-55 -86l-117 -107zM381 758q0 -129 42.5 -203t115.5 -74q72 0 113.5 73t41.5 204q0 133 -42 203.5t-113 70.5q-73 0 -115.5 -71.5t-42.5 -202.5z" />
<glyph unicode="&#xa5;" horiz-adv-x="1142" d="M45 1516h125l348 -760l49 -129h11l49 129l346 760h127l-428 -916h270v-94h-311v-189h311v-94h-311v-223h-115v223h-309v94h309v189h-309v94h264z" />
<glyph unicode="&#xa6;" horiz-adv-x="391" d="M139 416h111v-867h-111v867zM139 788v867h111v-867h-111z" />
<glyph unicode="&#xa7;" horiz-adv-x="788" d="M102 18v99q131 -41 263 -41q99 0 156 57t57 156q0 90 -44.5 143.5t-142.5 79.5q-108 30 -149 53q-120 66 -128 235q-1 13 -1 27q0 122 63 197q-63 73 -63 209q0 138 85.5 220.5t229.5 82.5q85 0 225 -33v-100q-127 33 -209 33q-101 0 -161 -54.5t-60 -146.5 q0 -32 6.5 -58.5t15 -45t26 -35.5t31.5 -26.5t39 -20.5t40.5 -16.5t44.5 -14.5q93 -29 147.5 -65.5t84.5 -99t30 -157.5q0 -110 -59 -198q59 -71 59 -205q0 -141 -87 -229.5t-226 -88.5q-100 0 -273 43zM221 831q0 -32 6.5 -59t14 -45.5t25.5 -35.5t29.5 -26.5t38 -21 t38.5 -16t43 -15.5q68 -22 129 -57q35 53 35 137q0 90 -41 143.5t-133 82.5q-96 25 -136 49q-49 -52 -49 -136z" />
<glyph unicode="&#xa8;" horiz-adv-x="770" d="M115 1368q0 74 75 74q34 0 54 -19t20 -55t-20 -55t-54 -19q-75 0 -75 74zM469 1368q0 36 20 55t56 19q33 0 53 -19t20 -55t-20 -55t-53 -19q-36 0 -56 19t-20 55z" />
<glyph unicode="&#xa9;" horiz-adv-x="1699" d="M88 758q0 174 55 319.5t154 246.5t241 157.5t312 56.5t312 -56.5t241 -157.5t154 -246.5t55 -319.5q0 -232 -94.5 -409.5t-268 -274.5t-399.5 -97t-399.5 97t-268 274.5t-94.5 409.5zM178 758q0 -312 184 -502t488 -190t488 190t184 502t-184 502t-488 190t-488 -190 t-184 -502zM506 748q0 209 100.5 316t276.5 107q77 0 172 -18v-90q-92 18 -164 18q-136 0 -211.5 -84t-75.5 -247q0 -161 76.5 -243.5t208.5 -82.5q56 0 170 20v-88q-83 -22 -176 -22q-176 0 -276.5 105.5t-100.5 308.5z" />
<glyph unicode="&#xaa;" horiz-adv-x="741" d="M84 920q0 102 68.5 165t197.5 76l168 19v80q0 98 -38.5 137t-141.5 39q-74 0 -184 -21l-13 90q144 23 226 23q133 0 193.5 -61t60.5 -193v-553h-84l-7 96h-8q-150 -104 -246 -104q-87 0 -139.5 57t-52.5 150zM180 930q0 -133 121 -133q42 0 90.5 20t126.5 68v213l-90 -6 q-139 -9 -193.5 -45.5t-54.5 -116.5z" />
<glyph unicode="&#xab;" horiz-adv-x="868" d="M76 549v8l192 487h119l-192 -487v-8l192 -488h-119zM475 549v8l193 487h118l-192 -487v-8l192 -488h-118z" />
<glyph unicode="&#xac;" horiz-adv-x="1427" d="M113 762v102h1187v-620h-112v518h-1075z" />
<glyph unicode="&#xad;" horiz-adv-x="651" d="M117 524v99h418v-99h-418z" />
<glyph unicode="&#xae;" horiz-adv-x="1433" d="M88 911q0 135 47.5 252.5t130 200.5t199.5 130.5t252 47.5t252.5 -47.5t200.5 -130.5t130.5 -200.5t47.5 -252.5q0 -179 -81 -322t-225.5 -223.5t-324.5 -80.5t-324 80.5t-224.5 223.5t-80.5 322zM172 911q0 -238 153 -391t392 -153q238 0 392.5 153.5t154.5 390.5 q0 239 -154.5 394t-392.5 155q-239 0 -392 -154.5t-153 -394.5zM487 573v697q115 16 191 16q163 0 240 -54t77 -169q0 -78 -39.5 -130.5t-113.5 -74.5l-2 -8l180 -277h-96l-170 263l-185 4v-267h-82zM569 915q27 -2 117 -2q225 0 225 150q0 77 -52.5 111t-172.5 34 q-54 0 -117 -8v-285z" />
<glyph unicode="&#xaf;" horiz-adv-x="708" d="M102 1327v92h502v-92h-502z" />
<glyph unicode="&#xb0;" horiz-adv-x="774" d="M84 1147q0 170 84.5 279.5t218.5 109.5t217.5 -109.5t83.5 -279.5t-83.5 -278.5t-217.5 -108.5t-218.5 108.5t-84.5 278.5zM166 1147q0 -135 58 -217t163 -82t162 81.5t57 217.5t-57 218.5t-162 82.5t-163 -83t-58 -218z" />
<glyph unicode="&#xb1;" horiz-adv-x="1026" d="M127 209v98h772v-98h-772zM127 829v99h336v352h98v-352h338v-99h-338v-350h-98v350h-336z" />
<glyph unicode="&#xb2;" horiz-adv-x="675" d="M72 614v148q0 132 56 234t183 202q96 75 137 138t41 137q0 86 -46.5 131t-135.5 45q-68 0 -192 -39l-19 94q122 43 226 43q135 0 204.5 -68t69.5 -200q0 -99 -48 -178.5t-159 -170.5q-112 -92 -160.5 -174t-48.5 -184v-59h416v-99h-524z" />
<glyph unicode="&#xb3;" horiz-adv-x="643" d="M74 1722q111 27 176 27q136 0 211.5 -76t75.5 -211q0 -96 -49.5 -165.5t-137.5 -98.5q215 -63 215 -297q0 -139 -85 -218t-234 -79q-74 0 -164 23v92h22q74 -19 134 -19q105 0 163 55t58 152q0 119 -67 179.5t-197 60.5h-33v94h35q109 0 171 56.5t62 154.5 q0 96 -48 147.5t-140 51.5q-55 0 -131 -21h-23z" />
<glyph unicode="&#xb4;" horiz-adv-x="425" d="M86 1262l152 374h118l-188 -387z" />
<glyph unicode="&#xb5;" horiz-adv-x="1001" d="M150 -451v1557h112v-817q0 -203 166 -203q131 0 303 123v897h115v-1106h-98l-11 119h-8q-191 -139 -326 -139q-88 0 -141 26v-457h-112z" />
<glyph unicode="&#xb6;" horiz-adv-x="950" d="M72 1034q0 262 92.5 377t261.5 115q41 0 127 -21v-1505h-92v545q-10 -2 -53 -2q-162 0 -249 114t-87 377zM674 0v1505h108v-1505h-108z" />
<glyph unicode="&#xb7;" horiz-adv-x="391" d="M113 758q0 82 82 82q38 0 59.5 -21t21.5 -61t-21.5 -61t-59.5 -21q-82 0 -82 82z" />
<glyph unicode="&#xb8;" horiz-adv-x="528" d="M51 -336q61 -22 121 -22q131 0 131 137q0 110 -80 241h99q77 -133 77 -249q0 -107 -56.5 -164.5t-160.5 -57.5q-59 0 -131 21v94z" />
<glyph unicode="&#xb9;" horiz-adv-x="518" d="M37 1516l2 18l270 199h72v-1119h-107v979l-184 -131h-18z" />
<glyph unicode="&#xba;" horiz-adv-x="796" d="M88 1118q0 203 82 307.5t231 104.5q147 0 227.5 -104t80.5 -308t-80.5 -307.5t-227.5 -103.5q-149 0 -231 104t-82 307zM186 1118q0 -325 215 -325q211 0 211 325q0 175 -57.5 251.5t-153.5 76.5q-215 0 -215 -328z" />
<glyph unicode="&#xbb;" horiz-adv-x="868" d="M82 61l192 488v8l-192 487h119l192 -487v-8l-192 -488h-119zM481 61l193 488v8l-193 487h119l193 -487v-8l-193 -488h-119z" />
<glyph unicode="&#xbc;" horiz-adv-x="1556" d="M47 1311l2 18l270 199h72v-1118h-106v979l-185 -132h-18zM406 0l532 1516h104l-532 -1516h-104zM836 338l364 790l21 5l75 -19l4 -18l-348 -729h334l27 424h76v-424h110v-91h-110v-276h-109v276h-412z" />
<glyph unicode="&#xbd;" horiz-adv-x="1630" d="M47 1311l2 18l270 199h72v-1118h-106v979l-185 -132h-18zM406 0l532 1516h104l-532 -1516h-104zM1014 -2v147q0 131 53 228t186 209q105 87 142 142.5t37 127.5q0 86 -46 133t-131 47q-108 0 -198 -39l-19 94q133 43 228 43q133 0 202.5 -68.5t69.5 -199.5 q0 -100 -42 -170.5t-165 -177.5q-119 -103 -164 -179.5t-45 -178.5v-60h416v-98h-524z" />
<glyph unicode="&#xbe;" horiz-adv-x="1701" d="M94 1518q107 26 176 26q136 0 211.5 -76t75.5 -211q0 -96 -49 -165.5t-137 -98.5q215 -63 215 -297q0 -139 -85 -218t-235 -79q-74 0 -164 23v92h23q70 -18 133 -18q105 0 163 54.5t58 151.5q0 119 -67 179.5t-197 60.5h-33v94h35q109 0 171.5 56.5t62.5 154.5 q0 96 -48.5 147.5t-140.5 51.5q-55 0 -131 -21h-22zM522 0l533 1516h104l-532 -1516h-105zM985 338l365 790l20 5l76 -19l4 -18l-348 -729h334l26 424h76v-424h111v-91h-111v-276h-108v276h-412z" />
<glyph unicode="&#xbf;" horiz-adv-x="786" d="M55 -20q0 84 25.5 152.5t63 112.5t94 80t105.5 55t110 36l2 321v39h92v-39l8 -393q-43 -11 -73.5 -20.5t-74 -26.5t-73.5 -35t-63.5 -46t-53.5 -60t-33.5 -76t-13.5 -96q0 -82 25.5 -143t69.5 -94.5t94.5 -49.5t107.5 -16q116 0 248 49l24 -95q-145 -57 -284 -57 q-79 0 -147 21t-126.5 65.5t-92.5 125.5t-34 190zM416 1036q0 37 22 58.5t60 21.5t60 -21.5t22 -58.5q0 -39 -21.5 -60.5t-60.5 -21.5q-38 0 -60 22t-22 60z" />
<glyph unicode="&#xc0;" d="M16 0v12l455 1504h158l454 -1504v-12h-110l-150 485h-547l-149 -485h-111zM303 588h492l-179 583l-63 228h-10l-62 -228zM307 1886h123l158 -252l-94 -26z" />
<glyph unicode="&#xc1;" d="M16 0v12l455 1504h158l454 -1504v-12h-110l-150 485h-547l-149 -485h-111zM303 588h492l-179 583l-63 228h-10l-62 -228zM496 1616l155 270h123l-184 -278z" />
<glyph unicode="&#xc2;" d="M16 0v12l455 1504h158l454 -1504v-12h-110l-150 485h-547l-149 -485h-111zM287 1667v109l262 147l262 -147v-109l-262 148zM303 588h492l-179 583l-63 228h-10l-62 -228z" />
<glyph unicode="&#xc3;" d="M16 0v12l455 1504h158l454 -1504v-12h-110l-150 485h-547l-149 -485h-111zM248 1737q34 52 86.5 87.5t103.5 35.5q53 0 131.5 -43t122.5 -43q67 0 113 81l55 -43q-26 -59 -77 -95t-105 -36q-52 0 -131 43t-123 43q-33 0 -67.5 -22t-61.5 -57zM303 588h492l-179 583 l-63 228h-10l-62 -228z" />
<glyph unicode="&#xc4;" d="M16 0v12l455 1504h158l454 -1504v-12h-110l-150 485h-547l-149 -485h-111zM285 1743q0 80 80 80q81 0 81 -80t-81 -80q-80 0 -80 80zM303 588h492l-179 583l-63 228h-10l-62 -228zM653 1743q0 80 82 80q37 0 59.5 -20t22.5 -60q0 -80 -82 -80q-38 0 -60 20t-22 60z" />
<glyph unicode="&#xc5;" d="M16 0v12l445 1471q-49 25 -76 75t-27 115q0 90 51 149.5t140 59.5t140.5 -59.5t51.5 -149.5q0 -63 -27.5 -113t-76.5 -75l446 -1473v-12h-110l-150 485h-547l-149 -485h-111zM303 588h492l-179 583l-63 228h-10l-62 -228zM438 1673q0 -59 28.5 -96t82.5 -37t83.5 37 t29.5 96t-29 95t-84 36t-83 -35.5t-28 -95.5z" />
<glyph unicode="&#xc6;" horiz-adv-x="1515" d="M12 0v12l500 1504h905v-107h-602l27 -588h516v-106h-510l29 -609h559v-106h-674l-21 483h-452l-160 -483h-117zM326 590h411l-32 821h-107z" />
<glyph unicode="&#xc7;" horiz-adv-x="995" d="M94 756q0 417 144.5 596.5t476.5 179.5q106 0 213 -16v-105q-75 16 -199 16q-189 0 -300 -65t-162.5 -210.5t-51.5 -395.5q0 -355 120 -512.5t386 -157.5q95 0 207 16v-102q-87 -20 -209 -20q-3 0 -9 1t-8 1q56 -115 56 -211q0 -107 -56.5 -164.5t-160.5 -57.5 q-59 0 -131 21v94q61 -22 120 -22q132 0 132 137q0 95 -62 209q-265 32 -385.5 216t-120.5 552z" />
<glyph unicode="&#xc8;" horiz-adv-x="1017" d="M158 0v1516h766v-107h-652v-588h584v-106h-584v-609h670v-106h-784zM295 1886h123l157 -252l-94 -26z" />
<glyph unicode="&#xc9;" horiz-adv-x="1017" d="M158 0v1516h766v-107h-652v-588h584v-106h-584v-609h670v-106h-784zM483 1616l156 270h123l-184 -278z" />
<glyph unicode="&#xca;" horiz-adv-x="1017" d="M158 0v1516h766v-107h-652v-588h584v-106h-584v-609h670v-106h-784zM274 1667v109l263 147l262 -147v-109l-262 148z" />
<glyph unicode="&#xcb;" horiz-adv-x="1017" d="M158 0v1516h766v-107h-652v-588h584v-106h-584v-609h670v-106h-784zM272 1743q0 80 80 80q38 0 60 -20t22 -60q0 -80 -82 -80q-80 0 -80 80zM641 1743q0 80 82 80q37 0 59.5 -20t22.5 -60q0 -80 -82 -80q-38 0 -60 20t-22 60z" />
<glyph unicode="&#xcc;" horiz-adv-x="430" d="M-20 1886h122l158 -252l-94 -26zM158 0v1516h114v-1516h-114z" />
<glyph unicode="&#xcd;" horiz-adv-x="430" d="M158 0v1516h114v-1516h-114zM166 1616l156 270h122l-184 -278z" />
<glyph unicode="&#xce;" horiz-adv-x="430" d="M-41 1667v109l262 147l262 -147v-109l-262 148zM158 0v1516h114v-1516h-114z" />
<glyph unicode="&#xcf;" horiz-adv-x="430" d="M-43 1743q0 80 80 80q38 0 60 -20t22 -60q0 -80 -82 -80q-80 0 -80 80zM158 0v1516h114v-1516h-114zM326 1743q0 80 82 80q37 0 59 -20t22 -60q0 -80 -81 -80q-38 0 -60 20t-22 60z" />
<glyph unicode="&#xd0;" horiz-adv-x="1198" d="M0 705v100h180v696q193 35 309 35q318 0 467.5 -189.5t149.5 -590.5q0 -412 -165.5 -601.5t-526.5 -189.5q-108 0 -234 15v725h-180zM295 82q95 -10 143 -10q277 0 412 168t135 516q0 354 -117.5 515t-375.5 161q-92 0 -197 -19v-608h307v-100h-307v-623z" />
<glyph unicode="&#xd1;" horiz-adv-x="1325" d="M158 0v1516h116l682 -1141l93 -172l10 2v1311h108v-1516h-118l-674 1130l-99 183l-10 -2v-1311h-108zM369 1737q34 52 86.5 87.5t103.5 35.5q43 0 87.5 -21.5t87 -43t79.5 -21.5q67 0 113 81l55 -43q-26 -59 -77 -95t-105 -36q-43 0 -87.5 21.5t-87 43t-79.5 21.5 q-33 0 -67.5 -22t-61.5 -57z" />
<glyph unicode="&#xd2;" horiz-adv-x="1230" d="M94 756q0 393 129 586.5t391 193.5q523 0 523 -780q0 -776 -523 -776q-262 0 -391 193t-129 583zM211 756q0 -352 95.5 -511t307.5 -159t308 159.5t96 510.5q0 347 -98.5 511.5t-305.5 164.5q-211 0 -307 -161.5t-96 -514.5zM373 1886h123l157 -252l-94 -26z" />
<glyph unicode="&#xd3;" horiz-adv-x="1230" d="M94 756q0 393 129 586.5t391 193.5q523 0 523 -780q0 -776 -523 -776q-262 0 -391 193t-129 583zM211 756q0 -352 95.5 -511t307.5 -159t308 159.5t96 510.5q0 347 -98.5 511.5t-305.5 164.5q-211 0 -307 -161.5t-96 -514.5zM561 1616l156 270h123l-185 -278z" />
<glyph unicode="&#xd4;" horiz-adv-x="1230" d="M94 756q0 393 129 586.5t391 193.5q523 0 523 -780q0 -776 -523 -776q-262 0 -391 193t-129 583zM211 756q0 -352 95.5 -511t307.5 -159t308 159.5t96 510.5q0 347 -98.5 511.5t-305.5 164.5q-211 0 -307 -161.5t-96 -514.5zM354 1667v109l262 147l263 -147v-109 l-263 148z" />
<glyph unicode="&#xd5;" horiz-adv-x="1230" d="M94 756q0 393 129 586.5t391 193.5q523 0 523 -780q0 -776 -523 -776q-262 0 -391 193t-129 583zM211 756q0 -352 95.5 -511t307.5 -159t308 159.5t96 510.5q0 347 -98.5 511.5t-305.5 164.5q-211 0 -307 -161.5t-96 -514.5zM313 1737q34 52 87 87.5t104 35.5 q52 0 131 -43t123 -43q66 0 112 81l56 -43q-26 -59 -77.5 -95t-105.5 -36q-43 0 -87.5 21.5t-87 43t-79.5 21.5q-33 0 -67.5 -22t-61.5 -57z" />
<glyph unicode="&#xd6;" horiz-adv-x="1230" d="M94 756q0 393 129 586.5t391 193.5q523 0 523 -780q0 -776 -523 -776q-262 0 -391 193t-129 583zM211 756q0 -352 95.5 -511t307.5 -159t308 159.5t96 510.5q0 347 -98.5 511.5t-305.5 164.5q-211 0 -307 -161.5t-96 -514.5zM350 1743q0 80 80 80q38 0 60 -20t22 -60 q0 -80 -82 -80q-80 0 -80 80zM719 1743q0 80 82 80q37 0 59.5 -20t22.5 -60q0 -80 -82 -80q-38 0 -60 20t-22 60z" />
<glyph unicode="&#xd7;" horiz-adv-x="894" d="M104 487l273 273l-273 272l70 70l272 -273l275 273l70 -70l-275 -272l275 -273l-70 -69l-275 272l-272 -272z" />
<glyph unicode="&#xd8;" horiz-adv-x="1253" d="M43 0l160 227q-97 187 -97 529q0 780 521 780q244 0 372 -168l103 148h108l-159 -230q98 -189 98 -530q0 -776 -522 -776q-245 0 -373 165l-100 -145h-111zM223 756q0 -271 53 -420l654 934q-101 162 -303 162q-211 0 -307.5 -161.5t-96.5 -514.5zM322 242 q97 -156 305 -156q212 0 307.5 159.5t95.5 510.5q0 268 -57 420z" />
<glyph unicode="&#xd9;" horiz-adv-x="1282" d="M145 596v920h115v-920q0 -266 91.5 -388t289.5 -122q199 0 289 121.5t90 388.5v920h117v-920q0 -324 -116.5 -470t-379.5 -146t-379.5 146t-116.5 470zM397 1886h123l158 -252l-94 -26z" />
<glyph unicode="&#xda;" horiz-adv-x="1282" d="M145 596v920h115v-920q0 -266 91.5 -388t289.5 -122q199 0 289 121.5t90 388.5v920h117v-920q0 -324 -116.5 -470t-379.5 -146t-379.5 146t-116.5 470zM586 1616l155 270h123l-184 -278z" />
<glyph unicode="&#xdb;" horiz-adv-x="1282" d="M145 596v920h115v-920q0 -266 91.5 -388t289.5 -122q199 0 289 121.5t90 388.5v920h117v-920q0 -324 -116.5 -470t-379.5 -146t-379.5 146t-116.5 470zM377 1667v109l262 147l262 -147v-109l-262 148z" />
<glyph unicode="&#xdc;" horiz-adv-x="1282" d="M145 596v920h115v-920q0 -266 91.5 -388t289.5 -122q199 0 289 121.5t90 388.5v920h117v-920q0 -324 -116.5 -470t-379.5 -146t-379.5 146t-116.5 470zM375 1743q0 80 80 80q38 0 60 -20t22 -60q0 -80 -82 -80q-80 0 -80 80zM743 1743q0 80 82 80q37 0 59.5 -20t22.5 -60 q0 -80 -82 -80q-38 0 -60 20t-22 60z" />
<glyph unicode="&#xdd;" horiz-adv-x="1062" d="M4 1516h125l348 -760l49 -129h11l49 129l346 760h127l-469 -1004v-512h-115v506zM483 1616l156 270h123l-184 -278z" />
<glyph unicode="&#xde;" horiz-adv-x="1056" d="M158 0v1516h114v-254q116 14 189 14q272 0 400 -124.5t128 -389.5q0 -270 -132.5 -394t-420.5 -124q-78 0 -164 6v-250h-114zM272 360q126 -12 191 -12q211 0 309 99.5t98 314.5q0 212 -94 310.5t-297 98.5q-101 0 -207 -20v-791z" />
<glyph unicode="&#xdf;" horiz-adv-x="1040" d="M133 0v1251q0 211 91.5 310.5t285.5 99.5t285.5 -99.5t91.5 -310.5v-219h-144q-104 0 -165.5 -54.5t-61.5 -146.5q0 -32 6.5 -59t15 -45.5t26.5 -35.5t31 -26.5t39 -20.5t40 -15.5t45 -14.5q93 -29 148 -65t85.5 -98.5t30.5 -157.5q0 -141 -87.5 -229.5t-227.5 -88.5 q-98 0 -271 43v99q134 -41 262 -41q98 0 154.5 57.5t56.5 155.5q0 90 -44 143.5t-140 79.5q-109 30 -151 53q-119 67 -126 235q-1 13 -1 27q0 139 86.5 222.5t232.5 83.5h47v118q0 168 -60 239t-204 71t-203 -70.5t-59 -239.5v-1251h-115z" />
<glyph unicode="&#xe0;" horiz-adv-x="884" d="M63 270q0 154 94.5 236.5t288.5 97.5l199 14v144q0 139 -55.5 200.5t-179.5 61.5t-256 -37l-13 100q172 35 289 35q166 0 247 -85.5t81 -258.5v-778h-96l-15 133h-8q-87 -66 -163.5 -104.5t-158.5 -38.5q-118 0 -186 74.5t-68 205.5zM182 281q0 -93 44 -142t128 -49 q28 0 60 8.5t68.5 28t57.5 31.5t60.5 38t44.5 29v303l-176 -14q-153 -13 -220 -67.5t-67 -165.5zM238 1636h118l150 -366l-80 -21z" />
<glyph unicode="&#xe1;" horiz-adv-x="884" d="M63 270q0 154 94.5 236.5t288.5 97.5l199 14v144q0 139 -55.5 200.5t-179.5 61.5t-256 -37l-13 100q172 35 289 35q166 0 247 -85.5t81 -258.5v-778h-96l-15 133h-8q-87 -66 -163.5 -104.5t-158.5 -38.5q-118 0 -186 74.5t-68 205.5zM182 281q0 -93 44 -142t128 -49 q28 0 60 8.5t68.5 28t57.5 31.5t60.5 38t44.5 29v303l-176 -14q-153 -13 -220 -67.5t-67 -165.5zM412 1262l151 374h119l-188 -387z" />
<glyph unicode="&#xe2;" horiz-adv-x="884" d="M63 270q0 154 94.5 236.5t288.5 97.5l199 14v144q0 139 -55.5 200.5t-179.5 61.5t-256 -37l-13 100q172 35 289 35q166 0 247 -85.5t81 -258.5v-778h-96l-15 133h-8q-87 -66 -163.5 -104.5t-158.5 -38.5q-118 0 -186 74.5t-68 205.5zM182 281q0 -93 44 -142t128 -49 q28 0 60 8.5t68.5 28t57.5 31.5t60.5 38t44.5 29v303l-176 -14q-153 -13 -220 -67.5t-67 -165.5zM195 1303v108l262 148l262 -148v-108l-262 147z" />
<glyph unicode="&#xe3;" horiz-adv-x="884" d="M63 270q0 154 94.5 236.5t288.5 97.5l199 14v144q0 139 -55.5 200.5t-179.5 61.5t-256 -37l-13 100q172 35 289 35q166 0 247 -85.5t81 -258.5v-778h-96l-15 133h-8q-87 -66 -163.5 -104.5t-158.5 -38.5q-118 0 -186 74.5t-68 205.5zM145 1352q34 49 87 83.5t104 34.5 q52 0 130.5 -46t123.5 -46q63 0 108 82l60 -45q-26 -59 -77 -94t-106 -35q-52 0 -130 46t-123 46q-64 0 -125 -80zM182 281q0 -93 44 -142t128 -49q28 0 60 8.5t68.5 28t57.5 31.5t60.5 38t44.5 29v303l-176 -14q-153 -13 -220 -67.5t-67 -165.5z" />
<glyph unicode="&#xe4;" horiz-adv-x="884" d="M63 270q0 154 94.5 236.5t288.5 97.5l199 14v144q0 139 -55.5 200.5t-179.5 61.5t-256 -37l-13 100q172 35 289 35q166 0 247 -85.5t81 -258.5v-778h-96l-15 133h-8q-87 -66 -163.5 -104.5t-158.5 -38.5q-118 0 -186 74.5t-68 205.5zM182 281q0 -93 44 -142t128 -49 q28 0 60 8.5t68.5 28t57.5 31.5t60.5 38t44.5 29v303l-176 -14q-153 -13 -220 -67.5t-67 -165.5zM201 1368q0 74 75 74q34 0 54 -19t20 -55t-20 -55t-54 -19q-75 0 -75 74zM555 1368q0 36 20 55t56 19q33 0 53.5 -19t20.5 -55t-20.5 -55t-53.5 -19q-36 0 -56 19t-20 55z" />
<glyph unicode="&#xe5;" horiz-adv-x="884" d="M63 270q0 154 94.5 236.5t288.5 97.5l199 14v144q0 139 -55.5 200.5t-179.5 61.5t-256 -37l-13 100q172 35 289 35q166 0 247 -85.5t81 -258.5v-778h-96l-15 133h-8q-87 -66 -163.5 -104.5t-158.5 -38.5q-118 0 -186 74.5t-68 205.5zM182 281q0 -93 44 -142t128 -49 q28 0 60 8.5t68.5 28t57.5 31.5t60.5 38t44.5 29v303l-176 -14q-153 -13 -220 -67.5t-67 -165.5zM260 1466q0 91 51 150t142 59t142.5 -59t51.5 -150t-52 -150t-142 -59t-141.5 59t-51.5 150zM344 1466q0 -57 29 -94t80 -37q52 0 82 37t30 94t-30 94t-82 37t-80.5 -36.5 t-28.5 -94.5z" />
<glyph unicode="&#xe6;" horiz-adv-x="1456" d="M63 270q0 154 94.5 236.5t288.5 97.5l199 14v152q-1 133 -57 193.5t-178 60.5q-127 0 -256 -37l-13 100q179 35 289 35q238 0 287 -211h10q97 213 324 213q160 0 242.5 -119t82.5 -348q0 -90 -8 -147h-608q3 -207 81.5 -317.5t223.5 -110.5q125 0 258 65l10 -102 q-120 -63 -272 -63q-228 0 -334 192l-10 2q-160 -109 -239.5 -147.5t-160.5 -38.5q-118 0 -186 74.5t-68 205.5zM182 281q0 -93 44 -142t128 -49q14 0 28.5 2t31.5 8t30 10.5t33.5 16t33 18.5t38.5 24l39 25.5t45 30t47 31.5q-35 103 -35 272l-176 -14q-153 -12 -220 -67 t-67 -166zM760 602h506q-6 224 -57 323t-160 99q-130 0 -206 -110t-83 -312z" />
<glyph unicode="&#xe7;" horiz-adv-x="763" d="M84 553q0 573 426 573q73 0 180 -24v-103q-95 23 -174 23q-162 0 -237.5 -113.5t-75.5 -357.5q0 -238 77 -353.5t236 -115.5q63 0 174 24v-100q-62 -19 -153 -26q55 -110 55 -209q0 -107 -56.5 -164.5t-160.5 -57.5q-59 0 -131 21v94q61 -22 121 -22q131 0 131 137 q0 91 -60 205q-178 23 -265 164t-87 405z" />
<glyph unicode="&#xe8;" horiz-adv-x="894" d="M84 530q0 289 105 441.5t303 152.5q160 0 242.5 -119t82.5 -348q0 -89 -8 -149h-606q4 -210 81 -318t220 -108q128 0 258 65l10 -102q-117 -63 -272 -63q-198 0 -307 143.5t-109 404.5zM205 604h502q0 219 -53 317.5t-165 98.5q-129 0 -202 -106t-82 -310zM231 1636h119 l150 -366l-80 -21z" />
<glyph unicode="&#xe9;" horiz-adv-x="894" d="M84 530q0 289 105 441.5t303 152.5q160 0 242.5 -119t82.5 -348q0 -89 -8 -149h-606q4 -210 81 -318t220 -108q128 0 258 65l10 -102q-117 -63 -272 -63q-198 0 -307 143.5t-109 404.5zM205 604h502q0 219 -53 317.5t-165 98.5q-129 0 -202 -106t-82 -310zM430 1262 l152 374h118l-188 -387z" />
<glyph unicode="&#xea;" horiz-adv-x="894" d="M84 530q0 289 105 441.5t303 152.5q160 0 242.5 -119t82.5 -348q0 -89 -8 -149h-606q4 -210 81 -318t220 -108q128 0 258 65l10 -102q-117 -63 -272 -63q-198 0 -307 143.5t-109 404.5zM199 1303v108l262 148l262 -148v-108l-262 147zM205 604h502q0 219 -53 317.5 t-165 98.5q-129 0 -202 -106t-82 -310z" />
<glyph unicode="&#xeb;" horiz-adv-x="894" d="M84 530q0 289 105 441.5t303 152.5q160 0 242.5 -119t82.5 -348q0 -89 -8 -149h-606q4 -210 81 -318t220 -108q128 0 258 65l10 -102q-117 -63 -272 -63q-198 0 -307 143.5t-109 404.5zM205 604h502q0 219 -53 317.5t-165 98.5q-129 0 -202 -106t-82 -310zM211 1368 q0 36 20 55t56 19q34 0 53.5 -19t19.5 -55t-19.5 -55t-53.5 -19q-36 0 -56 19t-20 55zM565 1368q0 36 20 55t56 19q33 0 53.5 -19t20.5 -55t-20.5 -55t-53.5 -19q-36 0 -56 19t-20 55z" />
<glyph unicode="&#xec;" horiz-adv-x="385" d="M-18 1636h118l150 -366l-80 -21zM135 0v1106h115v-1106h-115z" />
<glyph unicode="&#xed;" horiz-adv-x="385" d="M135 0v1106h115v-1106h-115zM156 1262l151 374h119l-188 -387z" />
<glyph unicode="&#xee;" horiz-adv-x="389" d="M-63 1303v108l262 148l262 -148v-108l-262 147zM137 0v1106h115v-1106h-115z" />
<glyph unicode="&#xef;" horiz-adv-x="389" d="M-55 1368q0 74 75 74q34 0 54 -19t20 -55t-20 -55t-54 -19q-75 0 -75 74zM137 0v1106h115v-1106h-115zM301 1368q0 36 20 55t56 19q33 0 52.5 -19t19.5 -55t-19.5 -55t-52.5 -19q-36 0 -56 19t-20 55z" />
<glyph unicode="&#xf0;" horiz-adv-x="985" d="M84 553q0 279 105 426t303 147q143 0 229 -114q-41 154 -103 309l-204 -33v94l168 27q-62 137 -125 246h118q71 -116 119 -225l211 34v-94l-172 -29q77 -196 120.5 -401.5t43.5 -386.5q0 -279 -103.5 -424t-301.5 -145q-200 0 -304 145.5t-104 423.5zM203 553 q0 -239 70.5 -354t218.5 -115t218 114.5t70 354.5q0 473 -288 473q-148 0 -218.5 -115.5t-70.5 -357.5z" />
<glyph unicode="&#xf1;" horiz-adv-x="960" d="M133 0v1106h100l9 -119h8q195 139 350 139q127 0 179 -65t52 -223v-838h-114v817q0 108 -34.5 155.5t-111.5 47.5q-145 0 -323 -125v-895h-115zM184 1352q34 49 87 83.5t104 34.5q52 0 130.5 -46t123.5 -46q63 0 108 82l60 -45q-26 -59 -77 -94t-106 -35q-52 0 -130.5 46 t-123.5 46q-63 0 -124 -80z" />
<glyph unicode="&#xf2;" horiz-adv-x="980" d="M84 553q0 279 105 426t303 147t301.5 -146.5t103.5 -426.5q0 -279 -103.5 -424t-301.5 -145q-200 0 -304 145.5t-104 423.5zM203 553q0 -239 70.5 -354t218.5 -115t218 114t70 355t-71 357t-217 116q-148 0 -218.5 -115.5t-70.5 -357.5zM254 1636h119l149 -366l-80 -21z " />
<glyph unicode="&#xf3;" horiz-adv-x="980" d="M84 553q0 279 105 426t303 147t301.5 -146.5t103.5 -426.5q0 -279 -103.5 -424t-301.5 -145q-200 0 -304 145.5t-104 423.5zM203 553q0 -239 70.5 -354t218.5 -115t218 114t70 355t-71 357t-217 116q-148 0 -218.5 -115.5t-70.5 -357.5zM428 1262l152 374h118l-188 -387z " />
<glyph unicode="&#xf4;" horiz-adv-x="980" d="M84 553q0 279 105 426t303 147t301.5 -146.5t103.5 -426.5q0 -279 -103.5 -424t-301.5 -145q-200 0 -304 145.5t-104 423.5zM203 553q0 -239 70.5 -354t218.5 -115t218 114t70 355t-71 357t-217 116q-148 0 -218.5 -115.5t-70.5 -357.5zM211 1303v108l262 148l262 -148 v-108l-262 147z" />
<glyph unicode="&#xf5;" horiz-adv-x="980" d="M84 553q0 279 105 426t303 147t301.5 -146.5t103.5 -426.5q0 -279 -103.5 -424t-301.5 -145q-200 0 -304 145.5t-104 423.5zM162 1352q34 50 86.5 84t103.5 34q52 0 130.5 -46t123.5 -46q64 0 109 82l59 -45q-26 -59 -76.5 -94t-105.5 -35q-52 0 -130.5 46t-123.5 46 q-64 0 -125 -80zM203 553q0 -239 70.5 -354t218.5 -115t218 114t70 355t-71 357t-217 116q-148 0 -218.5 -115.5t-70.5 -357.5z" />
<glyph unicode="&#xf6;" horiz-adv-x="980" d="M84 553q0 279 105 426t303 147t301.5 -146.5t103.5 -426.5q0 -279 -103.5 -424t-301.5 -145q-200 0 -304 145.5t-104 423.5zM203 553q0 -239 70.5 -354t218.5 -115t218 114t70 355t-71 357t-217 116q-148 0 -218.5 -115.5t-70.5 -357.5zM217 1368q0 36 20 55t56 19 q34 0 54 -19t20 -55t-20 -55t-54 -19q-36 0 -56 19t-20 55zM571 1368q0 36 20 55t56 19q33 0 53.5 -19t20.5 -55t-20.5 -55t-53.5 -19q-36 0 -56 19t-20 55z" />
<glyph unicode="&#xf7;" horiz-adv-x="1009" d="M117 709v98h776v-98h-776zM432 438q0 38 21 59t57 21q37 0 58.5 -21.5t21.5 -58.5q0 -38 -21.5 -59t-58.5 -21q-36 0 -57 21t-21 59zM432 1061q0 39 21 60.5t57 21.5q37 0 58.5 -22t21.5 -60q0 -37 -21.5 -57.5t-58.5 -20.5q-36 0 -57 21t-21 57z" />
<glyph unicode="&#xf8;" horiz-adv-x="987" d="M59 0l111 162q-82 145 -82 391q0 280 104 426.5t302 146.5q168 0 268 -106l59 86h101l-107 -156q86 -142 86 -397q0 -280 -103.5 -424.5t-303.5 -144.5q-173 0 -271 104l-61 -88h-103zM205 553q0 -180 39 -287l454 662q-70 98 -204 98q-147 0 -218 -116t-71 -357z M287 182q68 -98 207 -98q148 0 218 114t70 355q0 179 -41 291z" />
<glyph unicode="&#xf9;" horiz-adv-x="958" d="M125 268v838h115v-817q0 -107 37.5 -154t123.5 -47q70 0 142.5 30.5t165.5 98.5v889h114v-1106h-98l-10 119h-8q-191 -139 -326 -139q-134 0 -195 68t-61 220zM258 1636h119l149 -366l-80 -21z" />
<glyph unicode="&#xfa;" horiz-adv-x="958" d="M125 268v838h115v-817q0 -107 37.5 -154t123.5 -47q70 0 142.5 30.5t165.5 98.5v889h114v-1106h-98l-10 119h-8q-191 -139 -326 -139q-134 0 -195 68t-61 220zM432 1262l152 374h118l-188 -387z" />
<glyph unicode="&#xfb;" horiz-adv-x="958" d="M125 268v838h115v-817q0 -107 37.5 -154t123.5 -47q70 0 142.5 30.5t165.5 98.5v889h114v-1106h-98l-10 119h-8q-191 -139 -326 -139q-134 0 -195 68t-61 220zM213 1303v108l262 148l262 -148v-108l-262 147z" />
<glyph unicode="&#xfc;" horiz-adv-x="958" d="M125 268v838h115v-817q0 -107 37.5 -154t123.5 -47q70 0 142.5 30.5t165.5 98.5v889h114v-1106h-98l-10 119h-8q-191 -139 -326 -139q-134 0 -195 68t-61 220zM219 1368q0 36 20 55t56 19q34 0 54 -19t20 -55t-20 -55t-54 -19q-36 0 -56 19t-20 55zM573 1368q0 36 20 55 t56 19q33 0 53.5 -19t20.5 -55t-20.5 -55t-53.5 -19q-36 0 -56 19t-20 55z" />
<glyph unicode="&#xfd;" horiz-adv-x="917" d="M27 1098v8h116l285 -852l29 -119h6l31 119l282 852h117v-8l-520 -1549l-113 25v8l141 422zM432 1262l152 374h118l-188 -387z" />
<glyph unicode="&#xfe;" horiz-adv-x="968" d="M133 -451v2106h115v-658q53 60 126.5 93.5t155.5 33.5q175 0 265 -139.5t90 -409.5q0 -287 -120.5 -441t-344.5 -154q-74 0 -172 20v-451h-115zM248 98q113 -22 178 -22q340 0 340 491q0 459 -260 459q-99 0 -178.5 -61t-79.5 -146v-721z" />
<glyph unicode="&#xff;" horiz-adv-x="917" d="M27 1098v8h116l285 -852l29 -119h6l31 119l282 852h117v-8l-520 -1549l-113 25v8l141 422zM221 1368q0 36 20 55t56 19q34 0 54 -19t20 -55t-20 -55t-54 -19q-36 0 -56 19t-20 55zM575 1368q0 36 20 55t56 19q33 0 53.5 -19t20.5 -55t-20.5 -55t-53.5 -19q-36 0 -56 19 t-20 55z" />
<glyph unicode="&#x152;" horiz-adv-x="1574" d="M94 756q0 766 527 766q104 0 174 -6h682v-107h-574v-588h512v-102h-512v-613h592v-106h-700q-65 -6 -174 -6q-527 0 -527 762zM211 756q0 -346 98.5 -501t319.5 -155q95 0 159 6v1301q-57 8 -159 8q-219 0 -318.5 -157t-99.5 -502z" />
<glyph unicode="&#x153;" horiz-adv-x="1591" d="M84 553q0 279 105 426t303 147q266 0 344 -297h10q84 295 342 295q160 0 242.5 -119t82.5 -348q0 -90 -8 -147h-606q5 -208 82 -318t219 -110q130 0 260 65l10 -102q-120 -63 -272 -63q-133 0 -222.5 74t-131.5 214h-10q-80 -286 -342 -286q-200 0 -304 145.5t-104 423.5 zM203 553q0 -239 70.5 -354t218.5 -115t218 114t70 355t-71 357t-217 116q-148 0 -218.5 -115.5t-70.5 -357.5zM899 602h504q-6 223 -57.5 322.5t-159.5 99.5q-130 0 -204 -109t-83 -313z" />
<glyph unicode="&#x178;" horiz-adv-x="1062" d="M4 1516h125l348 -760l49 -129h11l49 129l346 760h127l-469 -1004v-512h-115v506zM274 1743q0 80 80 80q38 0 60 -20t22 -60q0 -80 -82 -80q-80 0 -80 80zM643 1743q0 80 82 80q37 0 59.5 -20t22.5 -60q0 -80 -82 -80q-38 0 -60 20t-22 60z" />
<glyph unicode="&#x2c6;" horiz-adv-x="690" d="M70 1303v108l262 148l262 -148v-108l-262 147z" />
<glyph unicode="&#x2dc;" horiz-adv-x="811" d="M76 1352q34 50 86.5 84t103.5 34q52 0 130.5 -46t123.5 -46q64 0 109 82l59 -45q-26 -59 -76.5 -94t-105.5 -35q-52 0 -130.5 46t-123.5 46q-64 0 -125 -80z" />
<glyph unicode="&#x2000;" horiz-adv-x="961" />
<glyph unicode="&#x2001;" horiz-adv-x="1923" />
<glyph unicode="&#x2002;" horiz-adv-x="961" />
<glyph unicode="&#x2003;" horiz-adv-x="1923" />
<glyph unicode="&#x2004;" horiz-adv-x="641" />
<glyph unicode="&#x2005;" horiz-adv-x="480" />
<glyph unicode="&#x2006;" horiz-adv-x="320" />
<glyph unicode="&#x2007;" horiz-adv-x="320" />
<glyph unicode="&#x2008;" horiz-adv-x="240" />
<glyph unicode="&#x2009;" horiz-adv-x="384" />
<glyph unicode="&#x200a;" horiz-adv-x="106" />
<glyph unicode="&#x2010;" horiz-adv-x="651" d="M117 524v99h418v-99h-418z" />
<glyph unicode="&#x2011;" horiz-adv-x="651" d="M117 524v99h418v-99h-418z" />
<glyph unicode="&#x2012;" horiz-adv-x="651" d="M117 524v99h418v-99h-418z" />
<glyph unicode="&#x2013;" horiz-adv-x="991" d="M133 524v99h725v-99h-725z" />
<glyph unicode="&#x2014;" horiz-adv-x="1341" d="M133 524v99h1075v-99h-1075z" />
<glyph unicode="&#x2018;" horiz-adv-x="342" d="M98 1288q0 96 28 199t73 174l59 -16q-65 -165 -65 -336q0 -102 36 -211l-98 -21q-33 85 -33 211z" />
<glyph unicode="&#x2019;" horiz-adv-x="342" d="M90 1094q66 173 66 336q0 100 -39 210l100 21q31 -80 31 -211q0 -96 -28 -199t-73 -174z" />
<glyph unicode="&#x201a;" horiz-adv-x="350" d="M68 -254q65 170 65 336q0 101 -39 211l101 20q30 -77 30 -211q0 -96 -27.5 -198.5t-72.5 -173.5z" />
<glyph unicode="&#x201c;" horiz-adv-x="729" d="M98 1288q0 96 28 199t73 174l59 -16q-65 -165 -65 -336q0 -102 36 -211l-98 -21q-33 85 -33 211zM485 1288q0 96 28 199t73 174l59 -16q-65 -165 -65 -336q0 -102 36 -211l-98 -21q-33 85 -33 211z" />
<glyph unicode="&#x201d;" horiz-adv-x="727" d="M90 1094q66 173 66 336q0 100 -39 210l100 21q31 -80 31 -211q0 -96 -28 -199t-73 -174zM477 1094q66 173 66 336q0 100 -39 210l100 21q31 -80 31 -211q0 -96 -28 -199t-72 -174z" />
<glyph unicode="&#x201e;" horiz-adv-x="737" d="M68 -254q65 170 65 336q0 101 -39 211l101 20q30 -77 30 -211q0 -96 -27.5 -198.5t-72.5 -173.5zM455 -254q65 170 65 336q0 101 -39 211l101 20q30 -77 30 -211q0 -96 -27.5 -198.5t-72.5 -173.5z" />
<glyph unicode="&#x2022;" horiz-adv-x="565" d="M147 758q0 72 38 103.5t98 31.5q59 0 96 -31.5t37 -103.5t-37 -103.5t-96 -31.5q-60 0 -98 31.5t-38 103.5z" />
<glyph unicode="&#x2026;" horiz-adv-x="1175" d="M111 78q0 41 22 63.5t62 22.5q41 0 63.5 -22.5t22.5 -63.5q0 -40 -22.5 -61t-63.5 -21q-40 0 -62 21t-22 61zM512 78q0 41 22 63.5t62 22.5q41 0 63.5 -22.5t22.5 -63.5q0 -40 -22.5 -61t-63.5 -21q-40 0 -62 21t-22 61zM895 78q0 41 22 63.5t62 22.5q41 0 63.5 -22.5 t22.5 -63.5q0 -40 -22.5 -61t-63.5 -21q-40 0 -62 21t-22 61z" />
<glyph unicode="&#x202f;" horiz-adv-x="384" />
<glyph unicode="&#x2039;" horiz-adv-x="468" d="M76 549v8l192 487h119l-192 -487v-8l192 -488h-119z" />
<glyph unicode="&#x203a;" horiz-adv-x="468" d="M82 61l192 488v8l-192 487h119l192 -487v-8l-192 -488h-119z" />
<glyph unicode="&#x205f;" horiz-adv-x="480" />
<glyph unicode="&#x20ac;" horiz-adv-x="1019" d="M80 541v90h149q-4 78 -4 125q0 86 2 127h-147v90h156q34 294 172 426.5t405 132.5q76 0 133 -8l-37 -103q-46 4 -82 4q-222 0 -333 -104t-140 -348h447l-41 -90h-414q-2 -41 -2 -127t2 -125h389l-41 -90h-338q29 -237 140.5 -346t322.5 -109q23 0 101 8v-106 q-36 -8 -103 -8q-264 5 -405 139.5t-176 421.5h-156z" />
<glyph unicode="&#x2122;" horiz-adv-x="1554" d="M57 1427v89h531v-89h-217v-772h-95v772h-219zM692 655v861h109l256 -685l256 685h108v-861h-92v656l-227 -619h-90l-228 617v-654h-92z" />
<glyph unicode="&#x25fc;" horiz-adv-x="1105" d="M0 0v1106h1106v-1106h-1106z" />
</font>
</defs>
</svg>
