<?xml version="1.0" standalone="no"?>
<!DOCTYPE svg PUBLIC "-//W3C//DTD SVG 1.1//EN" "http://www.w3.org/Graphics/SVG/1.1/DTD/svg11.dtd" >
<svg xmlns="http://www.w3.org/2000/svg">
<metadata></metadata>
<defs>
<font id="encode_sans_widethin" horiz-adv-x="1253" >
<font-face units-per-em="2048" ascent="1638" descent="-410" />
<missing-glyph horiz-adv-x="536" />
<glyph unicode="&#xfb01;" horiz-adv-x="1236" d="M35 1024v82h266v47q0 156 17.5 253t68.5 152.5t141 78t238 28.5l6 -68q-125 -10 -200.5 -26.5t-117.5 -55t-55.5 -108.5t-13.5 -182v-119h324v-82h-324v-1024h-86v1024h-264zM942 1436q0 68 66 67q70 0 69 -67q1 -66 -69 -66q-66 0 -66 66zM967 0v1106h86v-1106h-86z" />
<glyph unicode="&#xfb02;" horiz-adv-x="1241" d="M35 1024v82h266v47q0 156 17.5 253t68.5 152.5t141 78t238 28.5l6 -68q-125 -10 -200.5 -26.5t-117.5 -55t-55.5 -108.5t-13.5 -182v-119h324v-82h-324v-1024h-86v1024h-264zM965 0v1655h86v-1655h-86z" />
<glyph unicode="&#xfb03;" horiz-adv-x="2000" d="M35 1024v82h266v47q0 156 17.5 253t68.5 152.5t141 78t238 28.5l6 -68q-125 -10 -200.5 -26.5t-117.5 -55t-55.5 -108.5t-13.5 -182v-119h324v-82h-324v-1024h-86v1024h-264zM803 1024v82h266v47q0 156 17.5 253t68.5 152.5t141 78t238 28.5l6 -68q-125 -10 -200.5 -26.5 t-117.5 -55t-55.5 -108.5t-13.5 -182v-119h324v-82h-324v-1024h-86v1024h-264zM1706 1436q0 68 66 67q70 0 69 -67q1 -66 -69 -66q-66 0 -66 66zM1731 0v1106h86v-1106h-86z" />
<glyph unicode="&#xfb04;" horiz-adv-x="2004" d="M35 1024v82h266v47q0 156 17.5 253t68.5 152.5t141 78t238 28.5l6 -68q-125 -10 -200.5 -26.5t-117.5 -55t-55.5 -108.5t-13.5 -182v-119h324v-82h-324v-1024h-86v1024h-264zM803 1024v82h266v47q0 156 17.5 253t68.5 152.5t141 78t238 28.5l6 -68q-125 -10 -200.5 -26.5 t-117.5 -55t-55.5 -108.5t-13.5 -182v-119h324v-82h-324v-1024h-86v1024h-264zM1729 0v1655h86v-1655h-86z" />
<glyph horiz-adv-x="0" />
<glyph unicode="&#xd;" horiz-adv-x="579" />
<glyph horiz-adv-x="0" />
<glyph horiz-adv-x="0" />
<glyph unicode=" "  horiz-adv-x="536" />
<glyph unicode="&#x09;" horiz-adv-x="536" />
<glyph unicode="&#xa0;" horiz-adv-x="536" />
<glyph unicode="!" horiz-adv-x="493" d="M188 76q0 68 66 67q31 0 49.5 -18.5t18.5 -48.5q0 -31 -18.5 -48.5t-49.5 -17.5q-66 0 -66 66zM203 1495v21h86v-21l-15 -1155v-29h-57v29z" />
<glyph unicode="&#x22;" horiz-adv-x="739" d="M164 983v672h90v-8l-51 -664h-39zM512 983v672h90v-8l-51 -664h-39z" />
<glyph unicode="#" horiz-adv-x="1138" d="M117 498v77h188l31 365h-219v78h225l41 498h80l-41 -498h309l43 498h78l-41 -498h209v-78h-215l-31 -365h246v-77h-252l-39 -498h-80l41 498h-311l-39 -498h-80l39 498h-182zM385 575h311l29 365h-309z" />
<glyph unicode="$" horiz-adv-x="1183" d="M102 41v82q123 -29 246 -45.5t219 -16.5q205 0 321 81t116 229q0 92 -35 150.5t-93.5 96t-132 62.5t-153.5 47q-127 35 -213 75t-140.5 90t-78 115.5t-23.5 149.5q0 80 30 148.5t85 119t133 82t174 41.5v275h94v-271q78 -2 172.5 -15t192.5 -36v-84q-98 27 -197.5 40 t-183.5 13q-92 0 -168 -22.5t-129 -63.5t-82 -99t-29 -128q0 -68 19.5 -119t65.5 -92t123 -73.5t190 -63.5q88 -25 172 -53.5t149.5 -76.5t106.5 -121t41 -185q0 -168 -110 -267.5t-314 -119.5v-293h-95v287h-14q-96 0 -216 16t-243 45z" />
<glyph unicode="%" horiz-adv-x="1923" d="M98 1053q0 240 88 361.5t260 121.5q174 0 262.5 -122t88.5 -361q0 -242 -88.5 -364t-262.5 -122q-172 0 -260 122t-88 364zM178 1053q0 -201 67.5 -304.5t200.5 -103.5t202 103.5t69 304.5t-68.5 303t-202.5 102q-133 0 -200.5 -102.5t-67.5 -302.5zM535 0l765 1516h93 l-764 -1516h-94zM1126 465q0 240 88.5 361.5t262.5 121.5t261 -121.5t87 -361.5q0 -242 -87 -363.5t-261 -121.5t-262.5 121.5t-88.5 363.5zM1208 465q0 -201 68 -304.5t201 -103.5t200.5 103.5t67.5 304.5t-67.5 303t-200.5 102t-201 -102t-68 -303z" />
<glyph unicode="&#x26;" horiz-adv-x="1513" d="M123 422q0 283 280 401q-53 70 -75.5 147t-22.5 173q0 199 116 300t341 101q82 0 171 -19.5t200 -60.5v-12l-29 -57h-12q-102 37 -179 53t-149 16q-371 0 -371 -323q0 -84 25.5 -155t85 -137.5t154 -133t233.5 -140.5l309 -163q37 123 37 288v140h84v-140 q0 -96 -11.5 -177t-33.5 -152l180 -95v-12l-43 -55h-18l-150 80q-145 -314 -569 -314q-260 0 -406.5 118t-146.5 329zM209 424q0 -174 125 -271.5t342 -97.5q369 0 493 273l-333 180q-129 68 -221.5 129t-155.5 123q-250 -111 -250 -336z" />
<glyph unicode="'" horiz-adv-x="393" d="M164 983v672h90v-8l-51 -664h-39z" />
<glyph unicode="(" horiz-adv-x="575" d="M113 725q0 289 83 558t240 495h84v-9q-160 -221 -242.5 -486t-82.5 -558t82.5 -558t242.5 -486v-9h-84q-158 225 -240.5 494.5t-82.5 558.5z" />
<glyph unicode=")" horiz-adv-x="575" d="M57 -319q160 221 242 486t82 558t-82 558t-242 486v9h84q158 -225 240 -494.5t82 -558.5t-82 -558t-240 -495h-84v9z" />
<glyph unicode="*" horiz-adv-x="1024" d="M117 1372l22 72l164 -49l193 -84l-21 209v172h76v-172l-21 -209l191 84l164 49l22 -72l-162 -51l-204 -43l139 -158l100 -141l-61 -43l-98 139l-109 182l-106 -182l-101 -139l-61 43l100 141l139 158l-204 43z" />
<glyph unicode="+" horiz-adv-x="983" d="M115 719v78h338v356h77v-356h338v-78h-338v-357h-77v357h-338z" />
<glyph unicode="," horiz-adv-x="442" d="M86 -297l96 432h94l-118 -452z" />
<glyph unicode="-" horiz-adv-x="956" d="M160 528v90h639v-90h-639z" />
<glyph unicode="." horiz-adv-x="454" d="M156 68q0 35 19.5 53t51.5 18q33 0 53.5 -18.5t20.5 -52.5q0 -33 -20.5 -51.5t-53.5 -18.5t-52 18.5t-19 51.5z" />
<glyph unicode="/" horiz-adv-x="792" d="M74 -246l561 1762h84l-561 -1762h-84z" />
<glyph unicode="0" horiz-adv-x="1370" d="M133 756q0 387 139.5 583.5t413.5 196.5t413.5 -196.5t139.5 -583.5t-139.5 -584t-413.5 -197t-413.5 197t-139.5 584zM219 756q0 -344 118 -521.5t349 -177.5q229 0 347 177.5t118 521.5t-118 521t-347 177q-231 0 -349 -177t-118 -521z" />
<glyph unicode="1" horiz-adv-x="800" d="M61 1243v8l449 265h68v-1516h-86v1401h-9l-395 -213h-14z" />
<glyph unicode="2" horiz-adv-x="1126" d="M113 6v191q0 88 24.5 161.5t77.5 139t138 128t206 128.5q94 51 160.5 96t107.5 91t59.5 95t18.5 105q0 307 -348 307q-86 0 -179 -13.5t-204 -39.5l-16 82q113 29 211 41t192 12q430 0 430 -387q0 -72 -19.5 -130.5t-64.5 -112.5t-119.5 -106.5t-183.5 -109.5 q-111 -59 -188.5 -114.5t-124.5 -112t-68.5 -117.5t-21.5 -135v-117h800v-82h-888z" />
<glyph unicode="3" horiz-adv-x="1075" d="M129 8v80h8q25 -6 60.5 -10t73.5 -8t75 -6.5t68 -2.5q213 0 327.5 93.5t114.5 267.5q0 152 -97 228.5t-288 76.5h-168v82h166q170 0 257 81t87 236q0 328 -385 328q-47 0 -123 -7t-168 -20h-8v78q135 31 301 31q236 0 355.5 -106.5t119.5 -307.5q0 -133 -60.5 -221 t-170.5 -123v-8q131 -27 201.5 -119t70.5 -237q0 -211 -135 -322.5t-393 -111.5q-70 0 -142.5 7t-146.5 21z" />
<glyph unicode="4" horiz-adv-x="1232" d="M59 436v10l510 1090h9l63 -20l2 -11l-473 -1026v-8h657l31 551h55v-551h252v-82h-252v-389h-86v389h-733z" />
<glyph unicode="5" horiz-adv-x="1105" d="M119 8v82h12q156 -29 295 -29q242 0 361.5 85t119.5 292q0 184 -138 262t-423 84l-168 4l-10 9l53 719h713v-82h-637l-39 -568q193 -2 331 -24.5t228 -72.5t133 -131t43 -200q0 -246 -145.5 -352t-417.5 -106q-150 0 -311 28z" />
<glyph unicode="6" horiz-adv-x="1273" d="M131 666q0 207 45 369.5t132 274t213 171t288 59.5q63 0 124.5 -8t133.5 -25v-84q-74 20 -133.5 28.5t-124.5 8.5q-133 0 -238.5 -49t-181.5 -142t-119 -228.5t-51 -305.5q102 84 221 131t250 47q100 0 189.5 -28.5t154 -84t102.5 -138t38 -193.5q0 -109 -37 -199 t-102.5 -155.5t-158.5 -102.5t-206 -37q-539 0 -539 691zM217 653q0 -598 453 -598q94 0 169.5 30t129 85t83 133t29.5 174q0 170 -108.5 264.5t-302.5 94.5q-55 0 -114.5 -12.5t-119 -36t-115 -57.5t-104.5 -77z" />
<glyph unicode="7" horiz-adv-x="1017" d="M57 1505l2 11h879l27 -46v-57l-584 -1417l-27 -16l-69 20v23l594 1409h-809z" />
<glyph unicode="8" horiz-adv-x="1269" d="M127 393q0 96 28.5 167t71.5 121t93.5 81t91.5 47q-51 25 -94.5 55.5t-75 71.5t-49 95t-17.5 126q0 98 35 169t96.5 118t145.5 69.5t182 22.5t181 -22.5t142.5 -68.5t93 -118t33.5 -172q0 -88 -26.5 -153.5t-65.5 -113.5t-84 -81t-84 -51q66 -25 124.5 -55.5t102.5 -74.5 t69.5 -103.5t25.5 -139.5q0 -96 -37 -169t-104.5 -122t-162.5 -74.5t-210 -25.5t-209 23.5t-159.5 72.5t-101.5 125t-36 180zM213 395q0 -84 29.5 -145.5t85 -101t132.5 -58t173 -18.5q94 0 173 19.5t136 59t88 97t31 135.5q0 84 -35 139.5t-93.5 94t-132 63t-149.5 47.5 q-35 10 -70.5 20.5t-70.5 22.5q-18 -6 -67.5 -25.5t-100.5 -62.5t-90 -112.5t-39 -174.5zM260 1157q0 -86 36 -144.5t95.5 -97t135 -64.5t153.5 -50l49 -17q23 8 68 33t91 69t79.5 110.5t33.5 158.5q0 80 -27.5 136.5t-76.5 93t-116.5 54t-147.5 17.5t-147.5 -18.5t-118 -55 t-79 -93t-28.5 -132.5z" />
<glyph unicode="9" horiz-adv-x="1275" d="M102 1047q0 109 37 198.5t102.5 155t158.5 102.5t206 37q539 0 539 -690q0 -207 -45 -370t-132 -274.5t-213 -171t-288 -59.5q-63 0 -124.5 8.5t-133.5 24.5v84q74 -20 133 -28.5t125 -8.5q131 0 237.5 49.5t182.5 142.5t119 228t51 305q-102 -84 -221 -131t-250 -47 q-102 0 -190.5 28.5t-153 84t-102.5 138.5t-38 194zM195 1038q0 -170 108.5 -264t302.5 -94q55 0 114.5 12.5t119 36t115 57t104.5 76.5q0 598 -453 598q-94 0 -170 -30.5t-130 -86t-82.5 -133t-28.5 -172.5z" />
<glyph unicode=":" horiz-adv-x="462" d="M158 68q0 35 19.5 53t51.5 18q33 0 53.5 -18.5t20.5 -52.5q0 -33 -20.5 -51.5t-53.5 -18.5t-52 18.5t-19 51.5zM158 1038q0 35 19.5 53.5t51.5 18.5q33 0 53.5 -18.5t20.5 -53.5q0 -33 -20.5 -51t-53.5 -18t-52 18.5t-19 50.5z" />
<glyph unicode=";" horiz-adv-x="536" d="M147 -297l97 432h94l-119 -452zM209 1038q0 35 19.5 53.5t52.5 18.5t53 -18.5t20 -53.5q0 -33 -20 -51t-53 -18t-52.5 18.5t-19.5 50.5z" />
<glyph unicode="&#x3c;" horiz-adv-x="1030" d="M109 717v69l759 340v-88l-655 -288l649 -287v-86z" />
<glyph unicode="=" horiz-adv-x="1079" d="M164 477v78h751v-78h-751zM164 911v78h751v-78h-751z" />
<glyph unicode="&#x3e;" horiz-adv-x="1032" d="M164 1038v88l760 -340v-69l-754 -340v86l647 287z" />
<glyph unicode="?" horiz-adv-x="917" d="M72 1479q72 27 162 44t182 17q74 0 147.5 -19.5t133 -65.5t96 -123t36.5 -193q0 -113 -40.5 -189t-104 -126t-137.5 -79.5t-141 -48.5v-374h-78v40l-6 398q63 16 136.5 39.5t137 65.5t106.5 107.5t43 164.5q0 92 -30.5 153.5t-78.5 99t-107.5 53t-118.5 15.5 q-82 0 -158 -14t-156 -37zM303 68q0 68 66 67q31 0 49 -18.5t18 -48.5q0 -29 -18 -47.5t-49 -18.5t-48.5 18.5t-17.5 47.5z" />
<glyph unicode="@" horiz-adv-x="1888" d="M123 535q0 197 58.5 354.5t169 267t268 167.5t356.5 58q184 0 327.5 -51t243 -147.5t151.5 -237.5t52 -319q0 -252 -94 -385t-271 -133q-111 0 -167 47t-66 141h-12q-59 -78 -156.5 -127t-196.5 -49q-135 0 -212.5 92t-77.5 258q0 119 38.5 218t109.5 170t168 111t216 40 q127 0 297 -62l-82 -434q-10 -51 -15 -92t-5 -74q0 -88 37.5 -127t123.5 -39q137 0 210 115t73 330q0 330 -177 504t-515 174q-180 0 -323.5 -53.5t-244 -153t-153.5 -241.5t-53 -322q0 -172 49 -309.5t141 -231.5t224.5 -144.5t299.5 -50.5q188 0 416 66l33 -72 q-250 -72 -449 -72q-184 0 -331.5 56.5t-250 161t-156.5 255t-54 341.5zM573 471q0 -131 57 -203.5t161 -72.5q68 0 129 25.5t111 69.5t86 104.5t48 131.5l68 375q-127 35 -205 35q-100 0 -183 -35t-143.5 -96.5t-94.5 -146.5t-34 -187z" />
<glyph unicode="A" horiz-adv-x="1404" d="M23 0v10l608 1506h143l608 -1506v-10h-90l-202 502h-775l-202 -502h-90zM348 584h709l-248 618l-102 250h-9l-102 -250z" />
<glyph unicode="B" horiz-adv-x="1368" d="M213 10v1495q147 14 248.5 20.5t191.5 6.5q147 0 251 -21.5t169.5 -69.5t95 -124t29.5 -184q0 -70 -19.5 -130.5t-55.5 -107.5t-86 -79t-109 -44v-8q321 -61 321 -371q0 -207 -149.5 -310t-442.5 -103q-98 0 -206.5 7t-237.5 23zM299 84q125 -25 356 -25q260 0 383 81 t123 253q0 336 -442 336h-420v-645zM299 807h416q213 0 305 75.5t92 250.5q0 88 -24.5 148t-79 98t-142.5 55.5t-213 17.5q-115 0 -198.5 -5t-155.5 -15v-625z" />
<glyph unicode="C" horiz-adv-x="1251" d="M127 754q0 385 169 582.5t497 197.5q37 0 84 -3t96 -9t97 -14.5t91 -18.5v-84q-104 23 -200.5 35t-165.5 12q-281 0 -431.5 -180t-150.5 -516q0 -334 143.5 -511t417.5 -177q37 0 89 4t107.5 12t105.5 16.5t85 18.5v-80q-37 -10 -88 -20.5t-104.5 -17.5t-104.5 -11 t-90 -4q-317 0 -482 196.5t-165 571.5z" />
<glyph unicode="D" horiz-adv-x="1533" d="M213 18v1495q35 2 88 6.5t110.5 6.5t112 4t90.5 2q410 0 602.5 -187.5t192.5 -584.5q0 -401 -193.5 -589.5t-605.5 -188.5q-137 0 -246.5 10t-150.5 26zM301 86q49 -6 88 -11t75 -7t72.5 -3.5t81.5 -1.5q358 0 530.5 170t172.5 527q0 354 -170 521t-535 167 q-31 0 -71.5 -1t-83.5 -4t-85 -6t-75 -5v-1346z" />
<glyph unicode="E" horiz-adv-x="1284" d="M213 0v1516h932v-82h-844v-619h807v-82h-807v-651h860v-82h-948z" />
<glyph unicode="F" horiz-adv-x="1224" d="M213 0v1516h932v-82h-844v-623h768v-80h-768v-731h-88z" />
<glyph unicode="G" horiz-adv-x="1372" d="M127 754q0 383 177 581.5t521 198.5q92 0 183.5 -14.5t199.5 -42.5v-84q-68 18 -119 29.5t-94 17.5t-83 9t-85 3q-295 0 -454.5 -180t-159.5 -516q0 -334 151.5 -511t438.5 -177q33 0 76 4t88 10t90 14t80 17v657h84v-717q-47 -14 -101.5 -26.5t-111 -21.5t-108.5 -14 t-95 -5q-332 0 -505 196.5t-173 571.5z" />
<glyph unicode="H" horiz-adv-x="1605" d="M213 0v1516h88v-697h1004v697h88v-1516h-88v737h-1004v-737h-88z" />
<glyph unicode="I" horiz-adv-x="514" d="M213 0v1516h88v-1516h-88z" />
<glyph unicode="J" horiz-adv-x="514" d="M57 -330q45 94 76 176t49.5 164t26.5 169t8 192v1145h88v-1147q0 -102 -8 -186.5t-28.5 -168.5t-55.5 -175t-88 -206z" />
<glyph unicode="K" horiz-adv-x="1359" d="M213 0v1516h88v-699h379l514 699h104l-501 -682l-49 -50v-14l55 -49l530 -721h-104l-541 735h-387v-735h-88z" />
<glyph unicode="L" horiz-adv-x="1107" d="M213 0v1516h88v-1434h776v-82h-864z" />
<glyph unicode="M" horiz-adv-x="1914" d="M213 0v1516h125l448 -990l166 -381h9l167 381l449 990h125v-1516h-84v1393h-8l-228 -512l-378 -828h-93l-379 828l-225 512h-10v-1393h-84z" />
<glyph unicode="N" horiz-adv-x="1640" d="M213 0v1516h82l905 -1190l135 -187h8v1377h84v-1516h-84l-917 1204l-119 168h-10v-1372h-84z" />
<glyph unicode="O" horiz-adv-x="1564" d="M127 756q0 190 45 335.5t129 244t206 149.5t275 51q154 0 277 -51t207 -149.5t129 -244t45 -335.5t-45 -335t-129 -243t-207 -148t-277 -50t-275.5 50t-205.5 148t-129 242.5t-45 335.5zM213 756q0 -332 148.5 -513.5t420.5 -181.5q135 0 240.5 47.5t178.5 136.5t112 218 t39 293q0 336 -147.5 517t-422.5 181q-274 0 -421.5 -180t-147.5 -518z" />
<glyph unicode="P" horiz-adv-x="1335" d="M213 0v1505q184 31 352 31q354 0 517 -123t163 -389q0 -135 -38 -232.5t-117.5 -159t-204.5 -91t-299 -29.5q-59 0 -126 4t-159 16v-532h-88zM301 616q14 -4 47 -9t74 -8t85 -5t83 -2q154 0 262.5 23.5t177 75.5t99 134t30.5 199q0 227 -139 328.5t-453 101.5 q-70 0 -143.5 -5t-122.5 -15v-818z" />
<glyph unicode="Q" horiz-adv-x="1556" d="M121 756q0 186 44 330.5t127 245t204.5 152.5t279.5 52q156 0 279 -52t207 -152.5t128 -245t44 -330.5q0 -182 -45.5 -324.5t-130 -239t-209.5 -146.5t-285 -50v-8q88 -23 168 -38.5t156.5 -27.5t155.5 -20t163 -13l-16 -90q-360 45 -604 115t-391.5 181.5t-211 272 t-63.5 388.5zM207 756q0 -330 149.5 -512.5t419.5 -182.5q135 0 240.5 47.5t178.5 137.5t112 218t39 292q0 336 -147.5 517t-422.5 181q-272 0 -420.5 -181t-148.5 -517z" />
<glyph unicode="R" horiz-adv-x="1380" d="M213 0v1505q180 31 352 31q356 0 518 -111.5t162 -359.5q0 -190 -88 -296.5t-280 -147.5l417 -621h-100l-406 606q-47 -4 -97 -7t-105 -3q-59 0 -131 4t-154 14v-614h-88zM301 698q12 -4 43 -9t71 -8t85 -5t90 -2q154 0 262.5 21.5t176 68.5t99 120.5t31.5 180.5 q0 205 -140 297t-452 92q-70 0 -143.5 -5t-122.5 -15v-736z" />
<glyph unicode="S" horiz-adv-x="1185" d="M100 41v82q123 -29 246 -45.5t219 -16.5q205 0 320.5 81t115.5 229q0 92 -34.5 150.5t-93 96t-132 62.5t-153.5 47q-127 35 -213 75t-140.5 90t-78 115.5t-23.5 149.5q0 88 36 161t101.5 125t156.5 80.5t204 28.5q82 0 181 -13t202 -38v-84q-98 27 -197.5 40t-183.5 13 q-92 0 -168 -22.5t-129 -63.5t-82 -99t-29 -128q0 -68 19.5 -119t65.5 -92t123 -73.5t190 -63.5q88 -25 172 -53.5t149.5 -76.5t106.5 -121t41 -185q0 -190 -138.5 -291.5t-394.5 -101.5q-96 0 -216 16t-243 45z" />
<glyph unicode="T" horiz-adv-x="1265" d="M33 1434v82h1200v-82h-557v-1434h-86v1434h-557z" />
<glyph unicode="U" horiz-adv-x="1570" d="M197 610v903h88v-888q0 -158 32.5 -265.5t95 -174t156 -95.5t215.5 -29q123 0 217.5 29t157 95.5t95 174t32.5 265.5v888h88v-903q0 -170 -35.5 -289.5t-109.5 -195.5t-184.5 -110.5t-260.5 -34.5t-260 34.5t-183 110.5t-108.5 195.5t-35.5 289.5z" />
<glyph unicode="V" horiz-adv-x="1398" d="M29 1516h94l455 -1137l116 -289h6l119 289l457 1137h94l-610 -1516h-121z" />
<glyph unicode="W" horiz-adv-x="2080" d="M51 1516h90l330 -1108l90 -304h8l90 304l336 1108h90l332 -1108l90 -304h11l90 304l331 1108h89l-455 -1516h-119l-340 1139l-70 235h-8l-69 -239l-342 -1135h-119z" />
<glyph unicode="X" horiz-adv-x="1372" d="M25 0l604 780l-570 736h107l502 -650l14 -26h10l17 26l499 650h107l-572 -740l607 -776h-107l-538 692l-15 25h-10l-14 -25l-535 -692h-106z" />
<glyph unicode="Y" horiz-adv-x="1263" d="M20 1516h97l446 -779l64 -123h10l63 123l447 779h96l-567 -992v-524h-86v524z" />
<glyph unicode="Z" horiz-adv-x="1191" d="M74 0v72l909 1353v9h-881v82h994v-68l-906 -1358v-8h924v-82h-1040z" />
<glyph unicode="[" horiz-adv-x="626" d="M203 -328v2106h348v-78h-266v-1950h266v-78h-348z" />
<glyph unicode="\" horiz-adv-x="790" d="M72 1516h84l561 -1762h-84z" />
<glyph unicode="]" horiz-adv-x="624" d="M76 -250h266v1950h-266v78h346v-2106h-346v78z" />
<glyph unicode="^" horiz-adv-x="989" d="M115 985l348 631h63l348 -631h-75l-299 535h-8l-302 -535h-75z" />
<glyph unicode="_" horiz-adv-x="1202" d="M129 -123h946v-90h-946v90z" />
<glyph unicode="`" horiz-adv-x="493" d="M102 1655h107l149 -367l-71 -20z" />
<glyph unicode="a" horiz-adv-x="1081" d="M100 262q0 160 101.5 240t330.5 102l293 27v108q0 82 -15 138.5t-51 91.5t-95.5 50t-145.5 15q-80 0 -157.5 -8t-186.5 -29l-8 80q113 20 192.5 28.5t163.5 8.5q203 0 296 -86t93 -272v-756h-71l-13 143h-10q-250 -153 -424 -153q-293 0 -293 272zM186 264 q0 -194 217 -194q90 0 194.5 37.5t227.5 115.5v338l-274 -26q-102 -10 -172 -29t-113 -50.5t-61.5 -78.5t-18.5 -113z" />
<glyph unicode="b" horiz-adv-x="1247" d="M182 12v1643h86v-682q68 74 162 113.5t217 39.5q236 0 361 -136t125 -435q0 -150 -39 -258.5t-110 -179t-169 -104t-215 -33.5q-100 0 -213 9t-205 23zM268 82q59 -8 146.5 -15.5t185.5 -7.5q104 0 186 28t138.5 88.5t87 153.5t30.5 224q0 264 -99 377.5t-302 113.5 q-70 0 -136.5 -18t-118.5 -52t-85 -82t-33 -108v-702z" />
<glyph unicode="c" horiz-adv-x="978" d="M117 551q0 573 532 573q51 0 116.5 -7t117.5 -19v-86q-49 16 -106.5 23t-114.5 7q-455 0 -455 -491q0 -254 107.5 -371t340.5 -117q61 0 112.5 5.5t115.5 19.5v-80q-41 -12 -106 -19t-128 -7q-532 0 -532 569z" />
<glyph unicode="d" horiz-adv-x="1247" d="M117 551q0 150 39 258.5t108.5 179t167.5 104t215 33.5q98 0 184.5 -10t149.5 -14v553h86v-1655h-74l-10 143h-10q-63 -78 -155.5 -120.5t-217.5 -42.5q-233 0 -358 136t-125 435zM207 553q0 -264 99 -379t300 -115q70 0 137.5 20.5t121 57.5t85 89.5t31.5 117.5v678 q-61 8 -148.5 16.5t-185.5 8.5q-207 0 -323.5 -117t-116.5 -377z" />
<glyph unicode="e" horiz-adv-x="1122" d="M119 532q0 289 125 440.5t362 151.5q197 0 300.5 -126t103.5 -367q0 -43 -2 -74t-7 -47h-796q12 -446 432 -447q76 0 153.5 14.5t174.5 45.5l10 -76q-80 -29 -176 -47t-174 -18q-250 0 -378 139t-128 411zM205 584h719q-4 123 -23.5 211t-57.5 143t-97.5 80.5 t-141.5 25.5q-193 0 -291 -115.5t-108 -344.5z" />
<glyph unicode="f" horiz-adv-x="741" d="M37 1024v82h266v47q0 156 17.5 253t68.5 152.5t141.5 78t237.5 28.5l6 -68q-125 -10 -200.5 -26.5t-117.5 -55t-55.5 -108.5t-13.5 -182v-119h324v-82h-324v-1024h-86v1024h-264z" />
<glyph unicode="g" horiz-adv-x="1247" d="M117 553q0 150 39 258.5t108.5 178t167.5 103t215 33.5q49 0 105.5 -3t114 -8t108.5 -13t92 -17v-999q0 -168 -44 -272.5t-116.5 -163t-167 -79t-196.5 -20.5q-92 0 -182.5 13.5t-170.5 36.5l7 82q86 -23 175 -37.5t175 -14.5q94 0 174 21.5t138.5 74t91 140.5t32.5 221 v59h-10q-61 -80 -154.5 -122.5t-218.5 -42.5q-233 0 -358 136t-125 435zM207 555q0 -264 99 -378t300 -114q72 0 139.5 20.5t120 57.5t84 89.5t31.5 117.5v674q-61 8 -148.5 16.5t-185.5 8.5q-207 0 -323.5 -117t-116.5 -375z" />
<glyph unicode="h" d="M182 0v1655h86v-682q96 43 170 71.5t135.5 47t112.5 26.5t100 8q141 0 218 -73.5t77 -229.5v-823h-86v786q0 139 -56 197.5t-173 58.5q-96 0 -223 -40.5t-275 -110.5v-891h-86z" />
<glyph unicode="i" horiz-adv-x="456" d="M162 1436q0 67 63 67h2q70 0 70 -67q0 -66 -70 -66q-66 0 -65 66zM186 0v1106h86v-1106h-86z" />
<glyph unicode="j" horiz-adv-x="450" d="M23 -412q82 141 121.5 294t39.5 349v875h84v-918q0 -172 -47 -334.5t-137 -304.5zM150 1436q0 67 65 67h2q68 0 68 -67q0 -66 -68 -66t-67 66z" />
<glyph unicode="k" horiz-adv-x="1122" d="M182 0v1655h86v-1051h252l453 502h106l-467 -518l-30 -19v-8l32 -20l498 -541h-104l-492 530h-248v-530h-86z" />
<glyph unicode="l" horiz-adv-x="464" d="M188 0v1655h86v-1655h-86z" />
<glyph unicode="m" horiz-adv-x="1857" d="M182 0v1106h68l12 -133h8q76 43 134.5 71.5t106.5 47t89 26.5t84 8q102 0 172 -38.5t100 -120.5h9q82 47 142 77.5t109.5 49t90.5 25.5t82 7q141 0 217.5 -73.5t76.5 -229.5v-823h-86v786q0 139 -56 197.5t-171 58.5q-78 0 -172 -37.5t-219 -109.5v-895h-86v786 q0 139 -56.5 197.5t-170.5 58.5q-82 0 -181.5 -40.5t-216.5 -110.5v-891h-86z" />
<glyph unicode="n" d="M182 0v1106h68l12 -133h8q96 43 171 72.5t134.5 47t110.5 25.5t100 8q141 0 218 -73.5t77 -229.5v-823h-86v786q0 139 -56 197.5t-173 58.5q-96 0 -223 -40.5t-275 -110.5v-891h-86z" />
<glyph unicode="o" horiz-adv-x="1216" d="M117 553q0 276 127 424.5t364 148.5q238 0 365 -148.5t127 -424.5t-127 -424.5t-365 -148.5t-364.5 148t-126.5 425zM207 553q0 -492 401 -492t402 492q0 491 -400 491h-2q-401 0 -401 -491z" />
<glyph unicode="p" horiz-adv-x="1251" d="M182 -451v1557h74l8 -133h10q63 74 156.5 113.5t216.5 39.5q236 0 361 -136t125 -435q0 -150 -39 -258.5t-110 -179t-169 -104t-215 -33.5q-98 0 -184 10t-148 14v-455h-86zM268 84q59 -8 147.5 -16.5t186.5 -8.5q102 0 184 29t138.5 88.5t87 153.5t30.5 223 q0 264 -99 379t-302 115q-72 0 -138.5 -19.5t-118.5 -55.5t-84 -87t-32 -113v-688z" />
<glyph unicode="q" horiz-adv-x="1247" d="M117 551q0 281 137 428t393 147q51 0 109.5 -3t116 -8t107.5 -11t87 -14v-1541h-86v594q-66 -80 -163 -121.5t-218 -41.5q-483 0 -483 571zM207 553q0 -258 94 -376t305 -118q78 0 146.5 22.5t119 60.5t80 90.5t29.5 111.5v678q-190 25 -334 25q-440 0 -440 -494z" />
<glyph unicode="r" horiz-adv-x="774" d="M182 0v1106h68l12 -154h8q158 72 261.5 117t187.5 55h29v-88h-27q-94 -10 -210 -59t-243 -109v-868h-86z" />
<glyph unicode="s" horiz-adv-x="950" d="M106 29v80q197 -49 357 -50q147 0 224 59.5t77 170.5q0 63 -22.5 104t-60.5 66.5t-88 41t-104 27.5q-66 12 -131 29.5t-117.5 49.5t-85 86.5t-32.5 144.5q0 139 103.5 217t283.5 78q31 0 58.5 -2.5t61.5 -6.5t77 -12t102 -20l-8 -82q-104 23 -168 33t-121 10 q-147 0 -224 -55.5t-77 -159.5q0 -61 24.5 -101.5t66.5 -65t95.5 -39t112.5 -26.5q63 -14 124.5 -32.5t109 -53.5t77 -90t29.5 -141q0 -145 -102.5 -227t-282.5 -82q-35 0 -67.5 2t-73.5 8t-93.5 15t-124.5 24z" />
<glyph unicode="t" horiz-adv-x="796" d="M33 1024v82h264l12 248l72 12v-260h369v-82h-367v-731q0 -229 215 -230q78 0 170 27v-80q-102 -24 -184 -24q-287 0 -287 290v748h-264z" />
<glyph unicode="u" d="M174 283v823h86v-789q0 -133 47 -193.5t152 -60.5q63 0 125.5 13.5t127 36t132 51.5t143.5 61v881h86v-1106h-69l-11 145h-8q-104 -43 -178 -74.5t-133.5 -51t-114.5 -29.5t-121 -10q-264 0 -264 303z" />
<glyph unicode="v" horiz-adv-x="1116" d="M55 1083v23h86l365 -911l47 -132h10l47 132l367 911h84v-23l-438 -1083h-129z" />
<glyph unicode="w" horiz-adv-x="1640" d="M66 1090v16h84l247 -840l45 -172h11l49 172l264 840h100l279 -840l53 -172h8l45 172l232 840h84v-16l-307 -1090h-109l-283 844l-47 168h-8l-47 -168l-266 -844h-107z" />
<glyph unicode="x" horiz-adv-x="1110" d="M39 0v25l457 550l-433 517v14h97l309 -371l84 -106h8l84 106l303 371h99v-14l-433 -523l455 -544v-25h-86l-328 391l-98 123h-10l-94 -123l-326 -391h-88z" />
<glyph unicode="y" horiz-adv-x="1148" d="M51 1090v16h90l377 -873l49 -124h8l52 124l395 873h86v-16l-700 -1541l-70 23l-2 16l188 418z" />
<glyph unicode="z" horiz-adv-x="980" d="M86 2v66l659 948v8h-641v82h773v-55l-666 -959v-8h686v-82h-811z" />
<glyph unicode="{" horiz-adv-x="761" d="M86 680v94q72 0 118 56.5t46 170.5v517q0 141 49 200.5t172 59.5q18 0 51 -1t66 -3t59.5 -3.5t36.5 -3.5v-67h-260q-49 0 -70.5 -20.5t-21.5 -65.5v-631q0 -96 -40 -170t-118 -88q39 -6 67.5 -27.5t49 -55.5t31 -78t10.5 -91v-637q0 -45 21.5 -65.5t70.5 -20.5h260v-67 q-10 -2 -35.5 -4.5t-58.5 -3.5t-64.5 -2t-50.5 -1q-123 0 -174 59.5t-51 200.5v523q0 115 -46 170t-118 55z" />
<glyph unicode="|" horiz-adv-x="489" d="M203 -451v2106h84v-2106h-84z" />
<glyph unicode="}" horiz-adv-x="761" d="M78 -250h260q49 0 70.5 20.5t21.5 65.5v637q0 47 10.5 91t29.5 78t49 55.5t69 27.5q-78 14 -118 88t-40 170v631q0 45 -21.5 65.5t-70.5 20.5h-260v67q8 2 35.5 3.5t61.5 3.5t66.5 3t51.5 1q123 0 171 -59.5t48 -200.5v-517q0 -115 46 -171t118 -56v-94q-72 0 -118 -55.5 t-46 -169.5v-523q0 -141 -50 -200.5t-173 -59.5q-18 0 -51 1t-65 2t-59.5 3.5t-35.5 4.5v67z" />
<glyph unicode="~" horiz-adv-x="1355" d="M164 604q49 45 91 77t81 51.5t78 27.5t82 8q63 0 110 -24.5t90 -53t86 -53.5t97 -25q37 0 75.5 10.5t72.5 28t60.5 41t40.5 49.5l66 -36q-25 -37 -59.5 -68t-75.5 -54.5t-87 -37t-91 -13.5q-70 0 -123 24t-96.5 53.5t-82 53t-81.5 23.5q-68 0 -132.5 -30.5t-152.5 -106.5 z" />
<glyph unicode="&#xa1;" horiz-adv-x="464" d="M174 1030q0 66 66 66q31 0 49 -17.5t18 -48.5t-18.5 -49t-48.5 -18q-66 0 -66 67zM188 -389l15 1155v29h57v-29l14 -1155v-21h-86v21z" />
<glyph unicode="&#xa2;" horiz-adv-x="1030" d="M121 551q0 526 450 569v232h78v-228q53 0 120 -7t118 -19v-86q-49 16 -106.5 23t-114.5 7q-455 0 -455 -491q0 -254 107.5 -371t340.5 -117q61 0 112.5 5.5t115.5 19.5v-80q-41 -12 -105.5 -19t-128.5 -7h-4v-228h-78v232q-451 39 -450 565z" />
<glyph unicode="&#xa3;" horiz-adv-x="1310" d="M117 0v84h344v627h-344v80h344v288q0 113 21.5 197t68.5 139t124 82t185 27q68 0 152 -14.5t184 -45.5l-20 -78q-92 29 -172 42.5t-140 13.5q-88 0 -148.5 -20.5t-98 -64.5t-54 -112.5t-16.5 -165.5v-288h471v-80h-471v-627h622v-84h-1052z" />
<glyph unicode="&#xa4;" horiz-adv-x="1304" d="M141 313l113 109l115 88q-78 96 -78 248q0 150 78 246l-115 90l-113 108l66 66l110 -113l86 -113q47 41 108.5 64.5t139.5 23.5q76 0 138.5 -23.5t109.5 -66.5l88 115l109 113l67 -66l-114 -108l-117 -90q80 -98 80 -246q0 -76 -20.5 -138.5t-57.5 -109.5l115 -88 l114 -109l-67 -65l-109 112l-88 111q-94 -88 -246 -88q-78 0 -140 23.5t-110 64.5l-86 -111l-110 -112zM369 758q0 -141 77.5 -220t206.5 -79t205 77.5t76 221.5q0 133 -73 215t-208 82q-129 0 -206.5 -78t-77.5 -219z" />
<glyph unicode="&#xa5;" horiz-adv-x="1363" d="M82 1516h96l447 -779l63 -123h10l64 123l446 779h97l-537 -936h350v-74h-381v-197h381v-73h-381v-236h-86v236h-463v73h463v197h-463v74h430z" />
<glyph unicode="&#xa6;" horiz-adv-x="493" d="M205 414h84v-865h-84v865zM205 791v864h84v-864h-84z" />
<glyph unicode="&#xa7;" horiz-adv-x="1013" d="M137 29v80q193 -51 357 -52q147 0 224 60.5t77 171.5q0 63 -22.5 104t-61.5 66.5t-88.5 41t-104.5 27.5q-66 14 -130 30.5t-116.5 48.5t-85 86.5t-32.5 144.5q0 68 24.5 121t71.5 90q-43 33 -69.5 84t-26.5 131q0 139 103 217t284 78q31 0 58.5 -2.5t61 -6.5t76.5 -12 t103 -20l-9 -80q-104 23 -167.5 32t-120.5 9q-147 0 -224 -54.5t-77 -158.5q0 -63 24.5 -103.5t66.5 -65t95 -39t111 -26.5q63 -14 125.5 -32.5t109.5 -53.5t77 -90t30 -141q0 -131 -86 -213q41 -35 63.5 -85t22.5 -128q0 -145 -102.5 -227t-282.5 -82q-35 0 -68 2t-74 8 t-93 15t-124 24zM242 840q0 -63 24.5 -103.5t65.5 -65t93 -40t110 -27.5q47 -10 96 -23t90 -36q74 61 74 168q0 63 -22.5 105t-60.5 68.5t-87.5 42t-102.5 27.5q-49 10 -99 20.5t-93 31.5q-88 -55 -88 -168z" />
<glyph unicode="&#xa8;" horiz-adv-x="974" d="M152 1448q0 68 69 68q29 0 49.5 -16.5t20.5 -51.5t-20.5 -52.5t-49.5 -17.5q-70 0 -69 70zM649 1448q0 35 18.5 51.5t49.5 16.5q29 0 49 -16.5t20 -51.5t-20 -52.5t-49 -17.5q-31 0 -49.5 17.5t-18.5 52.5z" />
<glyph unicode="&#xa9;" horiz-adv-x="1773" d="M125 758q0 176 55.5 319.5t154.5 245.5t239.5 158.5t312.5 56.5t312 -56.5t239.5 -158.5t155 -245.5t55.5 -319.5t-55.5 -319.5t-155 -246t-239.5 -159t-312 -56.5t-312.5 56.5t-239.5 159t-154.5 246t-55.5 319.5zM201 758q0 -160 49 -290t139 -222t216 -142.5 t282 -50.5q154 0 280.5 50.5t217 142.5t139.5 222t49 290t-49 290t-139.5 222t-217.5 142t-280 50q-156 0 -282 -50t-216 -142t-139 -222t-49 -290zM545 748q0 215 102.5 319t272.5 104q43 0 86 -5t84 -13v-78q-37 8 -80 13.5t-86 5.5q-137 0 -218 -86t-81 -260 q0 -172 83 -255t214 -83q43 0 87 6t85 14v-74q-84 -22 -174 -22q-170 0 -272.5 102.5t-102.5 311.5z" />
<glyph unicode="&#xaa;" horiz-adv-x="909" d="M113 918q0 100 81.5 160.5t260.5 76.5l213 19v88q0 47 -10.5 81.5t-38 58t-74.5 35t-121 11.5q-29 0 -77 -3t-138 -18l-16 76q92 14 154.5 19.5t105.5 5.5q162 0 228.5 -60.5t66.5 -193.5v-553h-72l-12 96h-9q-96 -53 -164.5 -78.5t-134.5 -25.5q-123 0 -183 56t-60 149z M203 913q0 -66 40.5 -99.5t118.5 -33.5q59 0 128 24.5t178 80.5v215l-117 -6q-100 -6 -167 -19.5t-106.5 -36t-57 -53.5t-17.5 -72z" />
<glyph unicode="&#xab;" horiz-adv-x="1230" d="M76 549v8l426 487h102l-426 -487v-8l426 -488h-102zM588 549v8l426 487h102l-426 -487v-8l426 -488h-102z" />
<glyph unicode="&#xac;" horiz-adv-x="1669" d="M160 780v82h1337v-616h-86v534h-1251z" />
<glyph unicode="&#xad;" horiz-adv-x="956" d="M160 528v90h639v-90h-639z" />
<glyph unicode="&#xae;" horiz-adv-x="1525" d="M133 911q0 135 47 251t131 201t200 132t251 47t250.5 -47t200.5 -132t132.5 -200.5t47.5 -251.5q0 -135 -47.5 -250.5t-132.5 -199.5t-200.5 -131t-250.5 -47t-251 47t-200 131t-131 199.5t-47 250.5zM207 911q0 -121 42 -222t115.5 -175t175 -116t222.5 -42t223 42 t176 116t116 175.5t42 221.5q0 121 -42 223.5t-116 176t-176 115.5t-223 42t-222.5 -42t-175 -115.5t-115.5 -176t-42 -223.5zM530 567v705q55 8 102.5 12t86.5 4q168 0 245.5 -53t77.5 -170q0 -162 -157 -209l-2 -8l188 -281h-90l-178 275h-199v-275h-74zM604 913 q23 -2 56.5 -3t68.5 -1q240 0 240 156q0 82 -56.5 117t-183.5 35q-29 0 -56.5 -2.5t-68.5 -6.5v-295z" />
<glyph unicode="&#xaf;" horiz-adv-x="991" d="M150 1337v78h626v-78h-626z" />
<glyph unicode="&#xb0;" horiz-adv-x="974" d="M113 1149q0 76 28.5 143.5t79.5 118.5t120 80t146 29q78 0 146.5 -29t119 -80t80 -118.5t29.5 -143.5q0 -78 -29.5 -144.5t-80 -117.5t-119 -80t-146.5 -29t-146.5 29t-119.5 80t-79.5 117.5t-28.5 144.5zM190 1149q0 -61 24 -115.5t63.5 -94.5t94 -62.5t115.5 -22.5 q63 0 117.5 22.5t94.5 62.5t62.5 94t22.5 116q0 61 -22.5 115.5t-62.5 94.5t-94 62.5t-118 22.5q-61 0 -115.5 -22.5t-94 -62.5t-63.5 -94.5t-24 -115.5z" />
<glyph unicode="&#xb1;" horiz-adv-x="1110" d="M176 842v78h338v356h78v-356h338v-78h-338v-357h-78v357h-338zM178 225v78h752v-78h-752z" />
<glyph unicode="&#xb2;" horiz-adv-x="872" d="M98 621v147q0 63 17.5 117.5t56.5 103.5t102.5 95t153.5 96q137 76 192.5 135t55.5 137q0 211 -244 211q-117 0 -287 -39l-14 78q86 23 161 32t142 9q326 0 326 -289q0 -53 -14.5 -97t-48 -84t-89 -79t-137.5 -82q-80 -43 -134 -82t-88 -78t-48.5 -83t-14.5 -95v-76h580 v-77h-668z" />
<glyph unicode="&#xb3;" horiz-adv-x="831" d="M109 623v75h16q37 -8 97.5 -13t103.5 -5q152 0 232.5 65.5t80.5 186.5q0 211 -272 211h-131v78h129q244 0 243 219q0 229 -272 229q-35 0 -89 -5t-122 -15h-16v75q106 25 229 25q172 0 264 -82t92 -229q0 -92 -40 -156.5t-113 -93.5q90 -25 136 -92.5t46 -171.5 q0 -158 -100 -241t-293 -83q-49 0 -105.5 6t-115.5 17z" />
<glyph unicode="&#xb4;" horiz-adv-x="475" d="M113 1262l151 372h92l-182 -385z" />
<glyph unicode="&#xb5;" horiz-adv-x="1306" d="M199 -451v1557h86v-789q0 -135 47 -195.5t151 -60.5q63 0 126 13.5t126.5 35t131 51t145.5 62.5v883h86v-1106h-70l-10 145h-8q-102 -43 -176 -74.5t-133.5 -51t-115 -29.5t-120.5 -10q-113 0 -180 57v-488h-86z" />
<glyph unicode="&#xb6;" horiz-adv-x="1224" d="M92 1034q0 137 38 231.5t108.5 152t169 83t221.5 25.5q43 0 83 -5t89 -16v-1505h-76v545q-18 -2 -46 -2h-44q-123 0 -223.5 25.5t-171 83t-109.5 151.5t-39 231zM924 0v1505h75v-1505h-75z" />
<glyph unicode="&#xb7;" horiz-adv-x="468" d="M158 758q0 39 20.5 57.5t54.5 18.5q31 0 53.5 -17.5t22.5 -58.5t-22.5 -57.5t-53.5 -16.5q-35 0 -55 17.5t-20 56.5z" />
<glyph unicode="&#xb8;" horiz-adv-x="657" d="M80 -348q49 -12 79.5 -16.5t63.5 -4.5q104 0 144.5 35t40.5 121q0 25 -4.5 48.5t-13.5 49t-24.5 58t-39.5 77.5h88q25 -51 41 -84.5t25 -59.5t12.5 -46t3.5 -43q0 -117 -63.5 -177.5t-180.5 -60.5q-39 0 -84 6.5t-88 18.5v78z" />
<glyph unicode="&#xb9;" horiz-adv-x="638" d="M59 1526v12l334 195h62v-1119h-82v1014l-285 -151h-18z" />
<glyph unicode="&#xba;" horiz-adv-x="989" d="M123 1118q0 209 98 310.5t273 101.5q172 0 273 -101.5t101 -310.5t-101 -310t-273 -101q-174 0 -272.5 101t-98.5 310zM205 1118q0 -94 23.5 -157.5t63.5 -102.5t92.5 -55.5t109.5 -16.5t109 16.5t92 55.5t62.5 102.5t22.5 157.5t-22.5 157.5t-62.5 102.5t-92 54.5 t-109 15.5t-109.5 -15.5t-92.5 -54.5t-63.5 -102.5t-23.5 -157.5z" />
<glyph unicode="&#xbb;" horiz-adv-x="1230" d="M115 61l426 488v8l-426 487h102l426 -487v-8l-426 -488h-102zM627 61l426 488v8l-426 487h102l426 -487v-8l-426 -488h-102z" />
<glyph unicode="&#xbc;" horiz-adv-x="1927" d="M66 1321v12l333 195h62v-1118h-82v1013l-285 -151h-18zM424 0l766 1516h90l-764 -1516h-92zM1034 336l377 799h14l54 -19v-16l-342 -740h458l23 402h57v-402h185v-77h-185v-283h-82v283h-528z" />
<glyph unicode="&#xbd;" horiz-adv-x="2009" d="M66 1321v12l333 195h62v-1118h-82v1013l-285 -151h-18zM424 0l766 1516h90l-764 -1516h-92zM1223 6v148q0 63 17 117.5t56 103.5t102.5 95t153.5 95q137 76 192.5 135.5t55.5 137.5q0 211 -244 211q-119 0 -286 -39l-15 77q84 20 158 30.5t146 10.5q326 0 325 -288 q0 -53 -14.5 -97.5t-48 -84.5t-89 -78.5t-137.5 -81.5q-80 -43 -134 -82t-88 -79t-48 -83t-14 -94v-76h579v-78h-667z" />
<glyph unicode="&#xbe;" horiz-adv-x="2086" d="M135 418v76h17q37 -8 97 -13.5t103 -5.5q152 0 233 65.5t81 186.5q0 211 -273 211h-131v78h129q244 0 244 219q0 229 -273 229q-35 0 -89 -5t-121 -15h-17v76q106 25 230 24q172 0 264 -82t92 -229q0 -92 -40 -156.5t-114 -93.5q90 -25 136.5 -92.5t46.5 -171.5 q0 -158 -100.5 -241t-293.5 -83q-49 0 -105 6.5t-116 16.5zM582 0l766 1516h90l-764 -1516h-92zM1194 336l377 799h14l53 -19v-16l-342 -740h459l23 402h57v-402h184v-77h-184v-283h-82v283h-528z" />
<glyph unicode="&#xbf;" horiz-adv-x="903" d="M82 -18q0 113 41 188.5t104.5 125.5t137 80t141.5 48v375h78v-41l6 -398q-63 -16 -137 -39.5t-137.5 -65.5t-106.5 -107.5t-43 -163.5q0 -92 30.5 -153.5t79 -99.5t107.5 -53.5t119 -15.5q82 0 157.5 14.5t155.5 36.5l25 -71q-72 -27 -162 -44.5t-182 -17.5 q-74 0 -148 19.5t-133 65.5t-96 123t-37 194zM475 1053q0 29 18.5 47t49.5 18t48 -18.5t17 -46.5q0 -68 -65 -68q-31 0 -49.5 18.5t-18.5 49.5z" />
<glyph unicode="&#xc0;" horiz-adv-x="1404" d="M23 0v10l608 1506h143l608 -1506v-10h-90l-202 502h-775l-202 -502h-90zM348 584h709l-248 618l-102 250h-9l-102 -250zM496 1911h94l160 -236l-76 -28z" />
<glyph unicode="&#xc1;" horiz-adv-x="1404" d="M23 0v10l608 1506h143l608 -1506v-10h-90l-202 502h-775l-202 -502h-90zM348 584h709l-248 618l-102 250h-9l-102 -250zM653 1659l162 252h94l-178 -264z" />
<glyph unicode="&#xc2;" horiz-adv-x="1404" d="M23 0v10l608 1506h143l608 -1506v-10h-90l-202 502h-775l-202 -502h-90zM348 584h709l-248 618l-102 250h-9l-102 -250zM389 1675v94l316 148l317 -148v-94l-317 148z" />
<glyph unicode="&#xc3;" horiz-adv-x="1404" d="M23 0v10l608 1506h143l608 -1506v-10h-90l-202 502h-775l-202 -502h-90zM324 1778q111 102 235 102q49 0 91 -13.5t82 -30.5t79 -30.5t84 -13.5q104 0 201 78l49 -49q-53 -49 -118.5 -78t-137.5 -29q-43 0 -84 13.5t-82 31t-82 30.5t-80 13q-47 0 -94 -17.5t-94 -58.5z M348 584h709l-248 618l-102 250h-9l-102 -250z" />
<glyph unicode="&#xc4;" horiz-adv-x="1404" d="M23 0v10l608 1506h143l608 -1506v-10h-90l-202 502h-775l-202 -502h-90zM348 584h709l-248 618l-102 250h-9l-102 -250zM356 1780q0 39 19.5 56t54.5 17q31 0 54.5 -16t23.5 -57t-23.5 -58.5t-54.5 -17.5q-35 0 -54.5 17.5t-19.5 58.5zM905 1780q0 39 20.5 56t55.5 17 q31 0 53.5 -16t22.5 -57t-22.5 -58.5t-53.5 -17.5q-35 0 -55.5 17.5t-20.5 58.5z" />
<glyph unicode="&#xc5;" horiz-adv-x="1404" d="M23 0v10l608 1506h143l608 -1506v-10h-90l-202 502h-775l-202 -502h-90zM348 584h709l-248 618l-102 250h-9l-102 -250zM461 1864q0 96 70.5 158.5t177.5 62.5q51 0 96 -16.5t77.5 -46t51 -70.5t18.5 -88t-18.5 -86t-51 -68t-77.5 -45t-96 -16q-53 0 -98.5 16t-79 45 t-52 68t-18.5 86zM537 1864q0 -66 46 -105t126 -39q78 0 123 39t45 105q0 70 -45.5 109.5t-122.5 39.5q-80 0 -126 -40t-46 -109z" />
<glyph unicode="&#xc6;" horiz-adv-x="1769" d="M27 0v12l653 1504h958v-82h-723l27 -623h631v-82h-627l31 -647h682v-82h-768l-21 502h-538l-221 -502h-84zM367 584h499l-35 850h-90z" />
<glyph unicode="&#xc7;" horiz-adv-x="1251" d="M127 754q0 385 169 582.5t497 197.5q37 0 84 -3t96 -9t97 -14.5t91 -18.5v-84q-104 23 -200.5 35t-165.5 12q-281 0 -431.5 -180t-150.5 -516q0 -334 143.5 -511t417.5 -177q37 0 89 4t107.5 12t105.5 16.5t85 18.5v-80q-35 -10 -78 -18.5t-91 -15.5t-95 -11t-86 -6 q20 -41 32.5 -70t19.5 -51.5t10.5 -41t3.5 -38.5q0 -117 -63.5 -177.5t-180.5 -60.5q-39 0 -84 6.5t-88 18.5v78q49 -12 79.5 -16.5t63.5 -4.5q104 0 144 35t40 121q0 47 -13 88t-50 113q-293 14 -445.5 208.5t-152.5 557.5z" />
<glyph unicode="&#xc8;" horiz-adv-x="1284" d="M213 0v1516h932v-82h-844v-619h807v-82h-807v-651h860v-82h-948zM481 1911h94l160 -236l-76 -28z" />
<glyph unicode="&#xc9;" horiz-adv-x="1284" d="M213 0v1516h932v-82h-844v-619h807v-82h-807v-651h860v-82h-948zM633 1659l162 252h94l-178 -264z" />
<glyph unicode="&#xca;" horiz-adv-x="1284" d="M213 0v1516h932v-82h-844v-619h807v-82h-807v-651h860v-82h-948zM373 1675v94l315 148l318 -148v-94l-318 148z" />
<glyph unicode="&#xcb;" horiz-adv-x="1284" d="M213 0v1516h932v-82h-844v-619h807v-82h-807v-651h860v-82h-948zM338 1780q0 39 19.5 56t54.5 17q31 0 54 -16t23 -57t-23 -58.5t-54 -17.5q-35 0 -54.5 17.5t-19.5 58.5zM887 1780q0 39 20.5 56t55.5 17q31 0 53 -16t22 -57t-22 -58.5t-53 -17.5q-35 0 -55.5 17.5 t-20.5 58.5z" />
<glyph unicode="&#xcc;" horiz-adv-x="514" d="M51 1911h94l160 -236l-76 -28zM213 0v1516h88v-1516h-88z" />
<glyph unicode="&#xcd;" horiz-adv-x="514" d="M207 1659l162 252h94l-178 -264zM213 0v1516h88v-1516h-88z" />
<glyph unicode="&#xce;" horiz-adv-x="514" d="M-57 1675v94l315 148l317 -148v-94l-317 148zM213 0v1516h88v-1516h-88z" />
<glyph unicode="&#xcf;" horiz-adv-x="514" d="M-92 1780q0 39 19.5 56t54.5 17q31 0 54 -16t23 -57t-23 -58.5t-54 -17.5q-35 0 -54.5 17.5t-19.5 58.5zM213 0v1516h88v-1516h-88zM457 1780q0 39 20.5 56t54.5 17q31 0 53.5 -16t22.5 -57t-22.5 -58.5t-53.5 -17.5q-35 0 -55 17.5t-20 58.5z" />
<glyph unicode="&#xd0;" horiz-adv-x="1544" d="M14 713v82h209v718q35 2 88.5 6.5t110.5 6.5t111.5 4t91.5 2q410 0 602 -187.5t192 -584.5q0 -401 -193.5 -589.5t-604.5 -188.5q-137 0 -247 10t-151 26v695h-209zM311 86q49 -6 88 -11t75 -7t73 -3.5t82 -1.5q358 0 530 170t172 527q0 354 -170 521t-534 167 q-31 0 -72 -1t-84 -4t-85 -6t-75 -5v-637h469v-82h-469v-627z" />
<glyph unicode="&#xd1;" horiz-adv-x="1640" d="M213 0v1516h82l905 -1190l135 -187h8v1377h84v-1516h-84l-917 1204l-119 168h-10v-1372h-84zM436 1778q111 102 236 102q49 0 91 -13.5t82 -30.5t79 -30.5t84 -13.5q104 0 200 78l49 -49q-53 -49 -118.5 -78t-137.5 -29q-43 0 -83.5 13.5t-81.5 31t-82 30.5t-80 13 q-47 0 -94.5 -17.5t-94.5 -58.5z" />
<glyph unicode="&#xd2;" horiz-adv-x="1564" d="M127 756q0 190 45 335.5t129 244t206 149.5t275 51q154 0 277 -51t207 -149.5t129 -244t45 -335.5t-45 -335t-129 -243t-207 -148t-277 -50t-275.5 50t-205.5 148t-129 242.5t-45 335.5zM213 756q0 -332 148.5 -513.5t420.5 -181.5q135 0 240.5 47.5t178.5 136.5t112 218 t39 293q0 336 -147.5 517t-422.5 181q-274 0 -421.5 -180t-147.5 -518zM571 1911h95l159 -236l-75 -28z" />
<glyph unicode="&#xd3;" horiz-adv-x="1564" d="M127 756q0 190 45 335.5t129 244t206 149.5t275 51q154 0 277 -51t207 -149.5t129 -244t45 -335.5t-45 -335t-129 -243t-207 -148t-277 -50t-275.5 50t-205.5 148t-129 242.5t-45 335.5zM213 756q0 -332 148.5 -513.5t420.5 -181.5q135 0 240.5 47.5t178.5 136.5t112 218 t39 293q0 336 -147.5 517t-422.5 181q-274 0 -421.5 -180t-147.5 -518zM729 1659l162 252h94l-178 -264z" />
<glyph unicode="&#xd4;" horiz-adv-x="1564" d="M127 756q0 190 45 335.5t129 244t206 149.5t275 51q154 0 277 -51t207 -149.5t129 -244t45 -335.5t-45 -335t-129 -243t-207 -148t-277 -50t-275.5 50t-205.5 148t-129 242.5t-45 335.5zM213 756q0 -332 148.5 -513.5t420.5 -181.5q135 0 240.5 47.5t178.5 136.5t112 218 t39 293q0 336 -147.5 517t-422.5 181q-274 0 -421.5 -180t-147.5 -518zM467 1675v94l315 148l318 -148v-94l-318 148z" />
<glyph unicode="&#xd5;" horiz-adv-x="1564" d="M127 756q0 190 45 335.5t129 244t206 149.5t275 51q154 0 277 -51t207 -149.5t129 -244t45 -335.5t-45 -335t-129 -243t-207 -148t-277 -50t-275.5 50t-205.5 148t-129 242.5t-45 335.5zM213 756q0 -332 148.5 -513.5t420.5 -181.5q135 0 240.5 47.5t178.5 136.5t112 218 t39 293q0 336 -147.5 517t-422.5 181q-274 0 -421.5 -180t-147.5 -518zM399 1778q111 102 236 102q49 0 91 -13.5t82 -30.5t79 -30.5t84 -13.5q104 0 200 78l50 -49q-53 -49 -119 -78t-137 -29q-43 0 -84 13.5t-82 31t-82 30.5t-80 13q-47 0 -94 -17.5t-94 -58.5z" />
<glyph unicode="&#xd6;" horiz-adv-x="1564" d="M127 756q0 190 45 335.5t129 244t206 149.5t275 51q154 0 277 -51t207 -149.5t129 -244t45 -335.5t-45 -335t-129 -243t-207 -148t-277 -50t-275.5 50t-205.5 148t-129 242.5t-45 335.5zM213 756q0 -332 148.5 -513.5t420.5 -181.5q135 0 240.5 47.5t178.5 136.5t112 218 t39 293q0 336 -147.5 517t-422.5 181q-274 0 -421.5 -180t-147.5 -518zM430 1780q0 39 19.5 56t54.5 17q31 0 54.5 -16t23.5 -57t-23.5 -58.5t-54.5 -17.5q-35 0 -54.5 17.5t-19.5 58.5zM979 1780q0 39 20.5 56t55.5 17q31 0 53 -16t22 -57t-22 -58.5t-53 -17.5 q-35 0 -55.5 17.5t-20.5 58.5z" />
<glyph unicode="&#xd7;" horiz-adv-x="954" d="M150 487l272 273l-272 272l55 55l272 -272l273 272l55 -55l-273 -272l273 -273l-55 -55l-273 273l-272 -273z" />
<glyph unicode="&#xd8;" horiz-adv-x="1562" d="M121 0l160 201q-154 201 -154 555q0 190 45 335.5t129 244t206 149.5t275 51q272 0 443 -158l110 138h101l-158 -197q78 -98 120 -238.5t42 -324.5q0 -190 -45 -335t-129 -243t-207 -148t-277 -50q-281 0 -448 161l-115 -141h-98zM213 756q0 -154 33 -274t94 -208 l829 1035q-72 72 -168 108.5t-219 36.5q-274 0 -421.5 -180t-147.5 -518zM389 213q147 -152 393 -152q135 0 240.5 47.5t178.5 136.5t112 218t39 293q0 313 -131 491z" />
<glyph unicode="&#xd9;" horiz-adv-x="1570" d="M197 610v903h88v-888q0 -158 32.5 -265.5t95 -174t156 -95.5t215.5 -29q123 0 217.5 29t157 95.5t95 174t32.5 265.5v888h88v-903q0 -170 -35.5 -289.5t-109.5 -195.5t-184.5 -110.5t-260.5 -34.5t-260 34.5t-183 110.5t-108.5 195.5t-35.5 289.5zM569 1911h95l159 -236 l-75 -28z" />
<glyph unicode="&#xda;" horiz-adv-x="1570" d="M197 610v903h88v-888q0 -158 32.5 -265.5t95 -174t156 -95.5t215.5 -29q123 0 217.5 29t157 95.5t95 174t32.5 265.5v888h88v-903q0 -170 -35.5 -289.5t-109.5 -195.5t-184.5 -110.5t-260.5 -34.5t-260 34.5t-183 110.5t-108.5 195.5t-35.5 289.5zM725 1659l162 252h94 l-178 -264z" />
<glyph unicode="&#xdb;" horiz-adv-x="1570" d="M197 610v903h88v-888q0 -158 32.5 -265.5t95 -174t156 -95.5t215.5 -29q123 0 217.5 29t157 95.5t95 174t32.5 265.5v888h88v-903q0 -170 -35.5 -289.5t-109.5 -195.5t-184.5 -110.5t-260.5 -34.5t-260 34.5t-183 110.5t-108.5 195.5t-35.5 289.5zM463 1675v94l315 148 l318 -148v-94l-318 148z" />
<glyph unicode="&#xdc;" horiz-adv-x="1570" d="M197 610v903h88v-888q0 -158 32.5 -265.5t95 -174t156 -95.5t215.5 -29q123 0 217.5 29t157 95.5t95 174t32.5 265.5v888h88v-903q0 -170 -35.5 -289.5t-109.5 -195.5t-184.5 -110.5t-260.5 -34.5t-260 34.5t-183 110.5t-108.5 195.5t-35.5 289.5zM428 1780q0 39 19.5 56 t54.5 17q31 0 54.5 -16t23.5 -57t-23.5 -58.5t-54.5 -17.5q-35 0 -54.5 17.5t-19.5 58.5zM977 1780q0 39 20.5 56t55.5 17q31 0 53 -16t22 -57t-22 -58.5t-53 -17.5q-35 0 -55.5 17.5t-20.5 58.5z" />
<glyph unicode="&#xdd;" horiz-adv-x="1263" d="M20 1516h97l446 -779l64 -123h10l63 123l447 779h96l-567 -992v-524h-86v524zM580 1659l161 252h95l-179 -264z" />
<glyph unicode="&#xde;" horiz-adv-x="1343" d="M213 0v1518h88v-265q135 18 266 19q352 0 515 -122t163 -388q0 -268 -155.5 -390t-503.5 -122q-57 0 -127 5t-158 15v-270h-88zM301 356q14 -4 47 -8t74 -7t85 -5t81 -2q156 0 264.5 23.5t177 73.5t99 132t30.5 199q0 113 -33.5 193.5t-105.5 133t-184.5 77t-270.5 24.5 q-68 0 -142.5 -5t-121.5 -16v-813z" />
<glyph unicode="&#xdf;" horiz-adv-x="1271" d="M182 0v1221q0 236 110.5 337t323.5 101q217 0 328 -103.5t111 -334.5v-168h-207q-147 0 -224 -55.5t-77 -159.5q0 -61 24.5 -101.5t66.5 -65t95 -39t113 -26.5q63 -14 124.5 -32.5t109.5 -53.5t78 -90t30 -141q0 -145 -102.5 -227t-282.5 -82q-35 0 -69 2t-73.5 8t-92 15 t-124.5 24v80q193 -51 357 -52q145 0 222 60.5t77 171.5q0 63 -22.5 104t-60.5 66.5t-87 41t-105 27.5q-66 14 -130 30.5t-116.5 48.5t-85 86.5t-32.5 144.5q0 139 102.5 217t282.5 78h121v88q0 190 -86 272t-263 82q-180 0 -265 -81t-85 -273v-1221h-86z" />
<glyph unicode="&#xe0;" horiz-adv-x="1081" d="M100 262q0 160 101.5 240t330.5 102l293 27v108q0 82 -15 138.5t-51 91.5t-95.5 50t-145.5 15q-80 0 -157.5 -8t-186.5 -29l-8 80q113 20 192.5 28.5t163.5 8.5q203 0 296 -86t93 -272v-756h-71l-13 143h-10q-250 -153 -424 -153q-293 0 -293 272zM186 264 q0 -194 217 -194q90 0 194.5 37.5t227.5 115.5v338l-274 -26q-102 -10 -172 -29t-113 -50.5t-61.5 -78.5t-18.5 -113zM313 1655h107l149 -367l-71 -20z" />
<glyph unicode="&#xe1;" horiz-adv-x="1081" d="M100 262q0 160 101.5 240t330.5 102l293 27v108q0 82 -15 138.5t-51 91.5t-95.5 50t-145.5 15q-80 0 -157.5 -8t-186.5 -29l-8 80q113 20 192.5 28.5t163.5 8.5q203 0 296 -86t93 -272v-756h-71l-13 143h-10q-250 -153 -424 -153q-293 0 -293 272zM186 264 q0 -194 217 -194q90 0 194.5 37.5t227.5 115.5v338l-274 -26q-102 -10 -172 -29t-113 -50.5t-61.5 -78.5t-18.5 -113zM516 1262l152 372h92l-182 -385z" />
<glyph unicode="&#xe2;" horiz-adv-x="1081" d="M100 262q0 160 101.5 240t330.5 102l293 27v108q0 82 -15 138.5t-51 91.5t-95.5 50t-145.5 15q-80 0 -157.5 -8t-186.5 -29l-8 80q113 20 192.5 28.5t163.5 8.5q203 0 296 -86t93 -272v-756h-71l-13 143h-10q-250 -153 -424 -153q-293 0 -293 272zM186 264 q0 -194 217 -194q90 0 194.5 37.5t227.5 115.5v338l-274 -26q-102 -10 -172 -29t-113 -50.5t-61.5 -78.5t-18.5 -113zM227 1315v92l318 149l315 -149v-92l-315 149z" />
<glyph unicode="&#xe3;" horiz-adv-x="1081" d="M100 262q0 160 101.5 240t330.5 102l293 27v108q0 82 -15 138.5t-51 91.5t-95.5 50t-145.5 15q-80 0 -157.5 -8t-186.5 -29l-8 80q113 20 192.5 28.5t163.5 8.5q203 0 296 -86t93 -272v-756h-71l-13 143h-10q-250 -153 -424 -153q-293 0 -293 272zM131 1411 q57 53 116.5 77.5t119.5 24.5q49 0 91 -13t82 -30.5t78.5 -31t83.5 -13.5q104 0 201 78l49 -49q-53 -49 -118.5 -76.5t-137.5 -27.5q-43 0 -84 13t-82 29.5t-81.5 30t-79.5 13.5q-47 0 -94.5 -17.5t-94.5 -58.5zM186 264q0 -194 217 -194q90 0 194.5 37.5t227.5 115.5v338 l-274 -26q-102 -10 -172 -29t-113 -50.5t-61.5 -78.5t-18.5 -113z" />
<glyph unicode="&#xe4;" horiz-adv-x="1081" d="M100 262q0 160 101.5 240t330.5 102l293 27v108q0 82 -15 138.5t-51 91.5t-95.5 50t-145.5 15q-80 0 -157.5 -8t-186.5 -29l-8 80q113 20 192.5 28.5t163.5 8.5q203 0 296 -86t93 -272v-756h-71l-13 143h-10q-250 -153 -424 -153q-293 0 -293 272zM186 264 q0 -194 217 -194q90 0 194.5 37.5t227.5 115.5v338l-274 -26q-102 -10 -172 -29t-113 -50.5t-61.5 -78.5t-18.5 -113zM225 1448q0 68 70 68q29 0 49.5 -16.5t20.5 -51.5t-20.5 -52.5t-49.5 -17.5q-70 0 -70 70zM723 1448q0 35 18.5 51.5t49.5 16.5q29 0 49 -16.5t20 -51.5 t-20 -52.5t-49 -17.5q-31 0 -49.5 17.5t-18.5 52.5z" />
<glyph unicode="&#xe5;" horiz-adv-x="1081" d="M100 262q0 160 101.5 240t330.5 102l293 27v108q0 82 -15 138.5t-51 91.5t-95.5 50t-145.5 15q-80 0 -157.5 -8t-186.5 -29l-8 80q113 20 192.5 28.5t163.5 8.5q203 0 296 -86t93 -272v-756h-71l-13 143h-10q-250 -153 -424 -153q-293 0 -293 272zM186 264 q0 -194 217 -194q90 0 194.5 37.5t227.5 115.5v338l-274 -26q-102 -10 -172 -29t-113 -50.5t-61.5 -78.5t-18.5 -113zM297 1454q0 96 70.5 158.5t177.5 62.5q51 0 96 -16.5t78 -46t51 -70.5t18 -88t-18 -86t-51 -67.5t-78 -45t-96 -16.5q-53 0 -98.5 16.5t-79 45t-52 67.5 t-18.5 86zM373 1454q0 -66 46 -104.5t126 -38.5q78 0 123 39t45 104q0 70 -45 110t-123 40q-80 0 -126 -40t-46 -110z" />
<glyph unicode="&#xe6;" horiz-adv-x="1830" d="M100 262q0 158 101.5 240t330.5 102l293 25v110q0 82 -15 138.5t-52 91.5t-95.5 50t-144.5 15q-80 0 -157.5 -8t-184.5 -29l-10 80q113 20 192.5 28.5t163.5 8.5q166 0 256 -57.5t113 -173.5l8 -2q53 117 157.5 180t258.5 63q197 0 300 -127t103 -366q0 -90 -8 -121h-797 q12 -449 430 -449q78 0 156 14.5t174 47.5l10 -76q-80 -29 -176 -47t-174 -18q-307 0 -426 206l-6 2q-92 -57 -167 -95t-136 -61.5t-111.5 -33.5t-93.5 -10q-293 0 -293 272zM186 264q0 -194 217 -194q182 0 422 151v340l-274 -24q-102 -10 -172 -29t-113 -51.5t-61.5 -79.5 t-18.5 -113zM913 586h719q-4 123 -23.5 210t-57.5 142t-96 80.5t-140 25.5q-190 0 -290.5 -115.5t-111.5 -342.5z" />
<glyph unicode="&#xe7;" horiz-adv-x="978" d="M117 551q0 573 532 573q51 0 116.5 -7t117.5 -19v-86q-49 16 -106.5 23t-114.5 7q-455 0 -455 -491q0 -254 107.5 -371t340.5 -117q61 0 112.5 5.5t115.5 19.5v-80q-41 -12 -103.5 -19t-126.5 -7q18 -39 30.5 -67t20 -49.5t10.5 -40t3 -38.5q0 -117 -63.5 -177.5 t-180.5 -60.5q-39 0 -84 6.5t-88 18.5v78q49 -12 80 -16.5t63 -4.5q104 0 144.5 35t40.5 121q0 47 -12.5 88t-51.5 111q-449 43 -448 565z" />
<glyph unicode="&#xe8;" horiz-adv-x="1122" d="M119 532q0 289 125 440.5t362 151.5q197 0 300.5 -126t103.5 -367q0 -43 -2 -74t-7 -47h-796q12 -446 432 -447q76 0 153.5 14.5t174.5 45.5l10 -76q-80 -29 -176 -47t-174 -18q-250 0 -378 139t-128 411zM205 584h719q-4 123 -23.5 211t-57.5 143t-97.5 80.5 t-141.5 25.5q-193 0 -291 -115.5t-108 -344.5zM358 1655h107l149 -367l-71 -20z" />
<glyph unicode="&#xe9;" horiz-adv-x="1122" d="M119 532q0 289 125 440.5t362 151.5q197 0 300.5 -126t103.5 -367q0 -43 -2 -74t-7 -47h-796q12 -446 432 -447q76 0 153.5 14.5t174.5 45.5l10 -76q-80 -29 -176 -47t-174 -18q-250 0 -378 139t-128 411zM205 584h719q-4 123 -23.5 211t-57.5 143t-97.5 80.5 t-141.5 25.5q-193 0 -291 -115.5t-108 -344.5zM565 1262l152 372h92l-182 -385z" />
<glyph unicode="&#xea;" horiz-adv-x="1122" d="M119 532q0 289 125 440.5t362 151.5q197 0 300.5 -126t103.5 -367q0 -43 -2 -74t-7 -47h-796q12 -446 432 -447q76 0 153.5 14.5t174.5 45.5l10 -76q-80 -29 -176 -47t-174 -18q-250 0 -378 139t-128 411zM205 584h719q-4 123 -23.5 211t-57.5 143t-97.5 80.5 t-141.5 25.5q-193 0 -291 -115.5t-108 -344.5zM274 1315v92l318 149l315 -149v-92l-315 149z" />
<glyph unicode="&#xeb;" horiz-adv-x="1122" d="M119 532q0 289 125 440.5t362 151.5q197 0 300.5 -126t103.5 -367q0 -43 -2 -74t-7 -47h-796q12 -446 432 -447q76 0 153.5 14.5t174.5 45.5l10 -76q-80 -29 -176 -47t-174 -18q-250 0 -378 139t-128 411zM205 584h719q-4 123 -23.5 211t-57.5 143t-97.5 80.5 t-141.5 25.5q-193 0 -291 -115.5t-108 -344.5zM270 1448q0 68 70 68q29 0 49.5 -16.5t20.5 -51.5t-20.5 -52.5t-49.5 -17.5q-70 0 -70 70zM768 1448q0 35 18.5 51.5t49.5 16.5q29 0 49 -16.5t20 -51.5t-20 -52.5t-49 -17.5q-31 0 -49.5 17.5t-18.5 52.5z" />
<glyph unicode="&#xec;" horiz-adv-x="456" d="M-2 1655h106l150 -367l-72 -20zM186 0v1106h86v-1106h-86z" />
<glyph unicode="&#xed;" horiz-adv-x="456" d="M186 0v1106h86v-1106h-86zM203 1262l151 372h92l-182 -385z" />
<glyph unicode="&#xee;" horiz-adv-x="456" d="M-84 1315v92l313 149l316 -149v-92l-314 149zM186 0v1106h86v-1106h-86z" />
<glyph unicode="&#xef;" horiz-adv-x="456" d="M-88 1448q0 35 19.5 51.5t50.5 16.5q29 0 50 -16.5t21 -51.5t-21 -52.5t-50 -17.5q-31 0 -50.5 17.5t-19.5 52.5zM186 0v1106h86v-1106h-86zM408 1448q0 68 67 68q29 0 49.5 -16.5t20.5 -51.5t-20.5 -52.5t-49.5 -17.5q-68 0 -67 70z" />
<glyph unicode="&#xf0;" horiz-adv-x="1249" d="M117 553q0 276 127 424.5t362 148.5q147 0 242.5 -61t155.5 -193q-16 129 -51 246t-91 225l-389 -45v80l348 39q-37 63 -81 121.5t-95 116.5h107q45 -53 85 -108.5t74 -119.5l306 35v-78l-269 -30q74 -156 113 -338t39 -400q0 -307 -128 -471.5t-364 -164.5 q-238 0 -364.5 148t-126.5 425zM207 553q0 -492 401 -492t402 551q0 86 -27 165t-79 138.5t-127 94t-169 34.5q-401 0 -401 -491z" />
<glyph unicode="&#xf1;" d="M182 0v1106h68l12 -133h8q96 43 171 72.5t134.5 47t110.5 25.5t100 8q141 0 218 -73.5t77 -229.5v-823h-86v786q0 139 -56 197.5t-173 58.5q-96 0 -223 -40.5t-275 -110.5v-891h-86zM225 1411q57 53 116.5 77.5t119.5 24.5q49 0 91 -13t82 -30.5t79 -31t84 -13.5 q104 0 200 78l50 -49q-53 -49 -119 -76.5t-137 -27.5q-43 0 -84 13t-82 29.5t-82 30t-80 13.5q-47 0 -94 -17.5t-95 -58.5z" />
<glyph unicode="&#xf2;" horiz-adv-x="1216" d="M117 553q0 276 127 424.5t364 148.5q238 0 365 -148.5t127 -424.5t-127 -424.5t-365 -148.5t-364.5 148t-126.5 425zM207 553q0 -492 401 -492t402 492q0 492 -402 491q-401 0 -401 -491zM375 1655h106l150 -367l-72 -20z" />
<glyph unicode="&#xf3;" horiz-adv-x="1216" d="M117 553q0 276 127 424.5t364 148.5q238 0 365 -148.5t127 -424.5t-127 -424.5t-365 -148.5t-364.5 148t-126.5 425zM207 553q0 -492 401 -492t402 492q0 492 -402 491q-401 0 -401 -491zM580 1262l151 372h92l-182 -385z" />
<glyph unicode="&#xf4;" horiz-adv-x="1216" d="M117 553q0 276 127 424.5t364 148.5q238 0 365 -148.5t127 -424.5t-127 -424.5t-365 -148.5t-364.5 148t-126.5 425zM207 553q0 -492 401 -492t402 492q0 492 -402 491q-401 0 -401 -491zM291 1315v92l317 149l316 -149v-92l-316 149z" />
<glyph unicode="&#xf5;" horiz-adv-x="1216" d="M117 553q0 276 127 424.5t364 148.5q238 0 365 -148.5t127 -424.5t-127 -424.5t-365 -148.5t-364.5 148t-126.5 425zM195 1411q57 53 116.5 77.5t118.5 24.5q49 0 91 -13t82 -30.5t79 -31t84 -13.5q104 0 201 78l49 -49q-53 -49 -119 -76.5t-137 -27.5q-43 0 -84 13 t-82 29.5t-82 30t-80 13.5q-47 0 -94 -17.5t-94 -58.5zM207 553q0 -492 401 -492t402 492q0 492 -402 491q-401 0 -401 -491z" />
<glyph unicode="&#xf6;" horiz-adv-x="1216" d="M117 553q0 276 127 424.5t364 148.5q238 0 365 -148.5t127 -424.5t-127 -424.5t-365 -148.5t-364.5 148t-126.5 425zM207 553q0 -492 401 -492t402 492q0 492 -402 491q-401 0 -401 -491zM289 1448q0 68 69 68q29 0 49.5 -16.5t20.5 -51.5t-20.5 -52.5t-49.5 -17.5 q-70 0 -69 70zM786 1448q0 35 18.5 51.5t49.5 16.5q29 0 49.5 -16.5t20.5 -51.5t-20.5 -52.5t-49.5 -17.5q-31 0 -49.5 17.5t-18.5 52.5z" />
<glyph unicode="&#xf7;" horiz-adv-x="1079" d="M164 719v78h754v-78h-754zM479 446q0 35 18.5 52.5t49.5 17.5t50 -18.5t19 -51.5q0 -31 -19 -49t-50 -18t-49.5 18.5t-18.5 48.5zM479 1051q0 35 18.5 52t49.5 17t50 -18.5t19 -50.5q0 -31 -19 -49.5t-50 -18.5t-49.5 18.5t-18.5 49.5z" />
<glyph unicode="&#xf8;" horiz-adv-x="1228" d="M78 0l143 166q-98 141 -98 387q0 276 127 424.5t364 148.5q215 0 340 -125l90 105h107l-145 -166q100 -147 100 -387q0 -276 -127 -424.5t-365 -148.5q-213 0 -340 122l-90 -102h-106zM213 553q0 -205 66 -322l620 709q-98 104 -285 104q-205 0 -303 -121.5t-98 -369.5z M328 164q98 -103 286 -103q205 0 303.5 122t98.5 370q0 201 -68 321z" />
<glyph unicode="&#xf9;" d="M174 283v823h86v-789q0 -133 47 -193.5t152 -60.5q63 0 125.5 13.5t127 36t132 51.5t143.5 61v881h86v-1106h-69l-11 145h-8q-104 -43 -178 -74.5t-133.5 -51t-114.5 -29.5t-121 -10q-264 0 -264 303zM381 1655h106l150 -367l-72 -20z" />
<glyph unicode="&#xfa;" d="M174 283v823h86v-789q0 -133 47 -193.5t152 -60.5q63 0 125.5 13.5t127 36t132 51.5t143.5 61v881h86v-1106h-69l-11 145h-8q-104 -43 -178 -74.5t-133.5 -51t-114.5 -29.5t-121 -10q-264 0 -264 303zM586 1262l151 372h92l-182 -385z" />
<glyph unicode="&#xfb;" d="M174 283v823h86v-789q0 -133 47 -193.5t152 -60.5q63 0 125.5 13.5t127 36t132 51.5t143.5 61v881h86v-1106h-69l-11 145h-8q-104 -43 -178 -74.5t-133.5 -51t-114.5 -29.5t-121 -10q-264 0 -264 303zM297 1315v92l317 149l316 -149v-92l-316 149z" />
<glyph unicode="&#xfc;" d="M174 283v823h86v-789q0 -133 47 -193.5t152 -60.5q63 0 125.5 13.5t127 36t132 51.5t143.5 61v881h86v-1106h-69l-11 145h-8q-104 -43 -178 -74.5t-133.5 -51t-114.5 -29.5t-121 -10q-264 0 -264 303zM295 1448q0 68 70 68q29 0 49 -16.5t20 -51.5t-20 -52.5t-49 -17.5 q-70 0 -70 70zM793 1448q0 35 18 51.5t49 16.5q29 0 49.5 -16.5t20.5 -51.5t-20.5 -52.5t-49.5 -17.5q-31 0 -49 17.5t-18 52.5z" />
<glyph unicode="&#xfd;" horiz-adv-x="1148" d="M51 1090v16h90l377 -873l49 -124h8l52 124l395 873h86v-16l-700 -1541l-70 23l-2 16l188 418zM545 1262l151 372h92l-182 -385z" />
<glyph unicode="&#xfe;" horiz-adv-x="1247" d="M182 -451v2106h86v-690q63 72 158.5 116.5t222.5 44.5q231 0 356 -137t125 -436q0 -150 -37.5 -257.5t-108.5 -178t-169 -104t-217 -33.5q-96 0 -182 10t-148 14v-455h-86zM268 84q61 -10 148.5 -17.5t181.5 -7.5q104 0 187 28t139.5 87t87 152.5t30.5 224.5 q0 268 -100 382t-301 114q-72 0 -139.5 -20.5t-119.5 -57.5t-83 -90.5t-31 -118.5v-676z" />
<glyph unicode="&#xff;" horiz-adv-x="1148" d="M51 1090v16h90l377 -873l49 -124h8l52 124l395 873h86v-16l-700 -1541l-70 23l-2 16l188 418zM252 1448q0 68 70 68q29 0 49 -16.5t20 -51.5t-20 -52.5t-49 -17.5q-70 0 -70 70zM750 1448q0 35 18 51.5t49 16.5q29 0 49.5 -16.5t20.5 -51.5t-20.5 -52.5t-49.5 -17.5 q-31 0 -49 17.5t-18 52.5z" />
<glyph unicode="&#x152;" horiz-adv-x="2011" d="M125 756q0 190 45 335.5t131 244t210 149.5t280 51q59 0 106 -3t98 -17h873v-82h-787v-619h750v-82h-750v-651h803v-82h-889q-45 -10 -96 -15t-108 -5q-156 0 -280 50t-210 148t-131 242.5t-45 335.5zM211 756q0 -332 152 -513.5t428 -181.5q57 0 107 5.5t97 21.5v1339 q-47 16 -96 21.5t-108 5.5q-279 0 -429.5 -180t-150.5 -518z" />
<glyph unicode="&#x153;" horiz-adv-x="2019" d="M117 553q0 276 127 424.5t364 148.5q172 0 285 -79.5t160 -223.5h8q47 143 157.5 222t282.5 79q197 0 300.5 -127t103.5 -366q0 -88 -9 -119h-796q12 -449 430 -449q76 0 154.5 14.5t175.5 45.5l10 -76q-80 -29 -176 -47t-174 -18q-184 0 -300 74.5t-161 215.5h-8 q-49 -139 -162 -215.5t-281 -76.5q-238 0 -364.5 148t-126.5 425zM207 553q0 -492 401 -492t402 492q0 492 -402 491q-401 0 -401 -491zM1100 586h719q-4 123 -23.5 210t-57.5 142t-96.5 80.5t-140.5 25.5q-383 0 -401 -458z" />
<glyph unicode="&#x178;" horiz-adv-x="1263" d="M20 1516h97l446 -779l64 -123h10l63 123l447 779h96l-567 -992v-524h-86v524zM281 1780q0 39 19 56t54 17q31 0 54.5 -16t23.5 -57t-23.5 -58.5t-54.5 -17.5q-35 0 -54 17.5t-19 58.5zM829 1780q0 39 20.5 56t55.5 17q31 0 53.5 -16t22.5 -57t-22.5 -58.5t-53.5 -17.5 q-35 0 -55.5 17.5t-20.5 58.5z" />
<glyph unicode="&#x2c6;" horiz-adv-x="944" d="M154 1315v92l317 149l315 -149v-92l-315 149z" />
<glyph unicode="&#x2dc;" horiz-adv-x="1058" d="M102 1411q57 53 117 77.5t119 24.5q49 0 91 -13t82 -30.5t79 -31t84 -13.5q104 0 200 78l50 -49q-53 -49 -119 -76.5t-137 -27.5q-43 0 -84 13t-82 29.5t-82 30t-80 13.5q-47 0 -94 -17.5t-94 -58.5z" />
<glyph unicode="&#x2000;" horiz-adv-x="1042" />
<glyph unicode="&#x2001;" horiz-adv-x="2085" />
<glyph unicode="&#x2002;" horiz-adv-x="1042" />
<glyph unicode="&#x2003;" horiz-adv-x="2085" />
<glyph unicode="&#x2004;" horiz-adv-x="695" />
<glyph unicode="&#x2005;" horiz-adv-x="521" />
<glyph unicode="&#x2006;" horiz-adv-x="347" />
<glyph unicode="&#x2007;" horiz-adv-x="347" />
<glyph unicode="&#x2008;" horiz-adv-x="260" />
<glyph unicode="&#x2009;" horiz-adv-x="417" />
<glyph unicode="&#x200a;" horiz-adv-x="115" />
<glyph unicode="&#x2010;" horiz-adv-x="956" d="M160 528v90h639v-90h-639z" />
<glyph unicode="&#x2011;" horiz-adv-x="956" d="M160 528v90h639v-90h-639z" />
<glyph unicode="&#x2012;" horiz-adv-x="956" d="M160 528v90h639v-90h-639z" />
<glyph unicode="&#x2013;" horiz-adv-x="1263" d="M160 528v90h946v-90h-946z" />
<glyph unicode="&#x2014;" horiz-adv-x="1613" d="M160 528v90h1296v-90h-1296z" />
<glyph unicode="&#x2018;" horiz-adv-x="405" d="M139 1288q0 47 7.5 98.5t19.5 100.5t29.5 93t40.5 81l49 -16q-31 -80 -49.5 -173.5t-18.5 -177.5q0 -92 33 -192l-84 -21q-27 82 -27 207z" />
<glyph unicode="&#x2019;" horiz-adv-x="405" d="M127 1098q31 78 49.5 172t18.5 178q0 92 -33 192l84 21q27 -82 26 -207q0 -47 -7 -98t-19.5 -100.5t-29.5 -93.5t-40 -81z" />
<glyph unicode="&#x201a;" horiz-adv-x="423" d="M106 -250q31 78 49.5 172t18.5 178q0 92 -33 193l84 20q27 -82 27 -207q0 -47 -7 -98t-19.5 -100t-30 -93t-39.5 -81z" />
<glyph unicode="&#x201c;" horiz-adv-x="835" d="M139 1288q0 47 7.5 98.5t19.5 100.5t29.5 93t40.5 81l49 -16q-31 -80 -49.5 -173.5t-18.5 -177.5q0 -92 33 -192l-84 -21q-27 82 -27 207zM569 1288q0 47 7.5 98.5t19.5 100.5t29.5 93t40.5 81l49 -16q-31 -80 -49.5 -173.5t-18.5 -177.5q0 -92 33 -192l-84 -21 q-27 82 -27 207z" />
<glyph unicode="&#x201d;" horiz-adv-x="835" d="M127 1098q31 78 49.5 172t18.5 178q0 92 -33 192l84 21q27 -82 26 -207q0 -47 -7 -98t-19.5 -100.5t-29.5 -93.5t-40 -81zM557 1098q31 78 49.5 172t18.5 178q0 92 -33 192l84 21q27 -82 26 -207q0 -47 -7 -98t-19 -100.5t-29.5 -93.5t-40.5 -81z" />
<glyph unicode="&#x201e;" horiz-adv-x="854" d="M106 -250q31 78 49.5 172t18.5 178q0 92 -33 193l84 20q27 -82 27 -207q0 -47 -7 -98t-19.5 -100t-30 -93t-39.5 -81zM537 -250q31 78 49 172t18 178q0 92 -33 193l84 20q27 -82 27 -207q0 -47 -7 -98t-19.5 -100t-30 -93t-39.5 -81z" />
<glyph unicode="&#x2022;" horiz-adv-x="661" d="M203 758q0 76 39 102.5t90 26.5q25 0 47 -6.5t39.5 -20.5t29 -38.5t11.5 -63.5t-11.5 -63.5t-29 -39t-39.5 -19.5t-47 -5t-48.5 5t-42 19.5t-28.5 39t-10 63.5z" />
<glyph unicode="&#x2026;" horiz-adv-x="1202" d="M156 68q0 35 19.5 53t51.5 18q33 0 53.5 -18.5t20.5 -52.5q0 -33 -20.5 -51.5t-53.5 -18.5t-52 18.5t-19 51.5zM539 68q0 35 19.5 53t51.5 18q33 0 53.5 -18.5t20.5 -52.5q0 -33 -20.5 -51.5t-53.5 -18.5t-52 18.5t-19 51.5zM901 68q0 35 19.5 53t52.5 18t53.5 -18.5 t20.5 -52.5q0 -33 -20.5 -51.5t-53.5 -18.5t-52.5 18.5t-19.5 51.5z" />
<glyph unicode="&#x202f;" horiz-adv-x="417" />
<glyph unicode="&#x2039;" horiz-adv-x="716" d="M76 549v8l426 487h102l-426 -487v-8l426 -488h-102z" />
<glyph unicode="&#x203a;" horiz-adv-x="716" d="M113 61l426 488v8l-426 487h102l426 -487v-8l-426 -488h-102z" />
<glyph unicode="&#x205f;" horiz-adv-x="521" />
<glyph unicode="&#x20ac;" horiz-adv-x="1292" d="M104 549v76h193q-2 31 -3 64.5t-1 68.5t1 67.5t3 65.5h-193v76h201q18 152 71.5 259t143.5 175.5t220 100.5t307 32q53 0 84.5 -2t68.5 -4l-45 -82q-16 2 -38.5 3t-57.5 1q-158 0 -274.5 -26.5t-197.5 -85t-128 -149.5t-66 -222h617l-35 -76h-590q-4 -33 -4 -65.5v-67.5 q0 -72 6 -133h537l-33 -76h-496q39 -254 194.5 -370t459.5 -116q16 0 45.5 1.5t64.5 3.5v-84q-18 -4 -42.5 -4h-65.5q-342 4 -523.5 139t-222.5 430h-201z" />
<glyph unicode="&#x2122;" horiz-adv-x="1910" d="M76 1440v76h690v-76h-305v-785h-80v785h-305zM889 655v861h92l330 -734l331 734h93v-861h-78v717l-307 -682h-74l-309 682v-717h-78z" />
<glyph unicode="&#x25fc;" horiz-adv-x="1105" d="M0 0v1106h1106v-1106h-1106z" />
</font>
</defs>
</svg>
